<?xml version="1.0" encoding="utf-8"?>
<!-- Generator: Adobe Illustrator 18.1.1, SVG Export Plug-In . SVG Version: 6.00 Build 0)  -->
<svg version="1.1" xmlns="http://www.w3.org/2000/svg" xmlns:xlink="http://www.w3.org/1999/xlink" x="0px" y="0px"
	 viewBox="0 0 800 600" enable-background="new 0 0 800 600" xml:space="preserve">
<g id="Layer_5">
	<g>
		<g enable-background="new    ">
			<g>
				<polygon fill="#8C9E9E" points="448.9,204.5 449.6,207.6 328.8,207.9 328.3,204.8 				"/>
			</g>
			<g>
				<polygon fill="#8C9E9E" points="328.3,204.8 328.8,207.9 319,289.9 318.4,286.8 				"/>
			</g>
			<g>
				<polygon fill="#8C9E9E" points="582.2,78.7 582.9,81.7 558,289.3 557.4,286.2 				"/>
			</g>
			<g>
				<polygon fill="#8C9E9E" points="557.4,286.2 558,289.3 439.8,289.6 439.1,286.5 				"/>
			</g>
			<g>
				<polygon fill="#8C9E9E" points="425.5,393.3 426.1,396.4 304.6,396.6 303.9,393.6 				"/>
			</g>
			<g>
				<polygon fill="#8C9E9E" points="303.9,393.6 304.6,396.6 294.4,481.9 293.8,478.8 				"/>
			</g>
			<g>
				<polygon fill="#8C9E9E" points="557.4,286.2 558,289.3 535,481.4 534.3,478.3 				"/>
			</g>
			<g>
				<polygon fill="#8C9E9E" points="534.3,478.3 535,481.4 415.9,481.7 415.3,478.6 				"/>
			</g>
			<g>
				<polygon fill="#8C9E9E" points="530.5,510.8 531.1,513.9 178.8,514.7 178.1,511.6 				"/>
			</g>
			<g>
				<polygon fill="#8C9E9E" points="534.3,478.3 535,481.4 531.1,513.9 530.5,510.8 				"/>
			</g>
		</g>
	</g>
</g>
<g id="Layer_7">
	<g>
		<polygon fill="#C1DDDD" points="582.2,78.7 557.4,286.2 439.1,286.5 448.9,204.5 328.3,204.8 318.4,286.8 557.4,286.2 
			534.3,478.3 415.3,478.6 425.5,393.3 303.9,393.6 293.8,478.8 534.3,478.3 530.5,510.8 178.1,511.6 229.9,79.4 		"/>
	</g>
</g>
<g id="Layer_1">
	<g id="template" display="none">
		<g id="_x35_TJfyZ.tif" display="inline">
			
				<image overflow="visible" enable-background="new    " width="412" height="575" id="Layer_0_1_" xlink:href="EE8D58848E8993A4.png"  transform="matrix(1 0 0 1 194 12)">
			</image>
		</g>
	</g>
	<g id="base" display="none">
		<g display="inline">
			<g>
				<g enable-background="new    ">
					<g>
						<rect x="203.2" y="22.6" fill="#405E5E" width="355.4" height="548.3"/>
					</g>
					<g>
						<rect x="380.9" y="-155.1" fill="#405E5E" width="0" height="355.4"/>
					</g>
				</g>
			</g>
		</g>
	</g>
	<polygon fill="#405E5E" points="573.6,85.1 564.6,152.3 228.5,153.1 237.5,85.9 	"/>
	<polygon fill="#405E5E" points="573.6,85.1 574.3,88.2 565.3,155.4 564.6,152.3 	"/>
	<polygon fill="#405E5E" points="564.6,152.3 565.3,155.4 229.3,156.3 228.5,153.1 	"/>
	<polygon fill="#405E5E" points="563.6,156.6 558.1,198.6 489.8,198.7 495.4,156.8 	"/>
	<polygon fill="#405E5E" points="563.6,156.6 564.3,159.7 558.7,201.6 558.1,198.6 	"/>
	<polygon fill="#405E5E" points="558.1,198.6 558.7,201.6 490.5,201.8 489.8,198.7 	"/>
	<polygon fill="#405E5E" points="557.9,202 548.3,273.9 480.1,274.1 489.6,202.1 	"/>
	<polygon fill="#405E5E" points="557.9,202 558.6,205 549,277 548.3,273.9 	"/>
	<polygon fill="#405E5E" points="548.3,273.9 549,277 480.7,277.2 480.1,274.1 	"/>
	<polygon fill="#405E5E" points="316.8,197.5 317.6,200.5 305.1,293.9 304.4,290.8 	"/>
	<polygon fill="#405E5E" points="316.8,197.5 304.4,290.8 346,290.7 341.6,323.1 203.5,323.4 220.2,197.6 	"/>
	<polygon fill="#405E5E" points="346,290.7 346.6,293.8 342.3,326.2 341.6,323.1 	"/>
	<polygon fill="#405E5E" points="341.6,323.1 342.3,326.2 204.1,326.5 203.5,323.4 	"/>
	<polygon fill="#405E5E" points="547.5,276.6 541.3,323.2 344.7,323.6 349,291 445.2,290.8 447.1,276.9 	"/>
	<polygon fill="#405E5E" points="547.5,276.6 548.2,279.7 542,326.2 541.3,323.2 	"/>
	<polygon fill="#405E5E" points="541.3,323.2 542,326.2 345.4,326.7 344.7,323.6 	"/>
	<polygon fill="#405E5E" points="437.8,357.3 438.4,360.4 434.7,388.1 434.1,385 	"/>
	<polygon fill="#405E5E" points="434.1,385 434.7,388.1 298,388.4 297.4,385.3 	"/>
	<polygon fill="#405E5E" points="297.4,385.3 298,388.4 285.2,485.8 284.4,482.8 	"/>
	<polygon fill="#405E5E" points="476.4,357.2 456.9,503.7 242.4,504.2 261.8,357.7 300.8,357.6 437.8,357.3 434.1,385 297.4,385.3 
		284.4,482.8 421.1,482.4 434.1,385 437.8,357.3 	"/>
	<polygon fill="#405E5E" points="476.4,357.2 477.1,360.2 457.6,506.7 456.9,503.7 	"/>
	<polygon fill="#405E5E" points="456.9,503.7 457.6,506.7 243.1,507.3 242.4,504.2 	"/>
	<polygon fill="#405E5E" points="317.8,327.2 318.5,330.4 315,356.6 314.3,353.5 	"/>
	<polygon fill="#405E5E" points="314.3,353.5 315,356.6 256.6,356.7 255.9,353.6 	"/>
	<polygon fill="#405E5E" points="255.9,353.6 256.6,356.7 236.5,506.7 235.9,503.6 	"/>
	<polygon fill="#405E5E" points="235.9,503.6 236.5,506.7 183.7,506.8 183,503.7 	"/>
	<polygon fill="#405E5E" points="457.1,327.4 457.7,330.6 454.3,356.1 453.6,353 	"/>
	<polygon fill="#405E5E" points="453.6,353 454.3,356.1 419.8,356.2 419.1,353.1 	"/>
	<polygon fill="#405E5E" points="479.8,355.2 480.5,358.2 458.1,358.3 457.5,355.2 	"/>
	<polygon fill="#405E5E" points="541.6,327.1 532.8,392.7 474.8,392.8 479.8,355.2 457.5,355.2 461.3,327.3 	"/>
	<polygon fill="#405E5E" points="541.6,327.1 542.3,330.1 533.5,395.8 532.8,392.7 	"/>
	<polygon fill="#405E5E" points="532.8,392.7 533.5,395.8 475.4,395.9 474.8,392.8 	"/>
	<polygon fill="#405E5E" points="532.2,398 533,401 531.1,415.3 530.4,412.2 	"/>
	<polygon fill="#405E5E" points="530.4,412.2 531.1,415.3 473.4,415.4 472.7,412.4 	"/>
	<polygon fill="#405E5E" points="529.8,415.9 530.5,419 526.9,446.1 526.2,443.1 	"/>
	<polygon fill="#405E5E" points="526.2,443.1 526.9,446.1 469.3,446.3 468.6,443.2 	"/>
	<polygon fill="#405E5E" points="526.1,446.9 526.9,449.9 519.6,504 518.9,501 	"/>
	<polygon fill="#405E5E" points="518.9,501 519.6,504 462,504.2 461.3,501.1 	"/>
	<polygon fill="#405E5E" points="596.2,246.8 596.9,249.8 593.7,273.8 593,270.8 	"/>
	<polygon fill="#405E5E" points="593,270.8 593.7,273.8 559.6,273.9 558.8,270.8 	"/>
	<polygon fill="#405E5E" points="389.6,341.4 390.6,345.7 389.1,356.2 388.2,351.9 	"/>
	<polygon fill="#405E5E" points="388.2,351.9 389.1,356.2 338.8,356.4 337.7,352 	"/>
	<polygon fill="#405E5E" points="390.2,333.3 391.1,337.7 389.7,348.2 388.8,343.8 	"/>
	<polygon fill="#405E5E" points="388.8,343.8 389.7,348.2 339.3,348.4 338.3,344 	"/>
	<polygon fill="#405E5E" points="390.7,325.3 391.7,329.7 390.3,340.2 389.3,335.8 	"/>
	<polygon fill="#405E5E" points="389.3,335.8 390.3,340.2 339.9,340.3 338.8,336 	"/>
	<polygon fill="#405E5E" points="585.6,343.1 586.3,346.2 583.1,370.2 582.4,367.1 	"/>
	<polygon fill="#405E5E" points="582.4,367.1 583.1,370.2 548.9,370.2 548.3,367.2 	"/>
</g>
<g id="Layer_4">
	<polygon fill="#4A8080" points="573.6,85.1 564.6,152.3 228.5,153.1 237.5,85.9 	"/>
	<polygon fill="#4A8080" points="563.6,156.6 558.1,198.6 489.8,198.7 495.4,156.8 	"/>
	<polygon fill="#4A8080" points="557.9,202 548.3,273.9 480.1,274.1 489.6,202.1 	"/>
	<polygon fill="#4A8080" points="316.8,197.5 304.4,290.8 346,290.7 341.6,323.1 203.5,323.4 220.2,197.6 	"/>
	<polygon fill="#4A8080" points="547.5,276.6 541.3,323.2 344.7,323.6 349,291 445.2,290.8 447.1,276.9 	"/>
	<polygon fill="#4A8080" points="476.4,357.2 456.9,503.7 242.4,504.2 261.8,357.7 300.8,357.6 437.8,357.3 434.1,385 297.4,385.3 
		284.4,482.8 421.1,482.4 434.1,385 437.8,357.3 	"/>
	<polygon fill="#4A8080" points="541.6,327.1 532.8,392.7 474.8,392.8 479.8,355.2 457.5,355.2 461.3,327.3 	"/>
</g>
<g id="Layer_6" display="none">
	<g display="inline">
		<polygon fill="#405E5E" points="317.8,327.2 314.3,353.5 255.9,353.6 235.9,503.6 183,503.7 206.5,327.5 		"/>
	</g>
	<g display="inline">
		<polygon fill="#405E5E" points="526.1,446.9 518.9,501 461.3,501.1 468.5,447 		"/>
	</g>
	<polygon display="inline" fill="#405E5E" points="457.1,327.4 453.6,353 419.1,353.1 422.5,327.5 	"/>
	<polygon display="inline" fill="#405E5E" points="532.2,398 530.4,412.2 472.7,412.4 474.6,398.1 	"/>
	<polygon display="inline" fill="#405E5E" points="529.8,415.9 526.2,443.1 468.6,443.2 472.2,416 	"/>
	<polygon display="inline" fill="#405E5E" points="389.6,341.4 388.2,351.9 337.7,352 339.2,341.6 	"/>
	<polygon display="inline" fill="#405E5E" points="390.2,333.3 388.8,343.8 338.3,344 339.7,333.5 	"/>
	<polygon display="inline" fill="#405E5E" points="390.7,325.3 389.3,335.8 338.8,336 340.3,325.5 	"/>
</g>
<g id="Layer_8">
	<polygon fill="#C1DDDD" points="585.6,343.1 582.4,367.1 548.3,367.2 551.5,343.2 	"/>
	<polygon fill="#C1DDDD" points="596.2,246.8 593,270.8 558.8,270.8 562,246.8 	"/>
</g>
<g id="Layer_2">
	<g>
		<g>
			<path fill="#FFFFFF" d="M336.1,113.4c2.7,0,4.4,1.6,4,3.9c-0.3,2.8-3,4.1-5.3,4.1c-2.6,0-4.4-1.5-4-3.9
				C331.1,114.9,333.4,113.4,336.1,113.4z M335,120.3c1.6,0,3-1.3,3.2-3c0.1-1.3-0.5-2.9-2.5-3c-2-0.1-3.1,1.5-3.3,3
				C332.3,119.1,333.3,120.3,335,120.3"/>
		</g>
		<g>
			<path fill="#FFFFFF" d="M330.8,110.6l-5.1,10.6l-1.8,0l-0.9-5.6c-0.3-1.4-0.3-2.4-0.4-3.5c-0.4,1-0.9,2.2-1.5,3.5l-2.6,5.6
				l-1.8,0l-2-10.6l1.8,0l0.9,5.4c0.2,1.3,0.4,2.7,0.5,3.7c0.3-1,1-2.4,1.6-3.7l2.5-5.3l1.8,0l0.9,5.4c0.2,1.3,0.4,2.5,0.4,3.7
				c0.4-1.1,1-2.4,1.6-3.7l2.5-5.3L330.8,110.6z"/>
		</g>
		<g>
			<path fill="#FFFFFF" d="M347.1,113.4c0.2,0,0.3,0,0.5,0.1l-0.1,1.3c-0.2,0-0.3-0.1-0.6-0.1c-1.2,0-2.2,0.7-2.6,1.7
				c-0.1,0.2-0.2,0.4-0.2,0.6l-0.6,4l-1.7,0l0.7-5.2c0.2-0.9,0.2-1.7,0.3-2.4l1.5,0l-0.1,1.5l0.1,0
				C344.7,114,345.9,113.3,347.1,113.4z"/>
		</g>
		<g>
			<polygon fill="#FFFFFF" points="351.4,109.9 349.9,121.1 348.2,121.1 349.7,109.9 			"/>
		</g>
		<g>
			<path fill="#FFFFFF" d="M361.3,119.2c-0.1,0.7-0.2,1.4-0.2,2l-1.6,0l0.1-1.3l0,0c-0.7,0.8-1.9,1.5-3.4,1.5
				c-2.3,0-3.9-1.6-3.5-3.9c0.4-2.5,2.5-4.1,4.8-4.1c1.5,0,2.3,0.6,2.7,1.2l0,0l0.7-4.5l1.7,0L361.3,119.2z M359.7,117.9l0.1-1.3
				c0-0.2,0.1-0.4,0-0.6c-0.1-0.9-1-1.6-2.3-1.6c-1.8,0-3,1.3-3.2,3c-0.2,1.5,0.6,2.8,2.5,2.8c1.2,0,2.3-0.6,2.8-1.7
				C359.7,118.4,359.8,118.2,359.7,117.9"/>
		</g>
		<g>
			<path fill="#FFFFFF" d="M384.7,110.4l-5.2,10.6l-1.8,0l-0.9-5.6c-0.3-1.4-0.3-2.4-0.4-3.5c-0.4,1-0.9,2.2-1.5,3.5l-2.6,5.6
				l-1.8,0l-2-10.6l1.8,0l0.9,5.4c0.2,1.3,0.3,2.7,0.5,3.7c0.4-1,1-2.4,1.6-3.7l2.5-5.3l1.8,0l0.9,5.4c0.2,1.3,0.4,2.5,0.4,3.7
				c0.4-1.1,1-2.4,1.6-3.7l2.5-5.3L384.7,110.4z"/>
		</g>
		<g>
			<polygon fill="#FFFFFF" points="384.9,121.1 385.8,113.5 387.5,113.5 386.6,121 			"/>
		</g>
		<g>
			<path fill="#FFFFFF" d="M386.9,112.1c-0.6,0-1-0.3-0.9-0.8c0.1-0.5,0.6-0.8,1.2-0.9c0.7,0,1,0.3,0.9,0.8
				C388,111.7,387.5,112.2,386.9,112.1z"/>
		</g>
		<g>
			<polygon fill="#FFFFFF" points="392.7,109.9 391.2,121.1 389.5,121.1 391,109.9 			"/>
		</g>
		<g>
			<path fill="#FFFFFF" d="M402.6,119.1c-0.1,0.7-0.2,1.4-0.2,2l-1.6,0l0.1-1.3c-0.7,0.8-1.9,1.5-3.5,1.5c-2.3,0-3.9-1.6-3.5-3.9
				c0.4-2.5,2.5-4.1,4.8-4.1c1.5,0,2.3,0.6,2.8,1.2l0.7-4.5l1.7,0L402.6,119.1z M401,117.8l0.1-1.3c0-0.2,0.1-0.4,0-0.6
				c-0.1-0.9-1-1.6-2.3-1.6c-1.8,0-3,1.3-3.2,3c-0.2,1.5,0.6,2.8,2.5,2.8c1.2,0,2.3-0.6,2.7-1.7C400.9,118.2,400.9,118,401,117.8"/>
		</g>
		<g>
			<polygon fill="#FFFFFF" points="408.4,109.8 406.9,121 405.2,121 406.7,109.8 			"/>
		</g>
		<g>
			<polygon fill="#FFFFFF" points="409.8,121.1 410.9,113.4 412.6,113.4 411.6,121.1 			"/>
		</g>
		<g>
			<path fill="#FFFFFF" d="M411.8,112.1c-0.6,0-1-0.3-0.9-0.8c0.1-0.5,0.6-0.8,1.2-0.9c0.7,0,1,0.3,0.9,0.8
				C413,111.7,412.5,112.1,411.8,112.1z"/>
		</g>
		<g>
			<path fill="#FFFFFF" d="M428.5,116.7c-0.1,0.3-0.1,0.5-0.2,0.6l-6.7,0c-0.2,1.9,1.1,2.6,2.9,2.6c1.2,0,2-0.2,2.7-0.3l0.2,1
				c-0.7,0.2-1.7,0.5-3.3,0.5c-2.9,0-4.5-1.6-4.2-3.9c0.3-2.3,2.3-4.1,5-4.1C428.1,113.1,428.6,115.3,428.5,116.7z M421.8,116.4
				l5.1,0c0.2-0.9-0.1-2.3-2.1-2.3C422.9,114.2,422,115.5,421.8,116.4"/>
		</g>
		<g>
			<path fill="#FFFFFF" d="M419.6,109.6c0.6,0,1.1,0.1,1.4,0.2l-0.3,1c-0.2-0.1-0.6-0.2-1.1-0.1c-1.5,0-1.9,1-2.2,2.2l-0.1,0.4
				l2.3,0l-0.1,1l-2.3,0l-0.8,6.6l-1.7,0l0.8-6.6l-1.3,0l0.1-1l1.3,0l0.1-0.4c0.1-1.1,0.6-2,1.5-2.7
				C417.9,109.8,418.8,109.6,419.6,109.6z"/>
		</g>
		<g>
			<path fill="#FFFFFF" d="M453.9,119c-0.1,0.7-0.1,1.3-0.1,1.8l-1.6,0l-0.1-1l-0.1,0c-0.6,0.6-1.7,1.2-3,1.2
				c-1.9,0-2.8-1.1-2.6-2.2c0.2-1.8,2.3-2.8,6-2.8l0.1,0l0-0.2c0.1-0.6,0-1.8-1.9-1.8c-0.9,0-1.8,0.2-2.6,0.5l-0.2-0.9
				c0.9-0.4,2-0.7,3.3-0.7c2.9,0,3.4,1.6,3.2,3.1L453.9,119z M452.3,118.3l0.1-1.3c-0.1,0-0.2,0-0.3,0c-1.8,0-3.8,0.3-4,1.7
				c-0.2,0.9,0.6,1.4,1.5,1.3c1.2,0,2.1-0.6,2.4-1.2C452.2,118.6,452.3,118.5,452.3,118.3"/>
		</g>
		<g>
			<path fill="#FFFFFF" d="M442.1,110.2c1.5,0,2.7,0.3,3.2,0.5l-0.5,1.1c-0.7-0.3-1.5-0.4-2.9-0.4c-3.2,0-5.5,1.6-5.9,4.3
				c-0.4,2.7,1.4,4.3,4.5,4.3c1.1,0,1.9-0.1,2.3-0.3l0.4-3.1l-2.7,0l0.1-1.1l4.4,0l-0.7,5.1c-0.8,0.2-2.4,0.6-4.2,0.6
				c-2,0-3.6-0.4-4.8-1.4c-1-0.8-1.5-2.3-1.3-3.9C434.7,112.6,437.6,110.2,442.1,110.2z"/>
		</g>
		<g>
			<polygon fill="#FFFFFF" points="459.7,109.7 458.2,120.9 456.5,120.9 457.9,109.7 			"/>
		</g>
		<g>
			<polygon fill="#FFFFFF" points="464.4,109.7 462.9,120.9 461.1,120.9 462.6,109.7 			"/>
		</g>
		<g>
			<path fill="#FFFFFF" d="M474.1,116.6c-0.1,0.3-0.1,0.5-0.2,0.6l-6.7,0c-0.2,1.9,1.1,2.6,2.9,2.6c1.2,0,2-0.2,2.7-0.3l0.2,1
				c-0.7,0.2-1.7,0.5-3.2,0.5c-2.9,0-4.5-1.6-4.2-3.9c0.3-2.3,2.3-4.1,5-4.1C473.7,113.1,474.2,115.2,474.1,116.6z M467.3,116.3
				l5.1,0c0.2-0.9-0.1-2.3-2.1-2.3C468.5,114,467.6,115.4,467.3,116.3"/>
		</g>
		<g>
			<path fill="#FFFFFF" d="M480.9,113.1c0.2,0,0.3,0,0.5,0.1l-0.1,1.3c-0.2,0-0.3-0.1-0.6-0.1c-1.2,0-2.2,0.7-2.6,1.7
				c-0.1,0.2-0.2,0.4-0.2,0.6l-0.6,4l-1.7,0l0.7-5.2c0.2-0.9,0.2-1.7,0.3-2.4l1.5,0l-0.1,1.5l0.1,0
				C478.6,113.7,479.7,113,480.9,113.1z"/>
		</g>
		<g>
			<path fill="#FFFFFF" d="M490.8,113.2l-3.3,5.5c-1.6,2.6-2.6,3.9-3.9,4.8c-1,0.6-1.8,0.8-2.3,0.9l-0.3-1.2
				c0.5-0.1,1.1-0.4,1.6-0.7c0.5-0.3,1.2-0.9,1.7-1.6c0.1-0.1,0.2-0.2,0.2-0.3c0-0.1,0-0.2,0-0.4l-2.6-7.1l1.9,0l1.4,4.5
				c0.1,0.5,0.3,1.1,0.4,1.6c0.3-0.4,0.5-1,0.8-1.5l2.5-4.4L490.8,113.2z"/>
		</g>
	</g>
	<g>
		<g>
			<path fill="#FFFFFF" d="M514.2,163.9c1.3,0,2.3,0.2,2.7,0.5l-0.5,0.9c-0.6-0.2-1.3-0.4-2.4-0.4c-2.7,0-4.7,1.4-5,3.7
				c-0.3,2.3,1.2,3.6,3.9,3.6c1,0,1.6-0.1,2-0.2l0.4-2.7l-2.3,0l0.2-0.9l3.7,0l-0.6,4.3c-0.7,0.1-2,0.5-3.6,0.5
				c-1.7,0-3-0.3-4.1-1.2c-0.8-0.8-1.3-1.9-1.1-3.3C507.8,166,510.4,163.9,514.2,163.9z"/>
		</g>
		<g>
			<path fill="#FFFFFF" d="M525.8,166.6l-2.8,4.7c-1.4,2.2-2.2,3.3-3.3,4.1c-0.8,0.5-1.6,0.7-1.9,0.8l-0.3-1
				c0.4-0.1,0.9-0.2,1.4-0.6c0.4-0.2,1-0.8,1.4-1.3c0.1-0.1,0.2-0.2,0.2-0.3s0-0.2,0-0.3l-2.2-6l1.6,0l1.3,3.8
				c0.1,0.4,0.3,1,0.4,1.3c0.2-0.4,0.5-0.9,0.7-1.3l2.1-3.8L525.8,166.6z"/>
		</g>
		<g>
			<path fill="#FFFFFF" d="M531.3,166.4c2,0,3.3,1.3,3,3.2c-0.3,2.3-2.2,3.5-4.1,3.5c-1.1,0-1.9-0.4-2.4-1l0,0l-0.5,3.5l-1.5,0
				l0.9-7.1c0.2-0.8,0.1-1.5,0.2-2.1l1.3,0l0.1,1.1l0,0C529,166.8,530,166.4,531.3,166.4z M530,172.3c1.6,0,2.6-1,2.8-2.6
				c0.1-1.3-0.5-2.4-2.1-2.4c-1,0-2,0.6-2.4,1.4c-0.1,0.1-0.2,0.3-0.2,0.5l-0.1,1.1c0,0.2,0,0.3,0,0.5
				C528.1,171.7,529,172.2,530,172.3"/>
		</g>
		<g>
			<path fill="#FFFFFF" d="M539.1,166.4c0.8,0,1.5,0.2,1.9,0.4l-0.5,0.8c-0.3-0.2-0.8-0.4-1.6-0.4c-0.9,0-1.4,0.4-1.5,0.9
				c-0.1,0.5,0.3,0.8,1.4,1.1c1.3,0.4,2,1,1.9,1.9c-0.1,1.1-1.4,2-3.3,2c-0.9,0-1.7-0.2-2.2-0.5l0.5-0.9c0.4,0.2,1.1,0.4,1.9,0.5
				c1.1,0,1.7-0.4,1.7-1c0.1-0.6-0.3-0.9-1.4-1.2c-1.4-0.4-2-1.1-1.9-1.8C536.1,167.2,537.3,166.4,539.1,166.4z"/>
		</g>
		<g>
			<path fill="#FFFFFF" d="M549.8,166.5l-2.8,4.7c-1.4,2.2-2.2,3.3-3.3,4.1c-0.8,0.5-1.6,0.7-1.9,0.8l-0.3-1
				c0.4-0.1,0.9-0.2,1.4-0.6c0.5-0.2,1-0.8,1.4-1.3c0.1-0.1,0.2-0.2,0.2-0.3c0-0.1,0-0.2,0-0.3l-2.2-6l1.6,0l1.3,3.8
				c0.1,0.4,0.3,1,0.4,1.3l0,0c0.2-0.4,0.5-0.9,0.7-1.3l2.1-3.8L549.8,166.5z"/>
		</g>
		<g>
			<path fill="#FFFFFF" d="M515.7,180.1l-4.4,9.1l-1.5,0l-0.8-4.7c-0.2-1.2-0.3-2-0.4-3c-0.4,0.9-0.7,1.7-1.3,3l-2.2,4.7l-1.5,0
				l-1.7-9l1.5,0l0.8,4.6c0.2,1.1,0.3,2.3,0.4,3.1c0.4-0.9,0.8-1.9,1.3-3.2l2.2-4.5l1.5,0l0.8,4.6c0.2,1.1,0.3,2.2,0.4,3.1
				c0.4-1,0.9-2,1.3-3.1l2.1-4.5L515.7,180.1z"/>
		</g>
		<g>
			<path fill="#FFFFFF" d="M530.4,182.7l1.3,0c-0.1,0.5-0.2,1-0.3,1.8l-0.5,3.7c-0.2,1.5-0.7,2.4-1.5,3c-0.9,0.5-2.1,0.8-3.1,0.8
				c-1,0-2-0.2-2.6-0.6l0.5-0.9c0.5,0.3,1.3,0.5,2.3,0.5c1.5,0,2.7-0.6,2.9-2.3l0.1-0.7l0,0c-0.6,0.6-1.4,1.1-2.7,1.1
				c-2,0-3.3-1.3-3-3.1c0.3-2.2,2.2-3.4,4.1-3.4c1.4,0,2.1,0.6,2.4,1.2l0,0L530.4,182.7z M529.7,186.3l0.1-1.2c0-0.2,0.1-0.4,0-0.5
				c-0.1-0.7-0.8-1.3-1.9-1.2c-1.4,0-2.6,0.9-2.8,2.5c-0.1,1.3,0.5,2.4,2.1,2.3c0.9,0,1.8-0.5,2.2-1.2
				C529.7,186.8,529.8,186.5,529.7,186.3"/>
		</g>
		<g>
			<path fill="#FFFFFF" d="M521.7,187.5c-0.1,0.6-0.1,1.1-0.1,1.5l-1.3,0l0-0.8l-0.1,0c-0.5,0.5-1.4,1-2.7,0.9c-1.6,0-2.4-1-2.2-1.9
				c0.2-1.5,2.1-2.4,5.1-2.4l0.1,0l0-0.1c0.1-0.5,0-1.5-1.7-1.5c-0.8,0-1.6,0.2-2.2,0.5l-0.2-0.8c0.7-0.3,1.7-0.6,2.8-0.6
				c2.5,0,2.9,1.3,2.7,2.7L521.7,187.5z M520.4,186.9l0.1-1.1c-0.1,0-0.1,0-0.2,0c-1.6,0-3.3,0.3-3.4,1.5c-0.1,0.8,0.5,1.2,1.3,1.1
				c1.1,0,1.8-0.5,2.1-1.1C520.3,187.2,520.4,187,520.4,186.9"/>
		</g>
		<g>
			<path fill="#FFFFFF" d="M537.5,182.5c2.3,0,3.7,1.3,3.5,3.3c-0.4,2.4-2.5,3.4-4.5,3.5c-2.2,0-3.7-1.3-3.4-3.3
				C533.4,183.7,535.3,182.5,537.5,182.5z M536.8,188.3c1.4,0,2.6-1,2.8-2.6c0.1-1.1-0.3-2.5-2.1-2.5c-1.7,0-2.6,1.2-2.9,2.6
				C534.4,187.2,535.3,188.4,536.8,188.3"/>
		</g>
		<g>
			<path fill="#FFFFFF" d="M547.4,182.4c1.1,0,2.8,0.5,2.5,2.8l-0.5,3.8l-1.5,0l0.5-3.7c0.1-1-0.2-1.9-1.6-1.9c-1,0-1.8,0.6-2.1,1.2
				c-0.1,0.1-0.2,0.3-0.2,0.5l-0.5,3.9l-1.5,0l0.6-4.7c0.1-0.7,0.1-1.2,0.2-1.7l1.3,0l0,1.1l0,0C545,183.1,546.1,182.4,547.4,182.4z
				"/>
		</g>
	</g>
	<g>
		<g>
			<path fill="#FFFFFF" d="M503.6,227.3c1.1,0.2,2.4,1,2.1,2.4c-0.2,0.8-0.6,1.4-1.3,1.9c-0.9,0.6-2.4,0.9-4.3,0.9
				c-1.1,0-1.9-0.1-2.4-0.1l1.3-9.4c0.7-0.1,1.8-0.2,2.9-0.2c1.5,0,2.5,0.2,3.2,0.7c0.6,0.4,0.9,1,0.8,1.7
				C505.8,226.1,504.9,226.9,503.6,227.3L503.6,227.3z M500.8,231.5c1.6,0,3.2-0.5,3.3-1.9c0.1-1.3-1.2-1.8-2.8-1.8l-1.3,0l-0.5,3.6
				C499.9,231.5,500.3,231.6,500.8,231.5 M500.6,223.8l-0.4,3.1l1.4,0c1.6,0,2.7-0.6,2.8-1.7c0.1-1.1-0.9-1.6-2.4-1.6
				C501.2,223.7,500.9,223.8,500.6,223.8"/>
		</g>
		<g>
			<path fill="#FFFFFF" d="M512.2,225.4c0.2,0,0.3,0,0.4,0.1l-0.1,1.1c-0.1,0-0.3-0.1-0.5-0.1c-1.1,0-2,0.7-2.3,1.6
				c-0.1,0.2-0.1,0.4-0.2,0.6l-0.5,3.6l-1.5,0l0.6-4.7c0.2-0.8,0.2-1.5,0.2-2.1l1.4,0l-0.1,1.3l0.1,0
				C510.1,225.9,511.2,225.4,512.2,225.4z"/>
		</g>
		<g>
			<polygon fill="#FFFFFF" points="513.2,232.4 514.2,225.5 515.7,225.5 514.7,232.4 			"/>
		</g>
		<g>
			<path fill="#FFFFFF" d="M515,224.4c-0.5,0-0.9-0.4-0.8-0.8c0.1-0.4,0.6-0.8,1.1-0.8c0.6,0,0.9,0.4,0.8,0.8
				C516.1,224,515.7,224.3,515,224.4z"/>
		</g>
		<g>
			<path fill="#FFFFFF" d="M520.5,223.6l-0.3,2l2.2,0l-0.2,0.9l-2.2,0l-0.5,3.7c-0.2,0.8,0.2,1.3,1,1.3c0.4,0,0.7,0,0.9,0l-0.1,0.9
				c-0.3,0.1-0.8,0.1-1.4,0.2c-0.7,0-1.3-0.2-1.6-0.5c-0.4-0.4-0.5-1-0.4-1.8l0.5-3.7l-1.3,0l0.2-0.9l1.3,0l0.2-1.6L520.5,223.6z"/>
		</g>
		<g>
			<polygon fill="#FFFFFF" points="523.3,232.4 524.2,225.6 525.7,225.5 524.8,232.3 			"/>
		</g>
		<g>
			<path fill="#FFFFFF" d="M525,224.3c-0.5,0-0.9-0.4-0.8-0.8c0.1-0.4,0.6-0.8,1.1-0.8c0.6,0,0.9,0.4,0.8,0.8
				C526.1,224.1,525.7,224.4,525,224.3z"/>
		</g>
		<g>
			<path fill="#FFFFFF" d="M530.9,225.4c0.9,0,1.6,0.2,2,0.4l-0.5,0.9c-0.3-0.2-0.9-0.4-1.7-0.4c-0.9,0-1.5,0.4-1.5,1
				c-0.1,0.6,0.4,0.8,1.5,1.1c1.4,0.4,2.2,1.1,2,2.1c-0.1,1.2-1.5,2.1-3.5,2.1c-0.9,0-1.8-0.2-2.3-0.5l0.5-0.9
				c0.4,0.3,1.2,0.5,2,0.5c1.1,0,1.7-0.5,1.8-1c0.1-0.6-0.3-0.9-1.5-1.2c-1.5-0.4-2.2-1.1-2-1.9
				C527.8,226.3,529.1,225.4,530.9,225.4z"/>
		</g>
		<g>
			<path fill="#FFFFFF" d="M537.3,222.2l-0.6,4.3l0,0c0.3-0.3,0.8-0.6,1.3-0.9c0.5-0.2,1.1-0.4,1.7-0.4c1.2,0,2.9,0.5,2.6,3
				l-0.6,4.1l-1.6,0l0.5-3.9c0.1-1.1-0.2-2.1-1.7-2c-1,0-1.9,0.6-2.2,1.2c-0.1,0.2-0.2,0.3-0.2,0.6l-0.6,4.1l-1.6,0l1.4-10.1
				L537.3,222.2z"/>
		</g>
		<g>
			<polygon fill="#FFFFFF" points="505.9,249.5 506.8,242.5 508.4,242.5 507.5,249.4 			"/>
		</g>
		<g>
			<path fill="#FFFFFF" d="M505.7,239.9l-4.7,9.6l-1.6,0l-0.9-5c-0.2-1.2-0.3-2.2-0.4-3.1c-0.4,0.9-0.8,1.8-1.3,3.1l-2.3,4.9l-1.6,0
				l-1.7-9.5l1.6,0l0.8,4.9c0.2,1.2,0.3,2.4,0.5,3.3c0.4-0.9,0.9-2.1,1.4-3.3l2.2-4.8l1.6,0l0.8,4.9c0.2,1.1,0.3,2.3,0.4,3.3
				c0.4-1,0.9-2.2,1.4-3.3l2.2-4.8L505.7,239.9z"/>
		</g>
		<g>
			<path fill="#FFFFFF" d="M507.7,241.4c-0.5,0-0.9-0.4-0.8-0.8c0.1-0.4,0.6-0.8,1.1-0.8c0.6,0,0.9,0.4,0.8,0.8
				C508.8,241,508.3,241.4,507.7,241.4z"/>
		</g>
		<g>
			<polygon fill="#FFFFFF" points="512.9,239.4 511.6,249.4 510.1,249.5 511.4,239.4 			"/>
		</g>
		<g>
			<path fill="#FFFFFF" d="M521.9,247.6c-0.1,0.6-0.1,1.3-0.2,1.8l-1.4,0l0.1-1.2l0,0c-0.6,0.7-1.7,1.4-3.1,1.4
				c-2.1,0-3.5-1.4-3.2-3.5c0.3-2.3,2.2-3.7,4.3-3.7c1.3,0,2.1,0.5,2.5,1.1l0,0l0.6-4.1l1.6,0L521.9,247.6z M520.4,246.5l0.1-1.2
				c0-0.2,0.1-0.4,0-0.5c-0.1-0.8-0.9-1.5-2.1-1.5c-1.6,0-2.7,1.2-3,2.7c-0.2,1.4,0.5,2.6,2.2,2.5c1,0,2.1-0.5,2.5-1.5
				C520.4,246.9,520.4,246.7,520.4,246.5"/>
		</g>
		<g>
			<polygon fill="#FFFFFF" points="527.1,239.3 525.8,249.4 524.2,249.4 525.5,239.3 			"/>
		</g>
		<g>
			<polygon fill="#FFFFFF" points="528.4,249.4 529.3,242.5 530.9,242.5 530,249.4 			"/>
		</g>
		<g>
			<path fill="#FFFFFF" d="M545.2,245.5c0,0.3-0.1,0.4-0.2,0.6l-6,0c-0.2,1.7,1,2.3,2.6,2.4c1.1,0,1.8-0.2,2.4-0.3l0.1,0.9
				c-0.6,0.2-1.6,0.4-2.9,0.5c-2.6,0-4.1-1.4-3.8-3.5c0.3-2.1,2-3.7,4.5-3.8C544.9,242.3,545.3,244.3,545.2,245.5z M539.2,245.3
				l4.6-0.1c0.2-0.8-0.1-2-1.9-2C540.3,243.2,539.4,244.4,539.2,245.3"/>
		</g>
		<g>
			<path fill="#FFFFFF" d="M537.1,239.2c0.6,0,1,0.1,1.3,0.2l-0.3,1c-0.2-0.1-0.5-0.2-1-0.1c-1.3,0-1.8,0.9-1.9,2l-0.1,0.4l2.1,0
				l-0.2,0.9l-2.1,0l-0.8,6l-1.5,0l0.8-6l-1.2,0l0.2-0.9l1.2,0l0.1-0.3c0.1-1,0.5-1.8,1.3-2.4C535.7,239.4,536.4,239.1,537.1,239.2z
				"/>
		</g>
		<g>
			<path fill="#FFFFFF" d="M530.3,241.4c-0.5,0-0.9-0.4-0.8-0.8c0.1-0.4,0.6-0.8,1.1-0.8c0.6,0,0.9,0.4,0.8,0.8
				C531.2,241,530.9,241.3,530.3,241.4z"/>
		</g>
	</g>
	<g>
		<g>
			<path fill="#FFFFFF" d="M411,299.1c1.4,1.1,1.9,2.6,1.7,4.7c-0.3,2.2-1.4,4-3.1,5.2s-4.4,1.9-7.6,1.9c-1.5,0-2.8,0-3.8-0.2
				l1.8-13c1.3-0.2,2.9-0.3,4.6-0.3C407.6,297.4,409.8,298,411,299.1z M402.7,309.6c4.6-0.1,7.3-2.1,7.8-5.6
				c0.4-3.1-1.5-5.1-6.1-5.1c-1.1,0-2,0.1-2.5,0.1l-1.4,10.5C401.1,309.5,401.9,309.6,402.7,309.6"/>
		</g>
		<g>
			<polygon fill="#FFFFFF" points="414.6,310.8 415.9,301.3 418.1,301.3 416.8,310.8 			"/>
		</g>
		<g>
			<path fill="#FFFFFF" d="M417.1,299.6c-0.8,0-1.2-0.4-1.2-1c0.1-0.6,0.7-1,1.4-1.1c0.8,0,1.2,0.4,1.2,1
				C418.6,299.1,418,299.7,417.1,299.6z"/>
		</g>
		<g>
			<path fill="#FFFFFF" d="M427.6,301.1c1.6,0,4.1,0.8,3.6,4l-0.8,5.7l-2.2,0l0.7-5.4c0.2-1.5-0.4-2.8-2.4-2.8
				c-1.4,0-2.7,0.8-3.1,1.8c-0.1,0.2-0.2,0.5-0.3,0.8l-0.8,5.8l-2.2,0l0.9-7c0.1-1,0.2-1.8,0.3-2.6l1.9,0l-0.1,1.6l0.1,0
				C424.1,301.9,425.6,301.1,427.6,301.1z"/>
		</g>
		<g>
			<path fill="#FFFFFF" d="M440.4,301c3.4,0,5.5,2,5.1,4.9c-0.5,3.5-3.7,5.1-6.6,5.1c-3.2,0-5.4-1.9-5.1-4.9
				C434.2,302.9,437.1,301,440.4,301z M439.1,309.6c2.1,0,3.8-1.6,4.1-3.7c0.2-1.6-0.5-3.7-3.1-3.6s-3.9,1.9-4.2,3.7
				C435.7,308.1,437,309.7,439.1,309.6"/>
		</g>
		<g>
			<path fill="#FFFFFF" d="M465.9,308.4c-0.2,0.8-0.2,1.6-0.1,2.3l-2,0l-0.1-1.2l-0.1,0c-0.8,0.7-2.1,1.4-3.8,1.4
				c-2.4,0-3.5-1.3-3.3-2.7c0.3-2.3,3-3.6,7.5-3.5l0.1,0l0-0.2c0.1-0.8,0.1-2.2-2.4-2.2c-1.1,0-2.3,0.3-3.2,0.7l-0.4-1.2
				c1.1-0.6,2.6-0.8,4.1-0.8c3.6,0,4.3,2,4,3.9L465.9,308.4z M464,307.5l0.2-1.6c-0.1,0-0.2,0-0.4,0c-2.3,0-4.7,0.4-5,2.2
				c-0.1,1.1,0.7,1.7,1.8,1.7c1.5,0,2.7-0.7,3.1-1.6C463.9,307.9,464,307.7,464,307.5"/>
		</g>
		<g>
			<path fill="#FFFFFF" d="M452.4,301c1.2,0,2.2,0.3,2.8,0.5l-0.7,1.2c-0.4-0.3-1.2-0.5-2.3-0.6c-1.3,0-2.1,0.6-2.1,1.3
				c-0.1,0.8,0.6,1.2,2.1,1.6c1.9,0.6,3,1.4,2.8,2.9c-0.2,1.7-2,2.8-4.9,2.9c-1.3,0-2.5-0.3-3.2-0.6l0.7-1.3
				c0.6,0.4,1.6,0.7,2.7,0.7c1.6,0,2.4-0.6,2.5-1.4c0.2-0.8-0.5-1.3-2-1.8c-2-0.6-3-1.5-2.7-2.7C448.2,302.2,449.9,300.9,452.4,301z
				"/>
		</g>
		<g>
			<path fill="#FFFFFF" d="M480.4,301.2l-0.9,7c-0.1,1-0.2,1.8-0.3,2.6l-1.9,0l0.1-1.6l-0.1,0c-0.7,0.7-2,1.8-4.2,1.8
				c-1.9,0-4-0.8-3.5-4.2l0.7-5.5l2.2,0l-0.7,5.2c-0.2,1.8,0.3,3,2.3,3c1.4,0,2.6-0.8,3-1.6c0.2-0.2,0.3-0.6,0.4-0.9l0.8-5.9
				L480.4,301.2z"/>
		</g>
		<g>
			<path fill="#FFFFFF" d="M489.3,300.9c0.2,0,0.4,0,0.6,0.1l-0.2,1.6c-0.2-0.1-0.4-0.1-0.7-0.1c-1.5,0-2.8,1-3.2,2.3
				c-0.1,0.2-0.2,0.5-0.2,0.8l-0.7,5l-2.1,0l0.8-6.6c0.1-1.1,0.3-2.1,0.3-3l1.9,0l-0.2,1.9l0.1,0
				C486.4,301.7,487.8,300.9,489.3,300.9z"/>
		</g>
		<g>
			<path fill="#FFFFFF" d="M495.7,300.8c1.2,0,2.2,0.3,2.8,0.5l-0.7,1.2c-0.4-0.3-1.2-0.5-2.3-0.6c-1.3,0-2.1,0.6-2.1,1.3
				c-0.1,0.8,0.6,1.2,2.1,1.6c1.9,0.6,2.9,1.4,2.8,2.9c-0.2,1.7-2,2.8-4.9,2.9c-1.3,0-2.5-0.3-3.2-0.6l0.7-1.3
				c0.6,0.4,1.6,0.7,2.7,0.7c1.6,0,2.4-0.6,2.5-1.4c0.2-0.8-0.5-1.3-2-1.8c-2-0.6-2.9-1.5-2.7-2.7
				C491.4,302.2,493.2,300.9,495.7,300.8z"/>
		</g>
	</g>
	<g>
		<g enable-background="new    ">
			<g>
				<path fill="#FFFFFF" d="M237.1,234.6c1.6,0,2.8,0.2,3.4,0.5l-0.6,1.1c-0.7-0.3-1.6-0.5-3-0.4c-3.4,0-5.8,1.7-6.2,4.5
					c-0.3,2.8,1.5,4.5,4.8,4.4c1.2,0,2-0.1,2.5-0.3l0.4-3.3l-2.8,0.1l0.1-1.1l4.6-0.1l-0.7,5.3c-0.8,0.2-2.5,0.6-4.4,0.6
					c-2.1,0-3.8-0.4-5-1.4c-1.1-0.9-1.6-2.4-1.4-4.1C229.3,237,232.4,234.6,237.1,234.6z"/>
			</g>
			<g>
				<path fill="#FFFFFF" d="M250.8,241.4c-0.1,0.3-0.1,0.5-0.2,0.7l-7,0c-0.2,1.9,1.3,2.7,3.1,2.7c1.3,0,2.1-0.2,2.8-0.5l0.2,1.1
					c-0.7,0.2-1.8,0.5-3.4,0.5c-3.1,0-4.7-1.6-4.4-4.1c0.3-2.4,2.4-4.3,5.3-4.3C250.5,237.6,251.1,239.9,250.8,241.4z M243.9,241
					l5.3,0c0.2-0.9-0.1-2.4-2.2-2.4C245.1,238.6,244.2,240,243.9,241"/>
			</g>
		</g>
		<g>
			<path fill="#FFFFFF" d="M257.8,237.6c2.9,0,4.6,1.7,4.2,4.1c-0.4,2.9-3.2,4.3-5.6,4.3c-2.7,0-4.6-1.6-4.2-4.1
				C252.7,239.2,255.1,237.6,257.8,237.6z M256.8,244.9c1.7,0,3.2-1.3,3.4-3.1c0.2-1.3-0.5-3.1-2.6-3.1c-2.2,0-3.3,1.6-3.5,3.1
				C254,243.6,255,244.9,256.8,244.9"/>
		</g>
		<g>
			<polygon fill="#FFFFFF" points="267.3,234 265.7,245.8 263.9,245.8 265.5,234 			"/>
		</g>
		<g enable-background="new    ">
			<g>
				<path fill="#FFFFFF" d="M274.1,237.6c2.9,0,4.6,1.7,4.2,4.1c-0.4,2.9-3.2,4.3-5.6,4.3c-2.7,0-4.6-1.6-4.2-4.1
					C268.9,239.1,271.4,237.6,274.1,237.6z M273.1,244.8c1.7,0,3.2-1.3,3.4-3.1c0.2-1.3-0.5-3.1-2.6-3.1c-2.1,0-3.3,1.6-3.5,3.1
					C270.2,243.6,271.3,244.8,273.1,244.8"/>
			</g>
			<g>
				<path fill="#FFFFFF" d="M288.2,237.7l1.6,0c-0.1,0.6-0.2,1.2-0.4,2.2l-0.6,4.6c-0.2,1.8-0.8,3-1.9,3.6c-1.1,0.8-2.6,0.9-3.8,1
					c-1.2,0-2.5-0.3-3.2-0.6l0.6-1.1c0.6,0.4,1.6,0.6,2.8,0.6c1.9,0,3.4-0.8,3.6-2.8l0.2-0.9c-0.7,0.7-1.8,1.3-3.4,1.4
					c-2.5,0-4-1.7-3.7-3.9c0.4-2.7,2.8-4.3,5.1-4.3c1.7,0,2.6,0.8,3,1.3L288.2,237.7z M287.3,242.3l0.2-1.4c0-0.2,0.1-0.5,0-0.7
					c-0.2-0.9-1-1.5-2.4-1.6c-1.7,0-3.1,1.2-3.3,3c-0.2,1.6,0.7,2.9,2.6,2.9c1.1,0,2.2-0.5,2.7-1.5
					C287.2,242.8,287.3,242.5,287.3,242.3"/>
			</g>
		</g>
		<g>
			<path fill="#FFFFFF" d="M300.8,237.7l-3.5,5.7c-1.6,2.8-2.8,4.2-4.1,5c-1,0.7-1.9,0.9-2.4,0.9l-0.3-1.2c0.5-0.1,1.1-0.4,1.7-0.7
				c0.6-0.3,1.3-0.9,1.7-1.6c0.1-0.1,0.2-0.3,0.2-0.3c0-0.1,0-0.2-0.1-0.4l-2.7-7.4l2,0l1.6,4.7c0.1,0.5,0.4,1.2,0.4,1.7l0,0
				c0.3-0.5,0.5-1.1,0.9-1.7l2.6-4.8L300.8,237.7z"/>
		</g>
		<g>
			<path fill="#FFFFFF" d="M265.2,263.7c0.6,0.7,1.3,1.2,2,2l-2.2,0c-0.3-0.3-0.6-0.7-1.2-1.1c-1.4,0.9-2.7,1.3-4.2,1.3
				c-2.7,0-4.1-1.5-3.9-3.1c0.2-1.5,1.5-2.6,3.1-3.3l0,0c-0.6-0.8-1-1.5-0.8-2.4c0.2-1.3,1.5-2.8,3.9-2.7c1.7,0,3,0.9,2.7,2.4
				c-0.1,1.2-1.1,2.1-3.4,3l0,0c1.1,1,2.2,2.3,3,3.1c0.8-0.7,1.3-1.9,1.8-3.3l1.6,0C267.1,261.3,266.3,262.7,265.2,263.7z
				 M260,264.8c1.2,0,2.3-0.4,3-1.1c-0.7-0.8-2.1-2.1-3.5-3.5c-0.8,0.3-1.9,1.1-2.1,2.2C257.4,263.8,258.4,264.8,260,264.8
				 M261.7,255.4c-1.2,0-1.9,0.8-2,1.6c-0.1,0.8,0.3,1.4,0.8,2c1.5-0.7,2.4-1.2,2.6-2.1C263.3,256.1,262.8,255.3,261.7,255.4"/>
		</g>
		<g>
			<path fill="#FFFFFF" d="M237.8,274.4l-0.6,11.1l-1.8,0l0.3-4.9c0.1-1.5,0.2-3.4,0.4-4.8l-0.1,0c-0.6,1.3-1.5,2.7-2.3,4.2
				l-3.2,5.4l-1.4,0l-1.6-5.3c-0.5-1.6-0.8-3.1-1-4.3c-0.2,1.4-0.6,3.2-0.9,5l-1,4.8l-1.7,0l2.5-11.2l2.3,0l1.7,5.4
				c0.4,1.4,0.7,2.6,0.9,3.8l0.1,0c0.5-1.1,1.2-2.4,2-3.7l3.2-5.4L237.8,274.4z"/>
		</g>
		<g>
			<polygon fill="#FFFFFF" points="239.9,285.6 241,277.5 242.8,277.5 241.7,285.6 			"/>
		</g>
		<g>
			<path fill="#FFFFFF" d="M242,276.2c-0.6,0-1-0.4-0.9-0.8c0.1-0.5,0.5-0.9,1.3-0.9c0.7,0,1,0.4,1,0.9
				C243.3,275.8,242.7,276.2,242,276.2z"/>
		</g>
		<g>
			<path fill="#FFFFFF" d="M250.8,277.4c1.4,0,3.4,0.6,3.1,3.4l-0.6,4.7l-1.8,0l0.6-4.6c0.1-1.3-0.3-2.4-2-2.4
				c-1.2,0-2.3,0.7-2.6,1.4c-0.1,0.2-0.2,0.4-0.3,0.7l-0.6,4.8l-1.8,0l0.8-5.9c0.2-0.8,0.2-1.5,0.2-2.1l1.6,0l0,1.3l0,0
				C247.9,278,249.2,277.4,250.8,277.4z"/>
		</g>
		<g>
			<path fill="#FFFFFF" d="M264.9,281.1c-0.1,0.3-0.1,0.5-0.2,0.7l-7,0c-0.2,2,1.3,2.7,3.1,2.7c1.3,0,2.1-0.2,2.8-0.5l0.2,1.1
				c-0.7,0.2-1.8,0.5-3.4,0.5c-3.1,0-4.7-1.6-4.4-4.1c0.4-2.4,2.4-4.3,5.3-4.3C264.5,277.3,265.2,279.6,264.9,281.1z M257.9,280.7
				l5.3,0c0.2-0.9-0.1-2.4-2.2-2.4C259.2,278.3,258.1,279.7,257.9,280.7"/>
		</g>
		<g>
			<path fill="#FFFFFF" d="M280.7,283.6c-0.1,0.7-0.1,1.4-0.1,1.9l-1.6,0l-0.1-1l-0.1,0c-0.7,0.6-1.8,1.2-3.2,1.2
				c-2,0-2.9-1.1-2.7-2.3c0.3-1.9,2.5-2.9,6.3-3l0.1,0l0-0.2c0.1-0.7,0-1.8-2-1.9c-0.9,0-1.9,0.2-2.7,0.6l-0.3-1
				c0.9-0.4,2.2-0.7,3.4-0.7c3.1,0,3.6,1.7,3.4,3.2L280.7,283.6z M278.9,282.8l0.2-1.4c-0.1,0-0.2,0-0.3,0c-1.9,0-4,0.3-4.2,1.8
				c-0.2,0.9,0.6,1.4,1.6,1.4c1.3,0,2.2-0.6,2.6-1.3C278.9,283.1,279,283,278.9,282.8"/>
		</g>
		<g>
			<path fill="#FFFFFF" d="M272.1,277.3c0.2,0,0.4,0,0.5,0.1l-0.2,1.4c-0.2,0-0.4-0.1-0.6-0.1c-1.3,0-2.3,0.8-2.7,1.9
				c-0.1,0.2-0.2,0.4-0.2,0.7l-0.6,4.2l-1.8,0l0.7-5.5c0.2-0.9,0.2-1.7,0.3-2.5l1.6,0l-0.1,1.6l0.1,0
				C269.7,278,270.9,277.3,272.1,277.3z"/>
		</g>
		<g>
			<polygon fill="#FFFFFF" points="286.8,273.7 285.1,285.4 283.3,285.4 284.9,273.7 			"/>
		</g>
		<g>
			<path fill="#FFFFFF" d="M292.4,277.2c1,0,1.9,0.2,2.4,0.5l-0.5,1c-0.4-0.2-1-0.4-2-0.5c-1.1,0-1.8,0.5-1.8,1.1
				c-0.1,0.7,0.5,1,1.7,1.3c1.6,0.5,2.5,1.3,2.3,2.4c-0.2,1.4-1.7,2.4-4.1,2.4c-1.1,0-2.1-0.2-2.7-0.6l0.6-1.1
				c0.5,0.3,1.4,0.6,2.3,0.6c1.3,0,2-0.5,2.1-1.2c0.1-0.7-0.4-1.1-1.7-1.5c-1.7-0.5-2.5-1.3-2.3-2.3
				C288.7,278.3,290.2,277.2,292.4,277.2z"/>
		</g>
	</g>
	<g>
		<g>
			<polygon fill="#FFFFFF" points="498.8,340.1 498.7,341 495.4,341 494.3,348.9 492.9,348.9 494,341.1 490.7,341.1 490.7,340.1 			
				"/>
		</g>
		<g>
			<path fill="#FFFFFF" d="M505.7,345.3c0,0.2-0.1,0.4-0.2,0.5l-5.5,0c-0.2,1.5,1,2.1,2.4,2.2c1,0,1.7-0.2,2.2-0.3l0.1,0.8
				c-0.5,0.1-1.4,0.4-2.7,0.3c-2.4,0-3.7-1.3-3.5-3.1c0.3-1.9,1.8-3.4,4.1-3.4C505.3,342.4,505.8,344.1,505.7,345.3z M500.2,345.1
				l4.2,0c0.2-0.7-0.1-1.9-1.7-1.8C501.2,343.2,500.3,344.2,500.2,345.1"/>
		</g>
		<g>
			<path fill="#FFFFFF" d="M516.5,342.4c1,0,2.5,0.6,2.2,2.7l-0.5,3.7l-1.4,0l0.5-3.5c0.1-1.2-0.3-1.9-1.4-1.9c-0.8,0-1.5,0.5-1.8,1
				c-0.1,0.2-0.2,0.4-0.2,0.6l-0.5,3.9l-1.4,0l0.5-3.7c0.1-1-0.3-1.7-1.4-1.7c-0.9,0-1.6,0.6-1.9,1.1c-0.1,0.2-0.2,0.4-0.2,0.5
				l-0.5,3.8l-1.4,0l0.7-4.5c0.1-0.6,0.1-1.2,0.2-1.7l1.2,0l0,1l0.1,0c0.5-0.6,1.3-1.2,2.6-1.1c1.1,0,1.8,0.5,2.1,1.3l0,0
				c0.3-0.3,0.7-0.6,1-0.9C515.2,342.5,515.8,342.4,516.5,342.4z"/>
		</g>
		<g>
			<path fill="#FFFFFF" d="M525.5,342.4c1.9,0,3.2,1.3,2.9,3.1c-0.3,2.2-2.2,3.4-4,3.4c-1,0-1.9-0.4-2.3-1l0,0l-0.4,3.4l-1.4,0
				l0.9-6.9c0.2-0.8,0.1-1.4,0.2-2l1.3,0l0,1.1C523.2,342.8,524.3,342.3,525.5,342.4z M524.3,348c1.5,0,2.5-1,2.7-2.4
				c0.1-1.2-0.5-2.4-2-2.3c-1,0-2,0.6-2.3,1.4c-0.1,0.1-0.2,0.3-0.2,0.5l-0.1,1.1c0,0.2,0,0.3,0,0.5
				C522.4,347.4,523.3,348,524.3,348"/>
		</g>
		<g>
			<path fill="#FFFFFF" d="M496.5,358.2l-3.1,3.1l2.4,3.3l-1.6,0l-1-1.4c-0.2-0.4-0.4-0.7-0.7-1.1l0,0c-0.3,0.4-0.7,0.7-0.9,1.1
				l-1.3,1.4l-1.6,0l3.2-3.2l-2.3-3.1l1.6,0l1,1.3c0.2,0.4,0.4,0.7,0.7,1.1l0,0c0.3-0.4,0.7-0.7,0.9-1.1l1.3-1.4L496.5,358.2z"/>
		</g>
		<g>
			<polygon fill="#FFFFFF" points="488.7,355.7 488.6,356.6 484.1,356.6 483.7,359.5 488,359.4 487.9,360.3 483.6,360.4 
				483.2,363.5 488,363.5 487.8,364.5 481.6,364.5 482.8,355.7 			"/>
		</g>
		<g>
			<path fill="#FFFFFF" d="M499.7,355.2l-0.5,3.9l0,0c0.3-0.3,0.7-0.6,1.2-0.8c0.5-0.2,1-0.4,1.5-0.3c1.1,0,2.6,0.6,2.3,2.7
				l-0.5,3.7l-1.4,0l0.5-3.6c0.1-1-0.2-1.9-1.6-1.9c-0.9,0-1.7,0.5-2,1.1c-0.1,0.2-0.2,0.3-0.2,0.5l-0.5,3.8l-1.4,0l1.2-9.2
				L499.7,355.2z"/>
		</g>
		<g>
			<polygon fill="#FFFFFF" points="506.2,364.5 507,358.1 508.4,358.1 507.6,364.4 			"/>
		</g>
		<g>
			<path fill="#FFFFFF" d="M507.8,357.1c-0.5,0-0.8-0.4-0.7-0.7c0.1-0.4,0.5-0.7,1-0.8c0.5,0,0.8,0.4,0.7,0.8
				C508.7,356.7,508.4,357,507.8,357.1z"/>
		</g>
		<g>
			<path fill="#FFFFFF" d="M514.9,358c1.9,0,3.2,1.3,2.9,3.2c-0.3,2.2-2.2,3.3-4,3.4c-1.1,0-2-0.4-2.5-1.2l0,0l-0.2,1l-1.2,0
				c0.1-0.4,0.2-1.1,0.3-1.6l1-7.6l1.4,0l-0.5,3.9l0,0C512.6,358.4,513.6,357.9,514.9,358z M513.6,363.6c1.5,0,2.6-0.9,2.7-2.4
				c0.1-1.2-0.5-2.4-2-2.3c-1,0-2,0.5-2.3,1.4c-0.1,0.1-0.1,0.3-0.2,0.5l-0.1,1.1c0,0.1,0,0.3,0,0.4
				C511.9,363,512.6,363.6,513.6,363.6"/>
		</g>
		<g>
			<polygon fill="#FFFFFF" points="519.2,364.3 520,358.1 521.4,358.1 520.6,364.4 			"/>
		</g>
		<g>
			<path fill="#FFFFFF" d="M525.7,356.3l-0.2,1.8l2,0l-0.2,0.9l-2,0l-0.4,3.4c-0.1,0.8,0.1,1.2,0.9,1.3c0.4,0,0.7,0,0.8,0l-0.1,0.9
				c-0.3,0.1-0.7,0.1-1.3,0.2c-0.7,0-1.2-0.1-1.4-0.5c-0.3-0.4-0.4-0.9-0.3-1.7l0.4-3.4l-1.2,0l0.2-0.9l1.2,0l0.2-1.5L525.7,356.3z"
				/>
		</g>
		<g>
			<path fill="#FFFFFF" d="M520.9,357c-0.5,0-0.8-0.4-0.7-0.7c0.1-0.4,0.5-0.7,1-0.8c0.5,0,0.8,0.4,0.7,0.8
				C521.9,356.7,521.4,357,520.9,357z"/>
		</g>
		<g>
			<path fill="#FFFFFF" d="M531.6,357.9c0.8,0,1.5,0.2,1.9,0.4l-0.5,0.8c-0.3-0.2-0.8-0.4-1.5-0.3c-0.8,0-1.4,0.4-1.5,0.9
				c-0.1,0.5,0.3,0.8,1.4,1c1.3,0.4,2,1,1.8,1.9c-0.1,1.1-1.3,1.9-3.2,1.9c-0.9,0-1.6-0.2-2.1-0.4l0.5-0.8c0.4,0.2,1.1,0.4,1.8,0.5
				c1,0,1.6-0.4,1.7-0.9c0.1-0.5-0.2-0.9-1.3-1.1c-1.3-0.4-2-1-1.8-1.8C528.8,358.8,529.9,357.9,531.6,357.9z"/>
		</g>
	</g>
	<g>
		<g>
			<path fill="#FFFFFF" d="M322.9,366.7l-0.6,10.6l-1.7,0l0.2-4.6c0.1-1.5,0.2-3.3,0.4-4.6l-0.1,0c-0.6,1.2-1.4,2.6-2.2,4l-3,5.2
				l-1.3,0l-1.5-5c-0.4-1.5-0.8-2.9-1-4.1l0,0c-0.2,1.3-0.5,3.1-0.8,4.7l-1,4.6l-1.6,0l2.3-10.6l2.2,0l1.6,5.1
				c0.4,1.3,0.6,2.5,0.9,3.6l0.1,0c0.4-1,1.1-2.3,1.9-3.6l3-5.2L322.9,366.7z"/>
		</g>
		<g>
			<path fill="#FFFFFF" d="M331.8,375.5c-0.1,0.7-0.1,1.3-0.1,1.8l-1.6,0l-0.1-1l-0.1,0c-0.6,0.6-1.7,1.1-3,1.2
				c-1.9,0-2.8-1.1-2.6-2.2c0.2-1.8,2.3-2.8,6.1-2.8l0.1,0l0-0.2c0.1-0.6,0-1.8-1.9-1.8c-0.9,0-1.9,0.2-2.6,0.5l-0.2-0.9
				c0.9-0.4,2.1-0.7,3.3-0.7c2.9,0,3.4,1.6,3.2,3.1L331.8,375.5z M330.2,374.7l0.1-1.3c-0.1,0-0.2,0-0.3,0c-1.8,0-3.8,0.3-4,1.7
				c-0.2,0.9,0.6,1.3,1.5,1.3c1.2,0,2.1-0.6,2.4-1.2C330.2,375,330.2,374.9,330.2,374.7"/>
		</g>
		<g>
			<path fill="#FFFFFF" d="M340.4,369.4c2.3,0,3.8,1.6,3.5,3.9c-0.4,2.7-2.7,4.2-4.9,4.1c-1.3,0-2.3-0.5-2.8-1.2l0,0l-0.6,4.1
				l-1.7,0l1.1-8.3c0.1-1,0.2-1.8,0.3-2.5l1.6,0l-0.1,1.3C337.6,370,338.8,369.5,340.4,369.4z M338.9,376.3c1.8,0,3-1.2,3.2-3
				c0.2-1.5-0.7-2.9-2.5-2.9c-1.2,0-2.4,0.6-2.8,1.8c-0.1,0.2-0.2,0.4-0.2,0.6l-0.1,1.3c0,0.2,0,0.4,0,0.6
				C336.6,375.7,337.7,376.4,338.9,376.3"/>
		</g>
		<g>
			<path fill="#FFFFFF" d="M349.5,369.4c1,0,1.8,0.2,2.3,0.5l-0.5,1c-0.3-0.2-1-0.4-1.9-0.4c-1,0-1.7,0.5-1.7,1.1
				c-0.1,0.6,0.4,0.9,1.7,1.3c1.6,0.5,2.4,1.2,2.2,2.3c-0.2,1.3-1.6,2.3-3.9,2.3c-1,0-2-0.2-2.6-0.6l0.5-1c0.5,0.3,1.3,0.5,2.2,0.6
				c1.3,0,1.9-0.5,2-1.1c0.1-0.7-0.4-1-1.6-1.4c-1.6-0.5-2.4-1.3-2.2-2.2C346,370.4,347.4,369.4,349.5,369.4z"/>
		</g>
		<g>
			<path fill="#FFFFFF" d="M373.4,365.8c0.6,0,1.1,0.1,1.4,0.2l-0.3,1c-0.2-0.1-0.6-0.2-1.1-0.1c-1.5,0-1.9,1-2.2,2.2l-0.1,0.4
				l2.3,0l-0.1,1l-2.3,0l-0.8,6.6l-1.7,0l0.8-6.6l-1.3,0l0.1-1l1.3,0l0.1-0.4c0.1-1.1,0.6-2,1.5-2.7
				C371.7,366,372.6,365.9,373.4,365.8z"/>
		</g>
		<g>
			<path fill="#FFFFFF" d="M362.6,369.4c2.7,0,4.4,1.6,4,3.9c-0.3,2.8-3,4.1-5.3,4.1c-2.6,0-4.4-1.5-4-3.9
				C357.7,370.9,359.9,369.5,362.6,369.4z M361.6,376.4c1.7,0,3-1.3,3.3-3c0.1-1.3-0.5-2.9-2.5-3c-2,0-3.1,1.5-3.3,3
				C358.9,375.1,359.9,376.4,361.6,376.4"/>
		</g>
		<g>
			<path fill="#FFFFFF" d="M384.8,371.5c1.2,0.2,2.6,1.1,2.3,2.7c-0.2,0.9-0.7,1.6-1.4,2.2c-1,0.7-2.5,1-4.8,1
				c-1.2,0-2.1-0.1-2.6-0.2l1.4-10.5c0.8-0.1,2-0.2,3.2-0.3c1.7,0,2.8,0.2,3.5,0.8c0.6,0.4,1,1,0.8,1.9
				C387.1,370.2,386.1,371,384.8,371.5L384.8,371.5z M381.6,376.2c1.8,0,3.5-0.5,3.7-2.1c0.2-1.4-1.3-2-3.1-2l-1.4,0l-0.6,4
				C380.5,376.1,381,376.2,381.6,376.2 M381.3,367.6l-0.4,3.4l1.5,0c1.8,0,3-0.8,3.1-1.8c0.1-1.2-1-1.7-2.7-1.8
				C382,367.5,381.5,367.6,381.3,367.6"/>
		</g>
		<g>
			<path fill="#FFFFFF" d="M394.2,369.4c0.2,0,0.3,0,0.5,0.1l-0.1,1.3c-0.2,0-0.3-0.1-0.6-0.1c-1.2,0-2.2,0.7-2.6,1.7
				c-0.1,0.2-0.2,0.4-0.2,0.6l-0.6,4l-1.7,0l0.7-5.2c0.2-0.9,0.2-1.7,0.3-2.4l1.5,0l-0.1,1.5l0.1,0
				C391.9,370,393.1,369.3,394.2,369.4z"/>
		</g>
		<g>
			<polygon fill="#FFFFFF" points="395.4,377.1 396.4,369.5 398.2,369.5 397.1,377.1 			"/>
		</g>
		<g>
			<path fill="#FFFFFF" d="M397.4,368.2c-0.6,0-1-0.3-0.9-0.8c0.1-0.5,0.6-0.8,1.2-0.9c0.7,0,1,0.3,0.9,0.8
				C398.6,367.8,398.1,368.2,397.4,368.2z"/>
		</g>
		<g>
			<path fill="#FFFFFF" d="M403.9,369.4c1,0,1.8,0.2,2.3,0.5l-0.5,1c-0.3-0.2-1-0.4-1.9-0.4c-1,0-1.7,0.5-1.7,1.1
				c-0.1,0.6,0.4,0.9,1.7,1.3c1.6,0.5,2.4,1.2,2.2,2.3c-0.2,1.3-1.6,2.3-3.9,2.3c-1,0-2-0.2-2.6-0.6l0.5-1c0.5,0.3,1.3,0.5,2.2,0.6
				c1.3,0,1.9-0.5,2-1.1c0.1-0.7-0.4-1-1.6-1.4c-1.6-0.5-2.4-1.3-2.2-2.2C400.5,370.3,401.9,369.4,403.9,369.4z"/>
		</g>
		<g>
			<path fill="#FFFFFF" d="M411.2,367.3l-0.3,2.2l2.5,0l-0.1,1l-2.5,0l-0.6,4.1c-0.2,0.9,0.2,1.5,1.1,1.4c0.5,0,0.8,0,1-0.1l0,1
				c-0.4,0.1-0.9,0.1-1.6,0.2c-0.8,0-1.4-0.2-1.8-0.6s-0.6-1.1-0.4-2l0.6-4.1l-1.5,0l0.1-1l1.5,0l0.2-1.8L411.2,367.3z"/>
		</g>
		<g>
			<path fill="#FFFFFF" d="M419.4,369.3c2.7,0,4.4,1.6,4,3.9c-0.3,2.8-3,4.1-5.3,4.1c-2.6,0-4.4-1.5-4-3.9
				C414.5,370.8,416.8,369.2,419.4,369.3z M418.4,376.2c1.7,0,3-1.3,3.3-3c0.1-1.3-0.5-2.9-2.5-3c-2,0-3.1,1.5-3.3,3
				C415.7,374.9,416.7,376.3,418.4,376.2"/>
		</g>
		<g>
			<polygon fill="#FFFFFF" points="428.3,365.9 426.8,377.1 425.1,377.1 426.6,365.9 			"/>
		</g>
	</g>
	<g>
		<g>
			<path fill="#405E5E" d="M488.4,426.5c1.6,0,2.7,1,2.4,2.4c-0.2,1.7-1.8,2.4-3.2,2.5c-1.5,0-2.7-0.9-2.4-2.4
				C485.5,427.4,486.8,426.5,488.4,426.5z M487.8,430.7c1,0,1.9-0.7,2-1.8c0.1-0.8-0.3-1.8-1.5-1.7c-1.2,0-1.9,0.9-2,1.8
				C486.2,429.9,486.8,430.7,487.8,430.7"/>
		</g>
		<g>
			<path fill="#405E5E" d="M485.3,424.8l-3.1,6.4l-1.1,0l-0.6-3.3c-0.1-0.8-0.2-1.4-0.2-2.1c-0.3,0.6-0.5,1.2-0.9,2.1l-1.6,3.3
				l-1.1,0l-1.1-6.3l1.1,0l0.5,3.2c0.1,0.8,0.2,1.6,0.3,2.2c0.3-0.6,0.6-1.4,1-2.3l1.5-3.2l1.1,0l0.6,3.3c0.1,0.8,0.2,1.5,0.2,2.2
				c0.3-0.7,0.6-1.4,1-2.3l1.5-3.2L485.3,424.8z"/>
		</g>
		<g>
			<path fill="#405E5E" d="M495,426.5c0.1,0,0.2,0,0.3,0l-0.1,0.8c-0.1,0-0.2,0-0.3,0c-0.7,0-1.3,0.5-1.5,1.1c0,0.1-0.1,0.2-0.1,0.4
				l-0.4,2.4l-1,0l0.4-3.1c0.1-0.5,0.1-1,0.1-1.4l0.9,0l-0.1,0.9l0.1,0C493.6,426.8,494.3,426.5,495,426.5z"/>
		</g>
		<g>
			<path fill="#405E5E" d="M503.6,426.5c0.6,0,1.1,0.1,1.4,0.3l-0.4,0.6c-0.2-0.1-0.6-0.3-1.1-0.2c-0.6,0-1,0.3-1.1,0.7
				c-0.1,0.4,0.2,0.6,0.9,0.7c0.9,0.4,1.4,0.7,1.3,1.3c-0.2,0.8-0.9,1.4-2.3,1.3c-0.6,0-1.2-0.1-1.5-0.3l0.4-0.6
				c0.3,0.2,0.8,0.4,1.3,0.3c0.8,0,1.2-0.3,1.2-0.7c0.1-0.4-0.2-0.6-0.9-0.8c-1-0.2-1.4-0.7-1.4-1.3
				C501.6,427.1,502.4,426.4,503.6,426.5z"/>
		</g>
		<g>
			<path fill="#405E5E" d="M497.7,424.4l-0.6,4.2l0,0c0.2-0.1,0.4-0.3,0.6-0.5l1.9-1.6l1.2,0l-2.5,1.9l2.2,2.7l-1.3,0l-1.7-2.2
				l-0.6,0.4l-0.2,1.7l-1,0l0.9-6.8L497.7,424.4z"/>
		</g>
		<g>
			<path fill="#405E5E" d="M507.9,424.4l-0.3,2.8l0,0c0.2-0.2,0.5-0.4,0.9-0.5c0.3-0.1,0.7-0.2,1.1-0.3c0.8,0,1.9,0.4,1.7,1.9
				l-0.4,2.7l-1,0l0.4-2.6c0.1-0.7-0.2-1.4-1.2-1.3c-0.7,0-1.3,0.4-1.5,0.8c-0.1,0.1-0.1,0.2-0.2,0.4l-0.4,2.7l-1,0l0.9-6.8
				L507.9,424.4z"/>
		</g>
		<g>
			<path fill="#405E5E" d="M515.6,426.4c1.6,0,2.7,1,2.4,2.4c-0.2,1.7-1.8,2.4-3.2,2.5c-1.5,0-2.7-0.9-2.4-2.4
				C512.6,427.3,514,426.4,515.6,426.4z M515,430.6c1,0,1.9-0.7,2-1.8c0.1-0.8-0.3-1.8-1.5-1.7c-1.2,0-1.9,0.9-2,1.8
				C513.3,429.9,514,430.6,515,430.6"/>
		</g>
		<g>
			<path fill="#405E5E" d="M522.7,426.4c1.4,0,2.3,1,2.1,2.3c-0.2,1.6-1.6,2.5-3,2.5c-0.8,0-1.4-0.2-1.6-0.7l0,0l-0.4,2.5l-1,0
				l0.6-4.9c0.1-0.6,0.1-1,0.1-1.5l0.9,0l-0.1,0.8C521,426.7,521.7,426.4,522.7,426.4z M521.7,430.6c1.1,0,1.9-0.7,2-1.8
				c0.2-0.9-0.4-1.7-1.5-1.7c-0.7,0-1.4,0.4-1.7,1c-0.1,0.1-0.1,0.2-0.1,0.3l-0.1,0.8c0,0.1,0,0.2,0,0.3
				C520.4,430.2,521,430.5,521.7,430.6"/>
		</g>
	</g>
	<g>
		<g>
			<polygon fill="#405E5E" points="575.7,262.6 576.5,256.9 577.8,256.9 577,262.6 			"/>
		</g>
		<g>
			<polygon fill="#405E5E" points="571.1,254.6 570.1,261.8 574.4,261.8 574.3,262.7 568.8,262.7 569.8,254.7 			"/>
		</g>
		<g>
			<path fill="#405E5E" d="M577.2,255.9c-0.5,0-0.7-0.3-0.7-0.7c0.1-0.4,0.5-0.6,0.9-0.6c0.5,0,0.7,0.3,0.7,0.7
				C578.1,255.7,577.7,256,577.2,255.9z"/>
		</g>
		<g>
			<path fill="#405E5E" d="M586,255.2l-0.2,1.6l1.9,0l-0.1,0.8l-1.9,0l-0.4,3.1c-0.1,0.7,0.1,1.1,0.9,1.1c0.3,0,0.6,0,0.8,0
				l-0.1,0.8c-0.3,0.1-0.7,0.1-1.2,0.2c-0.6,0-1.1-0.1-1.3-0.4c-0.3-0.3-0.3-0.8-0.3-1.5l0.4-3.1l-1.1,0l0.1-0.8l1.1,0l0.2-1.4
				L586,255.2z"/>
		</g>
		<g>
			<path fill="#405E5E" d="M583,254.1c0.5,0,0.8,0.1,1.1,0.1l-0.3,0.8c-0.2-0.1-0.4-0.2-0.8-0.2c-1.1,0-1.5,0.8-1.6,1.7l-0.1,0.3
				l1.7,0l-0.1,0.8l-1.7,0l-0.6,4.9l-1.3,0l0.6-4.9l-1,0l0.1-0.8l1,0l0.1-0.3c0.2-0.8,0.4-1.5,1.1-2
				C581.7,254.3,582.3,254.1,583,254.1z"/>
		</g>
	</g>
	<polygon fill="#405E5E" points="565,359 565.8,353.3 567.1,353.2 566.3,359 	"/>
	<polygon fill="#405E5E" points="560.5,351.1 559.6,358.1 563.8,358.1 563.6,359 558.1,359 559.2,351 	"/>
	<path fill="#405E5E" d="M566.6,352.3c-0.5,0-0.7-0.3-0.7-0.7c0.1-0.4,0.5-0.6,0.9-0.6c0.5,0,0.7,0.3,0.7,0.7
		C567.5,352,567.1,352.3,566.6,352.3z"/>
	<path fill="#405E5E" d="M572.4,350.4c0.5,0,0.8,0.1,1.1,0.1l-0.3,0.8c-0.2-0.1-0.4-0.2-0.8-0.2c-1.1,0-1.5,0.8-1.6,1.7l-0.1,0.3
		l1.7,0l-0.1,0.8l-1.7,0l-0.6,4.9l-1.3,0l0.6-4.9l-1,0l0.1-0.8l1,0l0.1-0.3c0.2-0.8,0.4-1.5,1.1-2
		C571.1,350.6,571.8,350.4,572.4,350.4z"/>
	<path fill="#405E5E" d="M575.4,351.5l-0.2,1.6l1.9,0L577,354l-1.9,0l-0.4,3.1c-0.1,0.7,0.1,1.1,0.9,1.2c0.3,0,0.6,0,0.8,0l-0.1,0.8
		c-0.3,0.1-0.7,0.1-1.2,0.2c-0.6,0-1.1-0.1-1.3-0.4c-0.3-0.3-0.4-0.8-0.3-1.5l0.4-3.1l-1.1,0l0.1-0.8l1.1,0l0.2-1.4L575.4,351.5z"/>
</g>
</svg>
