<?xml version="1.0" encoding="utf-8"?>
<!-- Generator: Adobe Illustrator 18.1.1, SVG Export Plug-In . SVG Version: 6.00 Build 0)  -->
<svg version="1.1" xmlns="http://www.w3.org/2000/svg" xmlns:xlink="http://www.w3.org/1999/xlink" x="0px" y="0px"
	 viewBox="0 0 800 600" enable-background="new 0 0 800 600" xml:space="preserve">
<g id="Layer_6">
	<polygon fill="#405E5E" points="-673.3,634 -672.6,637.1 -692.6,787.1 -693.3,784 	"/>
	<polygon fill="#405E5E" points="-693.3,784 -692.6,787.1 -745.5,787.2 -746.2,784.1 	"/>
</g>
<g id="Layer_1" display="none">
	<g id="template">
		<g id="MbttYT.tif" display="inline">
			
				<image overflow="visible" enable-background="new    " width="422" height="593" id="Layer_0_1_" xlink:href="C2D480AAA28121DE.png"  transform="matrix(0.9976 0 0 1 205.3285 2)">
			</image>
		</g>
	</g>
	<g id="base">
		<polygon display="inline" fill="#003333" points="264.9,5.7 264.9,150.3 211.9,150.3 211.9,280.7 249.5,280.7 249.5,296 
			211.9,296 211.9,533.4 328.1,533.4 328.1,592.7 476.7,592.7 476.7,534.6 584.9,534.6 584.9,296.6 547.3,296.6 547.3,281.2 
			584.9,281.2 584.9,84.8 542.2,84.8 542.2,5.7 		"/>
	</g>
	<g id="base2" display="inline">
		<g>
			<g>
				<g enable-background="new    ">
					<g>
						<polygon fill="#003333" points="567.1,62.5 567.7,65.5 559.9,131 559.3,127.9 						"/>
					</g>
					<g>
						<polygon fill="#003333" points="475.4,179.8 476.1,182.8 355.5,183.1 354.8,180.1 						"/>
					</g>
					<g>
						<polygon fill="#003333" points="252.7,281 253.3,284.1 216.1,284.2 215.5,281.1 						"/>
					</g>
					<g>
						<polygon fill="#003333" points="354.8,180.1 355.5,183.1 345.4,267.7 344.8,264.6 						"/>
					</g>
					<g>
						<polygon fill="#003333" points="602.5,127.7 603.1,130.8 584.6,285.7 583.9,282.7 						"/>
					</g>
					<g>
						<polygon fill="#003333" points="583.9,282.7 584.6,285.7 548,285.8 547.3,282.8 						"/>
					</g>
					<g>
						<polygon fill="#003333" points="547.3,282.8 548,285.8 546.6,297.7 545.9,294.7 						"/>
					</g>
					<g>
						<polygon fill="#003333" points="452.2,373.7 452.8,376.8 332.3,377.1 331.7,374 						"/>
					</g>
					<g>
						<polygon fill="#003333" points="331.7,374 332.3,377.1 322.3,461 321.7,457.9 						"/>
					</g>
					<g>
						<polygon fill="#003333" points="306.2,481.3 306.8,484.3 192.1,484.6 191.5,481.4 						"/>
					</g>
					<g>
						<polygon fill="#003333" points="560,482.2 560.6,485.3 454.3,485.6 453.6,482.5 						"/>
					</g>
					<g>
						<polygon fill="#003333" points="582.5,294.6 583.1,297.6 560.6,485.3 560,482.2 						"/>
					</g>
					<g>
						<path fill="#003333" d="M583.9,282.7l-36.5,0.1l-1.5,11.9l36.5-0.1L560,482.2l-106.3,0.2l-5.4,44.6l-147.6,0.4l5.5-46.2
							l-114.8,0.3l12.9-107.2l9.5-78.9l37.1-0.1l1.7-14.3l-37.1,0.1l12.1-100.7l51.9-0.1l14-117.1l273.7-0.7l-7.8,65.5l43.3-0.1
							L583.9,282.7z M465.3,264.3l10.1-84.5l-120.6,0.3l-10.1,84.5L465.3,264.3 M442.2,457.6l10-83.9L331.7,374l-10,83.9
							L442.2,457.6"/>
					</g>
					<g>
						<polygon fill="#003333" points="448.3,527.1 448.9,530.1 301.3,530.4 300.7,527.3 						"/>
					</g>
					<g>
						<polygon fill="#003333" points="453.6,482.5 454.3,485.6 448.9,530.1 448.3,527.1 						"/>
					</g>
				</g>
			</g>
		</g>
		<g>
			<g>
				<g enable-background="new    ">
					<g>
						<polygon fill="#003333" points="624.7,238.2 621.5,262.2 587.4,262.3 590.6,238.2 						"/>
					</g>
					<g>
						<polygon fill="#003333" points="624.7,238.2 625.5,241.2 622.3,265.3 621.5,262.2 						"/>
					</g>
					<g>
						<polygon fill="#003333" points="621.5,262.2 622.3,265.3 588.2,265.3 587.4,262.3 						"/>
					</g>
				</g>
			</g>
		</g>
		<g>
			<g>
				<g enable-background="new    ">
					<g>
						<polygon fill="#003333" points="613.7,328.9 610.5,352.9 576.3,353 579.5,329 						"/>
					</g>
					<g>
						<polygon fill="#003333" points="613.7,328.9 614.4,332 611.2,356 610.5,352.9 						"/>
					</g>
					<g>
						<polygon fill="#003333" points="610.5,352.9 611.2,356 577.1,356.1 576.3,353 						"/>
					</g>
				</g>
			</g>
		</g>
		<g>
			<g>
				<g enable-background="new    ">
					<g>
						<polygon fill="#003333" points="334,275.5 331.1,297.6 302.1,297.7 305,275.6 						"/>
					</g>
					<g>
						<polygon fill="#003333" points="334,275.5 334.7,278.7 331.8,300.7 331.1,297.6 						"/>
					</g>
					<g>
						<polygon fill="#003333" points="331.1,297.6 331.8,300.7 302.8,300.8 302.1,297.7 						"/>
					</g>
				</g>
			</g>
		</g>
		<g>
			<g>
				<g enable-background="new    ">
					<g>
						<polygon fill="#003333" points="300.4,287.7 299.4,295.9 256.7,295.9 257.8,287.8 						"/>
					</g>
					<g>
						<polygon fill="#003333" points="300.4,287.7 301.5,292 300.4,300.1 299.4,295.9 						"/>
					</g>
					<g>
						<polygon fill="#003333" points="299.4,295.9 300.4,300.1 257.7,300.2 256.7,295.9 						"/>
					</g>
				</g>
			</g>
		</g>
		<g>
			<g>
				<g enable-background="new    ">
					<g>
						<polygon fill="#003333" points="301,281.4 300,289.6 257.2,289.8 258.3,281.6 						"/>
					</g>
					<g>
						<polygon fill="#003333" points="301,281.4 301.9,285.8 300.9,293.9 300,289.6 						"/>
					</g>
					<g>
						<polygon fill="#003333" points="300,289.6 300.9,293.9 258.2,294 257.2,289.8 						"/>
					</g>
				</g>
			</g>
		</g>
		<g>
			<g>
				<g enable-background="new    ">
					<g>
						<polygon fill="#003333" points="301.5,275.3 300.4,283.4 257.8,283.5 258.8,275.3 						"/>
					</g>
					<g>
						<polygon fill="#003333" points="301.5,275.3 302.5,279.6 301.4,287.7 300.4,283.4 						"/>
					</g>
					<g>
						<polygon fill="#003333" points="300.4,283.4 301.4,287.7 258.7,287.8 257.8,283.5 						"/>
					</g>
				</g>
			</g>
		</g>
		<g>
			<g>
				<g enable-background="new    ">
					<g>
						<polygon fill="#003333" points="545.3,284.8 544.2,292.4 506.9,292.5 507.9,284.8 						"/>
					</g>
					<g>
						<polygon fill="#003333" points="545.3,284.8 546.2,289.2 545.2,296.7 544.2,292.4 						"/>
					</g>
					<g>
						<polygon fill="#003333" points="544.2,292.4 545.2,296.7 507.9,296.8 506.9,292.5 						"/>
					</g>
				</g>
			</g>
		</g>
		<g>
			<g>
				<g enable-background="new    ">
					<g>
						<polygon fill="#003333" points="545.6,279 544.7,286.6 507.3,286.7 508.4,279.1 						"/>
					</g>
					<g>
						<polygon fill="#003333" points="545.6,279 546.6,283.3 545.6,290.9 544.7,286.6 						"/>
					</g>
					<g>
						<polygon fill="#003333" points="544.7,286.6 545.6,290.9 508.3,291 507.3,286.7 						"/>
					</g>
				</g>
			</g>
		</g>
		<g>
			<g>
				<g enable-background="new    ">
					<g>
						<polygon fill="#003333" points="546,273.2 545,280.8 507.8,280.8 508.8,273.3 						"/>
					</g>
					<g>
						<polygon fill="#003333" points="546,273.2 547.1,277.5 546.1,285.2 545,280.8 						"/>
					</g>
					<g>
						<polygon fill="#003333" points="545,280.8 546.1,285.2 508.7,285.2 507.8,280.8 						"/>
					</g>
				</g>
			</g>
		</g>
		<g>
			<g>
				<g enable-background="new    ">
					<g>
						<polygon fill="#003333" points="429.9,315.7 428.4,326.5 369.5,326.6 370.9,315.8 						"/>
					</g>
					<g>
						<polygon fill="#003333" points="429.9,315.7 430.8,319.9 429.4,330.8 428.4,326.5 						"/>
					</g>
					<g>
						<polygon fill="#003333" points="428.4,326.5 429.4,330.8 370.4,330.9 369.5,326.6 						"/>
					</g>
				</g>
			</g>
		</g>
		<g>
			<g>
				<g enable-background="new    ">
					<g>
						<polygon fill="#003333" points="430.6,307.3 429.1,318.2 370.1,318.3 371.6,307.4 						"/>
					</g>
					<g>
						<polygon fill="#003333" points="430.6,307.3 431.6,311.7 430,322.5 429.1,318.2 						"/>
					</g>
					<g>
						<polygon fill="#003333" points="429.1,318.2 430,322.5 371.2,322.6 370.1,318.3 						"/>
					</g>
				</g>
			</g>
		</g>
		<g>
			<g>
				<g enable-background="new    ">
					<g>
						<polygon fill="#003333" points="431.3,299.1 429.9,309.8 370.9,310 372.3,299.2 						"/>
					</g>
					<g>
						<polygon fill="#003333" points="431.3,299.1 432.3,303.3 430.8,314.2 429.9,309.8 						"/>
					</g>
					<g>
						<polygon fill="#003333" points="429.9,309.8 430.8,314.2 371.8,314.3 370.9,310 						"/>
					</g>
				</g>
			</g>
		</g>
		<g>
			<g>
				<g enable-background="new    ">
					<g>
						<polygon fill="#003333" points="591.3,140.5 590.3,148.6 552,148.7 553.2,140.5 						"/>
					</g>
					<g>
						<polygon fill="#003333" points="591.3,140.5 592.3,144.7 591.2,152.9 590.3,148.6 						"/>
					</g>
					<g>
						<polygon fill="#003333" points="590.3,148.6 591.2,152.9 553.1,153 552,148.7 						"/>
					</g>
				</g>
			</g>
		</g>
		<g>
			<g>
				<g enable-background="new    ">
					<g>
						<polygon fill="#003333" points="591.7,134.2 590.6,142.4 552.5,142.5 553.5,134.3 						"/>
					</g>
					<g>
						<polygon fill="#003333" points="591.7,134.2 592.7,138.6 591.6,146.7 590.6,142.4 						"/>
					</g>
					<g>
						<polygon fill="#003333" points="590.6,142.4 591.6,146.7 553.4,146.7 552.5,142.5 						"/>
					</g>
				</g>
			</g>
		</g>
		<g>
			<g>
				<g enable-background="new    ">
					<g>
						<polygon fill="#003333" points="592.1,128 591.1,136.2 552.9,136.3 554,128.1 						"/>
					</g>
					<g>
						<polygon fill="#003333" points="592.1,128 593.1,132.4 592,140.4 591.1,136.2 						"/>
					</g>
					<g>
						<polygon fill="#003333" points="591.1,136.2 592,140.4 553.9,140.6 552.9,136.3 						"/>
					</g>
				</g>
			</g>
		</g>
	</g>
	<g id="landmarks-test" display="inline">
		<g id="EasternArt">
			<g>
				<g enable-background="new    ">
					<g>
						<polygon fill="#003333" points="558.6,64.5 550.7,123.8 293.9,124.3 301.9,65.2 						"/>
					</g>
					<g>
						<polygon fill="#003333" points="558.6,64.5 559.3,67.6 551.4,126.8 550.7,123.8 						"/>
					</g>
					<g>
						<polygon fill="#003333" points="550.7,123.8 551.4,126.8 294.7,127.4 293.9,124.3 						"/>
					</g>
				</g>
			</g>
		</g>
		<g id="ChineseGlass">
			<g>
				<g enable-background="new    ">
					<g>
						<polygon fill="#003333" points="350,127.2 347.3,147.4 290.2,147.5 292.9,127.4 						"/>
					</g>
					<g>
						<polygon fill="#003333" points="350,127.2 350.7,130.3 348,150.5 347.3,147.4 						"/>
					</g>
					<g>
						<polygon fill="#003333" points="347.3,147.4 348,150.5 290.8,150.6 290.2,147.5 						"/>
					</g>
				</g>
			</g>
		</g>
		<g id="TempExhibitsThree">
			<g>
				<g enable-background="new    ">
					<g>
						<polygon fill="#003333" points="485,151.4 482.1,173.1 286.6,173.6 289.5,151.9 						"/>
					</g>
					<g>
						<polygon fill="#003333" points="485,151.4 485.6,154.6 482.7,176.2 482.1,173.1 						"/>
					</g>
					<g>
						<polygon fill="#003333" points="482.1,173.1 482.7,176.2 287.4,176.6 286.6,173.6 						"/>
					</g>
				</g>
			</g>
		</g>
		<g id="BristolSchoolOfArtistsAndSilver">
			<g>
				<g enable-background="new    ">
					<g>
						<polygon fill="#003333" points="345.1,184.7 333.4,272.8 224.5,273 236.2,184.9 						"/>
					</g>
					<g>
						<polygon fill="#003333" points="345.1,184.7 345.7,187.8 334,275.8 333.4,272.8 						"/>
					</g>
					<g>
						<polygon fill="#003333" points="333.4,272.8 334,275.8 225.2,276.1 224.5,273 						"/>
					</g>
				</g>
			</g>
		</g>
		<g id="Glass">
			<g>
				<g enable-background="new    ">
					<g>
						<polygon fill="#003333" points="507.6,267.8 504.2,293.4 338.2,293.7 341.6,268.2 						"/>
					</g>
					<g>
						<polygon fill="#003333" points="507.6,267.8 508.2,270.9 504.8,296.4 504.2,293.4 						"/>
					</g>
					<g>
						<polygon fill="#003333" points="504.2,293.4 504.8,296.4 338.9,296.9 338.2,293.7 						"/>
					</g>
				</g>
			</g>
		</g>
		<g id="PlacesOfDesire">
			<g>
				<g enable-background="new    ">
					<g>
						<polygon fill="#003333" points="331.6,300 322.4,368.9 213.6,369.2 222.7,300.3 						"/>
					</g>
					<g>
						<polygon fill="#003333" points="331.6,300 332.2,303.2 323.1,372 322.4,368.9 						"/>
					</g>
					<g>
						<polygon fill="#003333" points="322.4,368.9 323.1,372 214.2,372.2 213.6,369.2 						"/>
					</g>
				</g>
			</g>
		</g>
		<g id="Sculpture">
			<g>
				<g enable-background="new    ">
					<g>
						<polygon fill="#003333" points="459.7,334.3 455.5,366.1 332.2,366.4 336.5,334.6 						"/>
					</g>
					<g>
						<polygon fill="#003333" points="459.7,334.3 460.4,337.4 456.2,369.2 455.5,366.1 						"/>
					</g>
					<g>
						<polygon fill="#003333" points="455.5,366.1 456.2,369.2 333,369.4 332.2,366.4 						"/>
					</g>
				</g>
			</g>
		</g>
		<g id="FrenchArt">
			<g>
				<g enable-background="new    ">
					<g>
						<polygon fill="#003333" points="573.9,300.7 564.7,369.5 461.9,369.7 471,300.9 						"/>
					</g>
					<g>
						<polygon fill="#003333" points="573.9,300.7 574.5,303.7 565.4,372.5 564.7,369.5 						"/>
					</g>
					<g>
						<polygon fill="#003333" points="564.7,369.5 565.4,372.5 462.5,372.8 461.9,369.7 						"/>
					</g>
				</g>
			</g>
		</g>
		<g id="AheadOfTheCurve">
			<g>
				<g enable-background="new    ">
					<g>
						<polygon fill="#003333" points="320.4,377.9 307.5,474.6 198.7,474.9 211.6,378.2 						"/>
					</g>
					<g>
						<polygon fill="#003333" points="320.4,377.9 321.1,381 308.3,477.7 307.5,474.6 						"/>
					</g>
					<g>
						<polygon fill="#003333" points="307.5,474.6 308.3,477.7 199.4,478 198.7,474.9 						"/>
					</g>
				</g>
			</g>
		</g>
		<g id="EighteenthCenturyArt">
			<g>
				<g enable-background="new    ">
					<g>
						<polygon fill="#003333" points="446,462.6 438.5,518.9 312.2,519.2 319.8,462.9 						"/>
					</g>
					<g>
						<polygon fill="#003333" points="446,462.6 446.7,465.7 439.2,522 438.5,518.9 						"/>
					</g>
					<g>
						<polygon fill="#003333" points="438.5,518.9 439.2,522 312.9,522.3 312.2,519.2 						"/>
					</g>
				</g>
			</g>
		</g>
		<g id="OldMasters">
			<g>
				<g enable-background="new    ">
					<g>
						<polygon fill="#003333" points="562.5,375.4 549.7,472.1 449.9,472.4 462.7,375.6 						"/>
					</g>
					<g>
						<polygon fill="#003333" points="562.5,375.4 563.2,378.5 550.4,475.2 549.7,472.1 						"/>
					</g>
					<g>
						<polygon fill="#003333" points="549.7,472.1 550.4,475.2 450.5,475.5 449.9,472.4 						"/>
					</g>
				</g>
			</g>
		</g>
		<g id="PotteryAndCeramics">
			<g>
				<g enable-background="new    ">
					<g>
						<polygon fill="#003333" points="551.7,127 552.4,130.1 548.8,156.6 548.2,153.5 						"/>
					</g>
					<g>
						<polygon fill="#003333" points="513.9,262.6 514.7,265.6 474.2,265.8 473.5,262.7 						"/>
					</g>
					<g>
						<polygon fill="#003333" points="591.1,153.5 591.8,156.6 579.1,252.3 578.4,249.2 						"/>
					</g>
					<g>
						<polygon fill="#003333" points="551.7,127 548.2,153.5 591.1,153.5 578.4,249.2 575.8,268.3 513.1,268.5 513.9,262.6 
							473.5,262.7 491.5,127.1 						"/>
					</g>
					<g>
						<polygon fill="#003333" points="578.4,249.2 579.1,252.3 576.6,271.5 575.8,268.3 						"/>
					</g>
					<g>
						<polygon fill="#003333" points="575.8,268.3 576.6,271.5 513.8,271.6 513.1,268.5 						"/>
					</g>
				</g>
			</g>
		</g>
	</g>
</g>
<g id="Layer_8">
	<polygon fill="#8C9E9E" points="567.1,62.5 567.7,65.5 559.9,131 559.3,127.9 	"/>
	<polygon fill="#8C9E9E" points="475.4,179.8 476.1,182.8 355.5,183.1 354.8,180.1 	"/>
	<polygon fill="#8C9E9E" points="252.7,281 253.3,284.1 216.1,284.2 215.5,281.1 	"/>
	<polygon fill="#8C9E9E" points="354.8,180.1 355.5,183.1 345.4,267.7 344.8,264.6 	"/>
	<polygon fill="#8C9E9E" points="602.5,127.7 603.1,130.8 584.6,285.7 583.9,282.7 	"/>
	<polygon fill="#8C9E9E" points="583.9,282.7 584.6,285.7 548,285.8 547.3,282.8 	"/>
	<polygon fill="#8C9E9E" points="547.3,282.8 548,285.8 546.6,297.7 545.9,294.7 	"/>
	<polygon fill="#8C9E9E" points="452.2,373.7 452.8,376.8 332.3,377.1 331.7,374 	"/>
	<polygon fill="#8C9E9E" points="331.7,374 332.3,377.1 322.3,461 321.7,457.9 	"/>
	<polygon fill="#8C9E9E" points="306.2,481.3 306.8,484.3 192.1,484.6 191.5,481.4 	"/>
	<polygon fill="#8C9E9E" points="560,482.2 560.6,485.3 454.3,485.6 453.6,482.5 	"/>
	<polygon fill="#8C9E9E" points="582.5,294.6 583.1,297.6 560.6,485.3 560,482.2 	"/>
	<polygon fill="#8C9E9E" points="448.3,527.1 448.9,530.1 301.3,530.4 300.7,527.3 	"/>
	<polygon fill="#8C9E9E" points="453.6,482.5 454.3,485.6 448.9,530.1 448.3,527.1 	"/>
</g>
<g id="Layer_5">
	<polygon fill="#99CCCC" points="583.9,282.7 547.3,282.8 545.9,294.7 582.4,294.6 560,482.2 453.6,482.4 448.3,527 300.7,527.3 
		306.1,481.2 191.4,481.4 204.2,374.3 213.7,295.3 250.9,295.2 252.6,280.9 215.5,281 227.6,180.3 279.4,180.2 293.4,63 567.1,62.4 
		559.3,127.9 602.6,127.8 	"/>
</g>
<g id="Layer_3">
	<polygon fill="#405E5E" points="624.7,238.2 625.5,241.2 622.3,265.3 621.5,262.2 	"/>
	<polygon fill="#405E5E" points="621.5,262.2 622.3,265.3 588.2,265.3 587.4,262.3 	"/>
	<polygon fill="#405E5E" points="613.7,328.9 614.4,332 611.2,356 610.5,352.9 	"/>
	<polygon fill="#405E5E" points="610.5,352.9 611.2,356 577.1,356.1 576.3,353 	"/>
	<polygon fill="#405E5E" points="334,275.5 334.7,278.7 331.8,300.7 331.1,297.6 	"/>
	<polygon fill="#405E5E" points="331.1,297.6 331.8,300.7 302.8,300.8 302.1,297.7 	"/>
	<polygon fill="#405E5E" points="300.4,287.7 301.5,292 300.4,300.1 299.4,295.9 	"/>
	<polygon fill="#405E5E" points="299.4,295.9 300.4,300.1 257.7,300.2 256.7,295.9 	"/>
	<polygon fill="#405E5E" points="301,281.4 301.9,285.8 300.9,293.9 300,289.6 	"/>
	<polygon fill="#405E5E" points="300,289.6 300.9,293.9 258.2,294 257.2,289.8 	"/>
	<polygon fill="#405E5E" points="301.5,275.3 302.5,279.6 301.4,287.7 300.4,283.4 	"/>
	<polygon fill="#405E5E" points="300.4,283.4 301.4,287.7 258.7,287.8 257.8,283.5 	"/>
	<polygon fill="#405E5E" points="545.3,284.8 546.2,289.2 545.2,296.7 544.2,292.4 	"/>
	<polygon fill="#405E5E" points="544.2,292.4 545.2,296.7 507.9,296.8 506.9,292.5 	"/>
	<polygon fill="#405E5E" points="545.6,279 546.6,283.3 545.6,290.9 544.7,286.6 	"/>
	<polygon fill="#405E5E" points="544.7,286.6 545.6,290.9 508.3,291 507.3,286.7 	"/>
	<polygon fill="#405E5E" points="546,273.2 547.1,277.5 546.1,285.2 545,280.8 	"/>
	<polygon fill="#405E5E" points="545,280.8 546.1,285.2 508.7,285.2 507.8,280.8 	"/>
	<polygon fill="#405E5E" points="429.9,315.7 430.8,319.9 429.4,330.8 428.4,326.5 	"/>
	<polygon fill="#405E5E" points="428.4,326.5 429.4,330.8 370.4,330.9 369.5,326.6 	"/>
	<polygon fill="#405E5E" points="430.6,307.3 431.6,311.7 430,322.5 429.1,318.2 	"/>
	<polygon fill="#405E5E" points="429.1,318.2 430,322.5 371.2,322.6 370.1,318.3 	"/>
	<polygon fill="#405E5E" points="431.3,299.1 432.3,303.3 430.8,314.2 429.9,309.8 	"/>
	<polygon fill="#405E5E" points="429.9,309.8 430.8,314.2 371.8,314.3 370.9,310 	"/>
	<polygon fill="#405E5E" points="591.3,140.5 592.3,144.7 591.2,152.9 590.3,148.6 	"/>
	<polygon fill="#405E5E" points="590.3,148.6 591.2,152.9 553.1,153 552,148.7 	"/>
	<polygon fill="#405E5E" points="591.7,134.2 592.7,138.6 591.6,146.7 590.6,142.4 	"/>
	<polygon fill="#405E5E" points="590.6,142.4 591.6,146.7 553.4,146.7 552.5,142.5 	"/>
	<polygon fill="#405E5E" points="592.1,128 593.1,132.4 592,140.4 591.1,136.2 	"/>
	<polygon fill="#405E5E" points="591.1,136.2 592,140.4 553.9,140.6 552.9,136.3 	"/>
	<polygon fill="#405E5E" points="558.6,64.5 559.3,67.6 551.4,126.8 550.7,123.8 	"/>
	<polygon fill="#405E5E" points="550.7,123.8 551.4,126.8 294.7,127.4 293.9,124.3 	"/>
	<polygon fill="#405E5E" points="350,127.2 350.7,130.3 348,150.5 347.3,147.4 	"/>
	<polygon fill="#405E5E" points="347.3,147.4 348,150.5 290.8,150.6 290.2,147.5 	"/>
	<polygon fill="#405E5E" points="485,151.4 485.6,154.6 482.7,176.2 482.1,173.1 	"/>
	<polygon fill="#405E5E" points="482.1,173.1 482.7,176.2 287.4,176.6 286.6,173.6 	"/>
	<polygon fill="#405E5E" points="345.1,184.7 345.7,187.8 334,275.8 333.4,272.8 	"/>
	<polygon fill="#405E5E" points="333.4,272.8 334,275.8 225.2,276.1 224.5,273 	"/>
	<polygon fill="#405E5E" points="507.6,267.8 508.2,270.9 504.8,296.4 504.2,293.4 	"/>
	<polygon fill="#405E5E" points="504.2,293.4 504.8,296.4 338.9,296.9 338.2,293.7 	"/>
	<polygon fill="#405E5E" points="331.6,300 332.2,303.2 323.1,372 322.4,368.9 	"/>
	<polygon fill="#405E5E" points="322.4,368.9 323.1,372 214.2,372.2 213.6,369.2 	"/>
	<polygon fill="#405E5E" points="459.7,334.3 460.4,337.4 456.2,369.2 455.5,366.1 	"/>
	<polygon fill="#405E5E" points="455.5,366.1 456.2,369.2 333,369.4 332.2,366.4 	"/>
	<polygon fill="#405E5E" points="573.9,300.7 574.5,303.7 565.4,372.5 564.7,369.5 	"/>
	<polygon fill="#405E5E" points="564.7,369.5 565.4,372.5 462.5,372.8 461.9,369.7 	"/>
	<polygon fill="#405E5E" points="320.4,377.9 321.1,381 308.3,477.7 307.5,474.6 	"/>
	<polygon fill="#405E5E" points="307.5,474.6 308.3,477.7 199.4,478 198.7,474.9 	"/>
	<polygon fill="#405E5E" points="446,462.6 446.7,465.7 439.2,522 438.5,518.9 	"/>
	<polygon fill="#405E5E" points="438.5,518.9 439.2,522 312.9,522.3 312.2,519.2 	"/>
	<polygon fill="#405E5E" points="562.5,375.4 563.2,378.5 550.4,475.2 549.7,472.1 	"/>
	<polygon fill="#405E5E" points="549.7,472.1 550.4,475.2 450.5,475.5 449.9,472.4 	"/>
	<polygon fill="#405E5E" points="551.7,127 552.4,130.1 548.8,156.6 548.2,153.5 	"/>
	<polygon fill="#405E5E" points="513.9,262.6 514.7,265.6 474.2,265.8 473.5,262.7 	"/>
	<polygon fill="#405E5E" points="591.1,153.5 591.8,156.6 579.1,252.3 578.4,249.2 	"/>
	<polygon fill="#405E5E" points="578.4,249.2 579.1,252.3 576.6,271.5 575.8,268.3 	"/>
	<polygon fill="#405E5E" points="575.8,268.3 576.6,271.5 513.8,271.6 513.1,268.5 	"/>
</g>
<g id="Layer_7" display="none">
	<polygon display="inline" fill="#606130" points="334,275.5 331.1,297.6 302.1,297.7 305,275.6 	"/>
	<polygon display="inline" fill="#9E6640" points="300.4,287.7 299.4,295.9 256.7,295.9 257.8,287.8 	"/>
	<polygon display="inline" fill="#9E6640" points="301,281.4 300,289.6 257.2,289.8 258.3,281.6 	"/>
	<polygon display="inline" fill="#9E6640" points="301.5,275.3 300.4,283.4 257.8,283.5 258.8,275.3 	"/>
	<polygon display="inline" fill="#9E6640" points="545.3,284.8 544.2,292.4 506.9,292.5 507.9,284.8 	"/>
	<polygon display="inline" fill="#9E6640" points="545.6,279 544.7,286.6 507.3,286.7 508.4,279.1 	"/>
	<polygon display="inline" fill="#9E6640" points="546,273.2 545,280.8 507.8,280.8 508.8,273.3 	"/>
	<polygon display="inline" fill="#9E6640" points="429.9,315.7 428.4,326.5 369.5,326.6 370.9,315.8 	"/>
	<polygon display="inline" fill="#9E6640" points="430.6,307.3 429.1,318.2 370.1,318.3 371.6,307.4 	"/>
	<polygon display="inline" fill="#9E6640" points="431.3,299.1 429.9,309.8 370.9,310 372.3,299.2 	"/>
	<polygon display="inline" fill="#9E6640" points="591.3,140.5 590.3,148.6 552,148.7 553.2,140.5 	"/>
	<polygon display="inline" fill="#9E6640" points="591.7,134.2 590.6,142.4 552.5,142.5 553.5,134.3 	"/>
	<polygon display="inline" fill="#9E6640" points="592.1,128 591.1,136.2 552.9,136.3 554,128.1 	"/>
</g>
<g id="Layer_4">
	<polygon fill="#336666" points="558.6,64.5 550.7,123.8 293.9,124.3 301.9,65.2 	"/>
	<polygon fill="#336666" points="350,127.2 347.3,147.4 290.2,147.5 292.9,127.4 	"/>
	<polygon fill="#336666" points="485,151.4 482.1,173.1 286.6,173.6 289.5,151.9 	"/>
	<polygon fill="#336666" points="345.1,184.7 333.4,272.8 224.5,273 236.2,184.9 	"/>
	<polygon fill="#336666" points="507.6,267.8 504.2,293.4 338.2,293.7 341.6,268.2 	"/>
	<polygon fill="#336666" points="331.6,300 322.4,368.9 213.6,369.2 222.7,300.3 	"/>
	<polygon fill="#336666" points="459.7,334.3 455.5,366.1 332.2,366.4 336.5,334.6 	"/>
	<polygon fill="#336666" points="573.9,300.7 564.7,369.5 461.9,369.7 471,300.9 	"/>
	<polygon fill="#336666" points="320.4,377.9 307.5,474.6 198.7,474.9 211.6,378.2 	"/>
	<polygon fill="#336666" points="446,462.6 438.5,518.9 312.2,519.2 319.8,462.9 	"/>
	<polygon fill="#336666" points="562.5,375.4 549.7,472.1 449.9,472.4 462.7,375.6 	"/>
	<polygon fill="#336666" points="551.7,127 548.2,153.5 591.1,153.5 578.4,249.2 575.8,268.3 513.1,268.5 513.9,262.6 473.5,262.7 
		491.5,127.1 	"/>
	<polygon fill="#C1DDDD" points="624.7,238.2 621.5,262.2 587.4,262.3 590.6,238.2 	"/>
	<polygon fill="#C1DDDD" points="613.7,328.9 610.5,352.9 576.3,353 579.5,329 	"/>
</g>
<g id="Layer_2">
	<g id="nopointer-test">
		<g>
			<g>
				<g>
					<path fill="#FFFFFF" d="M390.1,98.1c-0.2,0.8-0.2,1.6-0.1,2.3l-2,0l0-1.2l-0.1,0c-0.8,0.7-2.1,1.4-3.8,1.4
						c-2.4,0-3.5-1.3-3.3-2.7c0.3-2.3,3-3.6,7.5-3.5l0.1,0l0-0.2c0.1-0.8,0-2.2-2.4-2.2c-1.1,0-2.3,0.3-3.2,0.7l-0.4-1.2
						c1.1-0.6,2.6-0.8,4.1-0.8c3.6,0,4.3,2,4,3.9L390.1,98.1z M388.2,97.2l0.2-1.6c-0.1,0-0.2,0-0.3,0c-2.3,0-4.8,0.4-5,2.2
						c-0.1,1.1,0.7,1.7,1.8,1.6c1.5,0,2.7-0.7,3.1-1.6C388.1,97.5,388.2,97.3,388.2,97.2"/>
				</g>
				<g>
					<polygon fill="#FFFFFF" points="380.2,87.1 380,88.5 373.2,88.6 372.6,92.8 379,92.8 378.9,94.2 372.4,94.2 371.7,99 378.9,99 
						378.7,100.4 369.4,100.4 371.2,87.1 					"/>
				</g>
				<g>
					<path fill="#FFFFFF" d="M398.2,90.6c1.2,0,2.2,0.3,2.8,0.5l-0.7,1.2c-0.4-0.3-1.2-0.5-2.3-0.6c-1.3,0-2.1,0.6-2.1,1.3
						c-0.1,0.8,0.6,1.2,2.1,1.6c1.9,0.6,3,1.4,2.8,2.9c-0.2,1.7-2,2.8-4.9,2.9c-1.3,0-2.5-0.3-3.2-0.6l0.7-1.3
						c0.6,0.4,1.6,0.7,2.7,0.7c1.6,0,2.4-0.6,2.5-1.4s-0.5-1.3-2-1.8c-2-0.6-3-1.5-2.7-2.7C394,91.9,395.7,90.6,398.2,90.6z"/>
				</g>
				<g>
					<path fill="#FFFFFF" d="M421.6,95.1c-0.1,0.4-0.2,0.6-0.2,0.8l-8.4,0.1c-0.3,2.3,1.5,3.3,3.7,3.3c1.5,0,2.5-0.2,3.4-0.5
						l0.2,1.2c-0.8,0.2-2.2,0.6-4.1,0.6c-3.7,0-5.6-1.9-5.2-4.8c0.3-2.9,2.8-5.2,6.2-5.1C421.1,90.6,421.8,93.3,421.6,95.1z
						 M413.3,94.6l6.3,0c0.1-1.1-0.2-2.8-2.7-2.8C414.7,91.8,413.6,93.4,413.3,94.6"/>
				</g>
				<g>
					<path fill="#FFFFFF" d="M407.3,88l-0.4,2.7l3.1,0l-0.1,1.3l-3.1,0l-0.7,5.1c-0.1,1.2,0.2,1.9,1.4,1.8c0.6,0,1-0.1,1.3-0.1
						l0,1.3c-0.4,0.1-1.1,0.3-2,0.2c-1,0-1.8-0.2-2.2-0.7c-0.5-0.5-0.7-1.4-0.5-2.5l0.7-5.2l-1.8,0l0.1-1.3l1.8,0l0.3-2.3L407.3,88z
						"/>
				</g>
				<g>
					<path fill="#FFFFFF" d="M430.2,90.5c0.2,0,0.4,0,0.6,0.1l-0.2,1.6c-0.2-0.1-0.4-0.1-0.7-0.1c-1.5,0-2.8,1-3.2,2.3
						c-0.1,0.2-0.2,0.5-0.3,0.8l-0.7,5l-2.1,0l0.8-6.6c0.1-1.1,0.3-2.1,0.3-3l1.9,0l-0.2,1.9l0.1,0
						C427.3,91.4,428.7,90.6,430.2,90.5z"/>
				</g>
				<g>
					<path fill="#FFFFFF" d="M438.9,90.5c1.6,0,4.1,0.8,3.6,4l-0.8,5.7l-2.2,0l0.7-5.4c0.2-1.5-0.4-2.8-2.4-2.8
						c-1.4,0-2.7,0.8-3.1,1.8c-0.1,0.2-0.2,0.5-0.3,0.8l-0.8,5.8l-2.2,0l0.9-7c0.1-1,0.2-1.8,0.3-2.6l1.9,0l-0.1,1.6l0,0
						C435.4,91.4,436.9,90.5,438.9,90.5z"/>
				</g>
				<g>
					<path fill="#FFFFFF" d="M472.1,90.4c0.2,0,0.4,0,0.6,0.1l-0.2,1.6c-0.2-0.1-0.4-0.1-0.7-0.1c-1.5,0-2.8,1-3.2,2.3
						c-0.1,0.2-0.2,0.5-0.2,0.8l-0.7,5l-2.1,0l0.8-6.6c0.1-1.1,0.3-2.1,0.3-3l1.9,0l-0.2,1.9l0.1,0
						C469.3,91.3,470.7,90.5,472.1,90.4z"/>
				</g>
				<g>
					<path fill="#FFFFFF" d="M459.3,86.9l3.9,13.3l-2.3,0l-1.2-4.1l-5.9,0l-2.3,4.1l-2.2,0l7.4-13.3L459.3,86.9z M454.4,94.7l5,0
						l-1.1-3.8c-0.2-0.9-0.4-1.7-0.5-2.5l-0.1,0c-0.4,0.8-0.7,1.6-1.2,2.4L454.4,94.7"/>
				</g>
				<g>
					<path fill="#FFFFFF" d="M477.9,87.9l-0.4,2.7l3.1,0l-0.1,1.3l-3.1,0l-0.7,5.1c-0.1,1.2,0.2,1.9,1.4,1.8c0.6,0,1-0.1,1.3-0.1
						l0,1.3c-0.4,0.1-1.1,0.3-2,0.2c-1,0-1.8-0.2-2.2-0.7c-0.5-0.5-0.7-1.4-0.5-2.5l0.7-5.2l-1.8,0l0.1-1.3l1.8,0l0.3-2.3
						L477.9,87.9z"/>
				</g>
			</g>
		</g>
		<g>
			<g>
				<g>
					<path fill="#FFFFFF" d="M531.7,175.3l-0.4,2.7l3.1,0l-0.1,1.3l-3.1,0l-0.7,5.1c-0.1,1.2,0.2,1.9,1.4,1.8c0.6,0,1-0.1,1.3-0.2
						l0,1.3c-0.4,0.1-1.1,0.3-2,0.2c-1,0-1.8-0.2-2.2-0.7c-0.5-0.5-0.7-1.4-0.5-2.5l0.7-5.2l-1.8,0l0.1-1.3l1.8,0l0.3-2.3
						L531.7,175.3z"/>
				</g>
				<g>
					<path fill="#FFFFFF" d="M520.3,177.8c3.4,0,5.5,2,5.1,4.9c-0.5,3.5-3.7,5.1-6.6,5.1c-3.2,0-5.5-1.9-5.1-4.9
						C514.2,179.7,517.1,177.9,520.3,177.8z M519,186.5c2.1,0,3.8-1.6,4.1-3.7c0.2-1.6-0.5-3.7-3.1-3.6c-2.6,0-3.9,1.9-4.2,3.7
						C515.7,185,516.9,186.5,519,186.5"/>
				</g>
				<g>
					<path fill="#FFFFFF" d="M511.3,175.4c0.8,0.7,1.3,1.6,1.1,2.7c-0.1,1.2-0.7,2.1-1.6,2.8c-1.2,1-3.1,1.5-5.2,1.5
						c-0.6,0-1.2,0-1.7-0.1l-0.7,5.3l-2.1,0l1.8-13.1c1.1-0.2,2.4-0.2,4.2-0.2C509,174.2,510.5,174.6,511.3,175.4z M505.7,181
						c2.6,0,4.2-1,4.6-2.9c0.2-1.7-1.2-2.6-3.5-2.6c-0.9,0-1.7,0.1-2,0.1l-0.7,5.1C504.4,181,505,181,505.7,181"/>
				</g>
				<g>
					<path fill="#FFFFFF" d="M539.9,175.2l-0.4,2.7l3.1,0l-0.1,1.3l-3.1,0l-0.7,5.1c-0.1,1.2,0.2,1.9,1.4,1.8c0.6,0,1-0.1,1.3-0.2
						l0,1.3c-0.4,0.1-1.1,0.3-2,0.2c-1,0-1.8-0.2-2.2-0.7c-0.5-0.5-0.7-1.4-0.5-2.5l0.7-5.2l-1.8,0l0.1-1.3l1.8,0l0.3-2.3
						L539.9,175.2z"/>
				</g>
				<g>
					<path fill="#FFFFFF" d="M554.2,182.3c-0.1,0.4-0.2,0.6-0.2,0.8l-8.4,0.1c-0.3,2.3,1.5,3.3,3.7,3.3c1.5,0,2.5-0.2,3.4-0.5
						l0.2,1.2c-0.8,0.2-2.2,0.6-4.1,0.6c-3.7,0-5.6-1.9-5.2-4.8c0.3-2.8,2.8-5.2,6.3-5.2C553.7,177.8,554.4,180.5,554.2,182.3z
						 M545.7,181.8l6.3,0c0.1-1.1-0.2-2.8-2.7-2.9C547.3,179,546.1,180.6,545.7,181.8"/>
				</g>
				<g>
					<path fill="#FFFFFF" d="M562.7,177.8c0.2,0,0.4,0,0.6,0.1l-0.2,1.6c-0.2,0-0.4-0.1-0.7-0.1c-1.5,0-2.8,1-3.2,2.3
						c-0.1,0.2-0.2,0.5-0.2,0.8l-0.7,5l-2.1,0l0.8-6.6c0.1-1.1,0.3-2.1,0.3-3l1.9,0l-0.2,1.9l0.1,0
						C559.8,178.5,561.2,177.8,562.7,177.8z"/>
				</g>
				<g>
					<path fill="#FFFFFF" d="M575.1,177.9l-4.1,6.8c-2,3.3-3.2,5-4.9,6c-1.2,0.8-2.2,1-2.8,1.2l-0.4-1.5c0.6-0.1,1.3-0.4,2-0.8
						c0.7-0.3,1.4-1.1,2.1-1.9c0.1-0.2,0.2-0.3,0.2-0.4c0-0.1,0-0.2-0.1-0.5l-3.2-8.7l2.4,0l1.9,5.6c0.1,0.6,0.4,1.4,0.5,2
						c0.4-0.5,0.7-1.3,1.1-2l3.1-5.6L575.1,177.9z"/>
				</g>
				<g>
					<path fill="#FFFFFF" d="M538.3,208.9c0.7,0.8,1.6,1.5,2.4,2.4l-2.6,0c-0.4-0.4-0.8-0.8-1.4-1.3c-1.5,1.1-3.2,1.5-5,1.6
						c-3.2,0-4.9-1.7-4.6-3.8c0.2-1.8,1.7-3.1,3.8-3.9l0-0.1c-0.7-0.9-1.1-1.8-1-2.8c0.2-1.6,1.9-3.3,4.6-3.3c2.1,0,3.6,1.1,3.3,2.8
						c-0.2,1.4-1.4,2.5-4.1,3.5l0,0.1c1.3,1.3,2.7,2.8,3.5,3.7c0.8-0.9,1.6-2.2,2.1-3.9l2,0C540.6,206,539.7,207.7,538.3,208.9z
						 M532.2,210.1c1.4,0,2.7-0.5,3.5-1.2c-0.8-0.9-2.5-2.5-4.1-4.2c-1,0.5-2.3,1.3-2.5,2.7C529.1,209,530.2,210.1,532.2,210.1
						 M534.2,198.9c-1.4,0-2.3,0.9-2.4,1.9c-0.2,0.9,0.3,1.7,0.9,2.4c1.8-0.8,2.9-1.5,3.1-2.6C536.1,199.8,535.6,198.9,534.2,198.9"
						/>
				</g>
				<g>
					<path fill="#FFFFFF" d="M494.7,221.5c2.1,0,3.3,0.3,3.8,0.6l-0.7,1.4c-0.8-0.4-1.9-0.6-3.2-0.5c-3.9,0-6.7,2-7.2,5.5
						c-0.4,3.2,1.6,5.3,5.7,5.3c1.3,0,2.7-0.2,3.6-0.6l0.3,1.4c-0.8,0.3-2.5,0.6-4.5,0.6c-4.7,0.1-7.8-2.4-7.3-6.7
						C485.8,224.3,489.6,221.4,494.7,221.5z"/>
				</g>
				<g>
					<path fill="#FFFFFF" d="M509.9,229.6c-0.1,0.4-0.2,0.6-0.2,0.8l-8.4,0.1c-0.3,2.3,1.5,3.3,3.7,3.3c1.5,0,2.5-0.2,3.4-0.5
						l0.2,1.2c-0.8,0.2-2.2,0.6-4.1,0.6c-3.7,0-5.6-1.9-5.2-4.8c0.3-2.9,2.8-5.2,6.2-5.1C509.4,225.2,510.1,227.8,509.9,229.6z
						 M501.4,229.2l6.3,0c0.1-1.1-0.2-2.8-2.7-2.8C503,226.4,501.8,228,501.4,229.2"/>
				</g>
				<g>
					<path fill="#FFFFFF" d="M528.6,232.5c-0.2,0.8-0.2,1.6-0.1,2.3l-2,0l0-1.2l-0.1,0c-0.8,0.7-2.1,1.4-3.8,1.4
						c-2.4,0-3.5-1.3-3.3-2.7c0.3-2.3,3-3.6,7.5-3.5l0.1,0l0-0.2c0.1-0.8,0-2.2-2.4-2.2c-1.1,0-2.3,0.3-3.2,0.7l-0.4-1.2
						c1.1-0.6,2.6-0.8,4.1-0.8c3.6,0,4.2,2,4,3.9L528.6,232.5z M526.6,231.6l0.2-1.6c-0.1,0-0.2,0-0.4,0c-2.3,0-4.7,0.4-5,2.2
						c-0.1,1.1,0.7,1.7,1.8,1.6c1.5,0,2.7-0.7,3.1-1.6C526.4,232,526.5,231.8,526.6,231.6"/>
				</g>
				<g>
					<path fill="#FFFFFF" d="M518.3,225.1c0.2,0,0.4,0,0.6,0.1l-0.2,1.6c-0.2-0.1-0.4-0.1-0.7-0.1c-1.5,0-2.8,1-3.2,2.2
						c-0.1,0.2-0.2,0.5-0.2,0.8l-0.7,5l-2.1,0l0.8-6.6c0.1-1.1,0.3-2.1,0.3-3l1.9,0l-0.2,1.9l0.1,0
						C515.5,225.9,517,225.2,518.3,225.1z"/>
				</g>
				<g>
					<path fill="#FFFFFF" d="M546.2,225.1c1.6,0,3.7,0.8,3.3,4.1l-0.8,5.7l-2.1,0l0.7-5.4c0.2-1.8-0.5-3-2.2-2.9
						c-1.2,0-2.3,0.7-2.8,1.6c-0.1,0.2-0.3,0.5-0.3,0.8l-0.8,5.9l-2.1,0l0.8-5.8c0.2-1.5-0.4-2.6-2.1-2.6c-1.4,0-2.5,0.8-2.9,1.8
						c-0.2,0.3-0.3,0.5-0.3,0.8l-0.8,5.8l-2.1,0l0.9-7c0.1-1,0.2-1.8,0.3-2.6l1.9,0l-0.1,1.5l0.1,0c0.7-0.9,2-1.7,4-1.7
						c1.6,0,2.7,0.8,3.1,1.9c0.5-0.5,1-1,1.5-1.3C544.2,225.3,545,225,546.2,225.1z"/>
				</g>
				<g>
					<polygon fill="#FFFFFF" points="552.2,234.8 553.5,225.3 555.7,225.2 554.4,234.8 					"/>
				</g>
				<g>
					<path fill="#FFFFFF" d="M554.8,223.7c-0.8,0-1.2-0.4-1.2-1c0.1-0.6,0.7-1,1.5-1.1c0.8,0,1.2,0.4,1.2,1
						C556.3,223.2,555.6,223.6,554.8,223.7z"/>
				</g>
				<g>
					<path fill="#FFFFFF" d="M574,225c1.2,0,2.2,0.3,2.8,0.5l-0.7,1.2c-0.4-0.3-1.2-0.5-2.3-0.6c-1.3,0-2.1,0.6-2.1,1.3
						c-0.1,0.8,0.6,1.2,2.1,1.6c2,0.6,3,1.4,2.8,2.9c-0.2,1.7-2,2.8-4.9,2.9c-1.3,0-2.5-0.3-3.2-0.6l0.7-1.3
						c0.6,0.4,1.6,0.7,2.7,0.7c1.6,0,2.4-0.6,2.5-1.4c0.2-0.8-0.5-1.3-2-1.8c-2-0.6-3-1.5-2.7-2.7C569.7,226.3,571.4,225,574,225z"
						/>
				</g>
				<g>
					<path fill="#FFFFFF" d="M564.9,225c1.3,0,2.4,0.3,2.9,0.4l-0.6,1.3c-0.5-0.3-1.2-0.4-2.4-0.5c-2.7,0-4.4,1.6-4.7,3.7
						c-0.3,2.2,1.3,3.5,3.7,3.5c1.2,0,2.1-0.2,2.7-0.4l0.2,1.3c-0.6,0.2-1.9,0.6-3.5,0.6c-3.6,0-5.7-1.9-5.3-4.8
						C558.2,227.2,561,225,564.9,225z"/>
				</g>
			</g>
		</g>
		<g>
			<g>
				<g>
					<polygon fill="#FFFFFF" points="338.5,157.9 338.4,159 334.4,159 333.1,168.5 331.3,168.5 332.6,159 328.6,159.1 328.7,157.9 
											"/>
				</g>
				<g>
					<path fill="#FFFFFF" d="M346.8,164.3c-0.1,0.3-0.1,0.5-0.2,0.6l-6.7,0c-0.2,1.9,1.1,2.6,2.9,2.6c1.2,0,2-0.2,2.7-0.4l0.2,1
						c-0.7,0.2-1.7,0.5-3.3,0.5c-2.9,0-4.5-1.6-4.2-3.9s2.3-4.1,5-4.2C346.5,160.7,347,162.9,346.8,164.3z M340.1,163.9l5.1,0
						c0.2-0.9-0.1-2.3-2.1-2.3C341.3,161.7,340.4,163,340.1,163.9"/>
				</g>
				<g>
					<path fill="#FFFFFF" d="M359.9,160.6c1.3,0,3,0.6,2.7,3.3l-0.6,4.5l-1.7,0l0.6-4.3c0.2-1.5-0.3-2.4-1.7-2.3
						c-1,0-1.9,0.6-2.2,1.2c-0.1,0.2-0.2,0.4-0.3,0.7l-0.6,4.7l-1.7,0l0.7-4.5c0.1-1.2-0.4-2.1-1.7-2.1c-1.1,0-2,0.7-2.3,1.4
						c-0.1,0.2-0.2,0.4-0.3,0.7l-0.6,4.6l-1.7,0l0.7-5.5c0.1-0.8,0.2-1.4,0.2-2.1l1.5,0l-0.1,1.2l0.1,0c0.7-0.7,1.6-1.4,3.1-1.4
						c1.3,0,2.2,0.6,2.5,1.6c0.4-0.4,0.9-0.7,1.2-1C358.4,160.8,359,160.7,359.9,160.6z"/>
				</g>
				<g>
					<path fill="#FFFFFF" d="M370.8,160.7c2.3,0,3.8,1.6,3.5,3.9c-0.4,2.7-2.6,4.1-4.9,4.1c-1.3,0-2.3-0.5-2.8-1.2l-0.6,4.1l-1.7,0
						l1.1-8.3c0.1-1,0.2-1.8,0.3-2.5l1.6,0l-0.1,1.3C368.1,161.2,369.3,160.6,370.8,160.7z M369.4,167.5c1.8,0,3-1.2,3.2-3
						c0.2-1.5-0.7-2.9-2.5-2.9c-1.2,0-2.4,0.7-2.8,1.8c-0.1,0.2-0.2,0.4-0.2,0.6l-0.1,1.3c0,0.2,0,0.4,0,0.6
						C367.1,166.9,368.1,167.5,369.4,167.5"/>
				</g>
				<g>
					<path fill="#FFFFFF" d="M398.3,160.7l-3.7,3.7l2.8,4l-2,0l-1.2-1.7c-0.3-0.5-0.5-0.9-0.9-1.4l0,0c-0.4,0.4-0.8,0.8-1.1,1.4
						l-1.6,1.7l-1.9,0l3.9-3.9l-2.7-3.8l1.9,0l1.2,1.6c0.3,0.4,0.5,0.8,0.8,1.3l0.1,0c0.4-0.4,0.8-0.8,1.1-1.3l1.5-1.6L398.3,160.7z
						"/>
				</g>
				<g>
					<polygon fill="#FFFFFF" points="388.9,157.8 388.7,159 383.2,159 382.8,162.3 387.9,162.3 387.8,163.4 382.7,163.4 
						382.2,167.2 387.9,167.2 387.8,168.4 380.2,168.4 381.7,157.8 					"/>
				</g>
				<g>
					<path fill="#FFFFFF" d="M402.3,157.2l-0.6,4.7c0.4-0.4,0.9-0.7,1.4-1c0.6-0.2,1.2-0.4,1.8-0.4c1.3,0,3.2,0.6,2.9,3.2l-0.7,4.5
						l-1.7,0l0.6-4.3c0.1-1.2-0.2-2.3-1.9-2.3c-1.1,0-2.1,0.6-2.5,1.3c-0.1,0.2-0.2,0.4-0.2,0.7l-0.6,4.6l-1.7,0l1.5-11.2
						L402.3,157.2z"/>
				</g>
				<g>
					<polygon fill="#FFFFFF" points="410,168.3 411,160.8 412.7,160.8 411.7,168.3 					"/>
				</g>
				<g>
					<path fill="#FFFFFF" d="M412,159.4c-0.6,0-1-0.3-0.9-0.8c0.1-0.5,0.6-0.8,1.2-0.9c0.6,0,1,0.3,0.9,0.8
						C413.2,159,412.7,159.5,412,159.4z"/>
				</g>
				<g>
					<path fill="#FFFFFF" d="M420.6,160.5c2.4,0,3.8,1.6,3.5,3.9c-0.4,2.7-2.7,4.1-4.8,4.1c-1.4,0-2.4-0.5-3-1.4l-0.1,0l-0.2,1.2
						l-1.5,0c0.1-0.5,0.2-1.3,0.3-2l1.2-9.2l1.7,0l-0.6,4.7C417.9,161.1,419.1,160.5,420.6,160.5z M419,167.4c1.8,0,3-1.2,3.2-3
						c0.2-1.5-0.7-2.9-2.5-2.9c-1.2,0-2.4,0.6-2.9,1.7c-0.1,0.2-0.2,0.3-0.2,0.6l-0.2,1.4c0,0.2,0,0.3,0,0.5
						C416.9,166.7,417.8,167.4,419,167.4"/>
				</g>
				<g>
					<polygon fill="#FFFFFF" points="425.8,168.4 426.8,160.7 428.5,160.7 427.5,168.3 					"/>
				</g>
				<g>
					<path fill="#FFFFFF" d="M433.8,158.5l-0.3,2.2l2.5,0l-0.1,1l-2.5,0l-0.6,4.1c-0.2,0.9,0.2,1.5,1.1,1.4c0.5,0,0.8,0,1-0.1l0,1
						c-0.4,0.1-0.9,0.1-1.6,0.2c-0.8,0-1.4-0.2-1.8-0.6c-0.4-0.4-0.6-1.1-0.4-2l0.6-4.1l-1.5,0l0.1-1l1.5,0l0.2-1.8L433.8,158.5z"/>
				</g>
				<g>
					<path fill="#FFFFFF" d="M427.8,159.4c-0.6,0-1-0.3-0.9-0.8c0.1-0.5,0.6-0.8,1.2-0.9c0.7,0,1,0.3,0.9,0.8
						C429,159,428.4,159.4,427.8,159.4z"/>
				</g>
				<g>
					<path fill="#FFFFFF" d="M440.8,160.4c1,0,1.8,0.2,2.2,0.5l-0.5,1c-0.3-0.2-1-0.4-1.9-0.4c-1,0-1.7,0.5-1.7,1
						c-0.1,0.6,0.4,0.9,1.7,1.3c1.6,0.5,2.4,1.2,2.2,2.3c-0.2,1.3-1.6,2.3-3.9,2.3c-1,0-2-0.2-2.6-0.6l0.5-1
						c0.5,0.3,1.3,0.5,2.2,0.6c1.3,0,1.9-0.5,2-1.1c0.1-0.7-0.4-1-1.6-1.4c-1.6-0.5-2.4-1.3-2.2-2.2
						C437.5,161.5,438.8,160.4,440.8,160.4z"/>
				</g>
			</g>
		</g>
		<g>
			<g>
				<g>
					<path fill="#FFFFFF" d="M307.3,128.5c1,0,1.6,0.2,1.8,0.3l-0.4,0.7c-0.4-0.2-0.9-0.3-1.6-0.3c-1.9,0-3.3,1-3.5,2.6
						c-0.2,1.5,0.7,2.6,2.7,2.6c0.6,0,1.3-0.1,1.7-0.3l0.1,0.7c-0.4,0.1-1.2,0.3-2.2,0.3c-2.2,0-3.8-1.1-3.5-3.2
						C303,129.8,304.9,128.5,307.3,128.5z"/>
				</g>
				<g>
					<path fill="#FFFFFF" d="M311.5,128.2l-0.3,2.8l0,0c0.2-0.2,0.5-0.4,0.9-0.5c0.3-0.1,0.7-0.2,1.1-0.3c0.8,0,1.9,0.4,1.7,1.9
						l-0.4,2.7l-1,0l0.4-2.6c0.1-0.7-0.2-1.4-1.2-1.3c-0.7,0-1.3,0.4-1.5,0.8c-0.1,0.1-0.1,0.2-0.1,0.4l-0.4,2.7l-1,0l0.9-6.8
						L311.5,128.2z"/>
				</g>
				<g>
					<polygon fill="#FFFFFF" points="316.2,134.9 316.9,130.4 317.9,130.4 317.2,134.9 					"/>
				</g>
				<g>
					<path fill="#FFFFFF" d="M317.4,129.6c-0.4,0-0.6-0.3-0.5-0.5c0.1-0.3,0.4-0.5,0.7-0.5c0.4,0,0.6,0.3,0.5,0.6
						C318.1,129.4,317.8,129.6,317.4,129.6z"/>
				</g>
				<g>
					<path fill="#FFFFFF" d="M322.5,130.2c0.8,0,1.9,0.4,1.8,1.9l-0.4,2.7l-1,0l0.4-2.6c0.1-0.7-0.2-1.4-1.2-1.3
						c-0.7,0-1.3,0.4-1.5,0.9c-0.1,0.1-0.1,0.2-0.1,0.4l-0.4,2.7l-1,0l0.4-3.3c0.1-0.5,0.1-0.9,0.1-1.2l0.9,0l-0.1,0.8l0,0
						C320.8,130.6,321.5,130.2,322.5,130.2z"/>
				</g>
				<g>
					<path fill="#FFFFFF" d="M330.5,132.4c0,0.2-0.1,0.3-0.1,0.4l-4,0c-0.1,1.1,0.7,1.6,1.8,1.6c0.7,0,1.2-0.1,1.6-0.3l0.1,0.6
						c-0.4,0.1-1,0.3-2,0.3c-1.8,0-2.7-1-2.5-2.3c0.2-1.4,1.4-2.5,3-2.5C330.3,130.2,330.6,131.5,330.5,132.4z M326.5,132.1l3,0
						c0.1-0.5-0.1-1.4-1.3-1.3C327.2,130.8,326.7,131.6,326.5,132.1"/>
				</g>
				<g>
					<path fill="#FFFFFF" d="M333.8,130.2c0.6,0,1.1,0.1,1.3,0.3l-0.4,0.6c-0.2-0.1-0.6-0.3-1.1-0.2c-0.6,0-1,0.3-1.1,0.7
						c-0.1,0.4,0.2,0.6,0.9,0.7c0.9,0.4,1.4,0.7,1.3,1.3c-0.2,0.8-0.9,1.4-2.3,1.3c-0.6,0-1.2-0.1-1.6-0.3l0.4-0.6
						c0.3,0.2,0.8,0.4,1.3,0.3c0.8,0,1.2-0.3,1.2-0.7c0.1-0.4-0.2-0.6-0.9-0.8c-1-0.2-1.4-0.7-1.4-1.3
						C331.7,130.8,332.6,130.2,333.8,130.2z"/>
				</g>
				<g>
					<path fill="#FFFFFF" d="M341.1,132.3c0,0.2-0.1,0.3-0.1,0.4l-4,0c-0.1,1.1,0.7,1.6,1.8,1.6c0.7,0,1.2-0.1,1.6-0.3l0.1,0.6
						c-0.4,0.1-1,0.3-2,0.3c-1.8,0-2.7-1-2.5-2.3c0.2-1.4,1.4-2.5,3-2.5C340.9,130.2,341.2,131.5,341.1,132.3z M337.1,132.2l3,0
						c0.1-0.5-0.1-1.4-1.3-1.3C337.8,130.8,337.3,131.5,337.1,132.2"/>
				</g>
				<g>
					<path fill="#FFFFFF" d="M312.9,139.9c0.9,0,1.6,0.1,1.9,0.3l-0.4,0.6c-0.4-0.2-0.9-0.3-1.7-0.3c-1.9,0-3.4,1-3.6,2.6
						c-0.2,1.6,0.8,2.6,2.7,2.6c0.7,0,1.1-0.1,1.4-0.2l0.3-1.9l-1.6,0l0.1-0.7l2.6,0l-0.4,3c-0.5,0.1-1.4,0.4-2.5,0.3
						c-1.2,0-2.1-0.3-2.9-0.8c-0.6-0.6-1-1.3-0.8-2.4C308.4,141.2,310.3,139.8,312.9,139.9z"/>
				</g>
				<g>
					<polygon fill="#FFFFFF" points="317.8,139.5 316.8,146.3 315.8,146.2 316.7,139.6 					"/>
				</g>
				<g>
					<path fill="#FFFFFF" d="M322.8,145.2c-0.1,0.4-0.1,0.8,0,1.1l-0.9,0l0-0.6l0,0c-0.4,0.3-1.1,0.7-1.9,0.7
						c-1.2,0-1.6-0.6-1.6-1.3c0.1-1.1,1.4-1.7,3.6-1.7l0,0l0-0.1c0.1-0.4,0-1.1-1.2-1c-0.5,0-1.1,0.2-1.6,0.4l-0.1-0.6
						c0.5-0.2,1.2-0.4,2-0.4c1.7,0,2.1,1,1.9,1.9L322.8,145.2z M321.9,144.7l0.1-0.8c-0.1,0-0.1,0-0.2,0c-1.1,0-2.3,0.2-2.3,1
						c-0.1,0.5,0.3,0.8,0.8,0.8c0.7,0,1.3-0.4,1.5-0.8C321.8,144.9,321.8,144.8,321.9,144.7"/>
				</g>
				<g>
					<path fill="#FFFFFF" d="M326.7,141.5c0.6,0,1.1,0.1,1.4,0.3l-0.4,0.6c-0.2-0.1-0.6-0.3-1.1-0.2c-0.6,0-1,0.3-1.1,0.7
						c-0.1,0.4,0.2,0.6,0.9,0.7c0.9,0.4,1.4,0.7,1.3,1.4c-0.2,0.8-0.9,1.4-2.3,1.3c-0.6,0-1.2-0.1-1.5-0.3l0.4-0.6
						c0.3,0.2,0.8,0.4,1.3,0.3c0.8,0,1.2-0.3,1.2-0.7c0.1-0.4-0.2-0.6-0.9-0.8c-1-0.2-1.4-0.7-1.4-1.3
						C324.6,142.1,325.4,141.6,326.7,141.5z"/>
				</g>
				<g>
					<path fill="#FFFFFF" d="M331.3,141.6c0.6,0,1.1,0.1,1.4,0.3l-0.4,0.6c-0.2-0.1-0.6-0.3-1.1-0.2c-0.6,0-1,0.3-1.1,0.7
						c-0.1,0.4,0.2,0.6,0.9,0.7c0.9,0.4,1.4,0.7,1.3,1.4c-0.2,0.8-0.9,1.4-2.3,1.3c-0.6,0-1.2-0.1-1.5-0.3l0.4-0.6
						c0.3,0.2,0.8,0.4,1.3,0.3c0.8,0,1.2-0.3,1.2-0.7c0.1-0.4-0.2-0.6-0.9-0.8c-1-0.2-1.4-0.7-1.4-1.3
						C329.2,142.2,330.1,141.5,331.3,141.6z"/>
				</g>
			</g>
		</g>
		<g>
			<g>
				<g>
					<path fill="#FFFFFF" d="M270.5,200.5c1.2,0.2,2.6,1.1,2.3,2.7c-0.2,0.9-0.7,1.6-1.4,2.2c-1,0.7-2.5,1-4.8,1
						c-1.2,0-2.1-0.1-2.6-0.2l1.4-10.5c0.8-0.1,2-0.2,3.2-0.3c1.7,0,2.8,0.2,3.5,0.8c0.6,0.4,1,1,0.9,1.9
						C273,199.2,272,200.1,270.5,200.5L270.5,200.5z M267.4,205.3c1.8,0,3.5-0.5,3.7-2.1c0.2-1.4-1.3-2-3.1-2l-1.4,0l-0.6,4
						C266.3,205.2,266.8,205.2,267.4,205.3 M267.1,196.7l-0.4,3.4l1.5,0c1.8,0,3-0.8,3.1-1.8c0.1-1.2-1-1.7-2.7-1.8
						C267.8,196.5,267.4,196.7,267.1,196.7"/>
				</g>
				<g>
					<path fill="#FFFFFF" d="M280,198.4c0.2,0,0.3,0,0.5,0.1l-0.1,1.3c-0.2,0-0.4-0.1-0.6-0.1c-1.2,0-2.2,0.7-2.6,1.7
						c-0.1,0.2-0.2,0.4-0.2,0.6l-0.6,4l-1.7,0l0.7-5.2c0.2-0.9,0.2-1.7,0.3-2.4l1.5,0l-0.1,1.5l0.1,0
						C277.7,199,278.8,198.3,280,198.4z"/>
				</g>
				<g>
					<polygon fill="#FFFFFF" points="281.2,206.2 282.2,198.6 283.9,198.6 283,206.1 					"/>
				</g>
				<g>
					<path fill="#FFFFFF" d="M283.2,197.3c-0.6,0-1-0.3-0.9-0.8c0.1-0.5,0.6-0.8,1.2-0.9c0.6,0,1,0.3,0.9,0.8
						C284.4,196.8,283.9,197.3,283.2,197.3z"/>
				</g>
				<g>
					<path fill="#FFFFFF" d="M297,196.3l-0.3,2.2l2.5,0l-0.1,1l-2.5,0l-0.6,4.1c-0.2,0.9,0.1,1.5,1.1,1.4c0.5,0,0.8,0,1-0.1l0,1
						c-0.3,0.1-0.9,0.1-1.6,0.2c-0.8,0-1.4-0.2-1.8-0.6s-0.6-1.1-0.4-2l0.6-4.1l-1.5,0l0.1-1l1.5,0l0.2-1.8L297,196.3z"/>
				</g>
				<g>
					<path fill="#FFFFFF" d="M289.7,198.3c1,0,1.8,0.2,2.2,0.5l-0.5,1c-0.3-0.2-1-0.4-1.9-0.4c-1,0-1.7,0.5-1.7,1.1
						c-0.1,0.6,0.4,0.9,1.7,1.3c1.6,0.5,2.4,1.2,2.2,2.3c-0.2,1.3-1.6,2.3-3.9,2.3c-1,0-2-0.2-2.6-0.6l0.5-1
						c0.5,0.3,1.3,0.5,2.2,0.6c1.3,0,1.9-0.5,2-1.1c0.1-0.7-0.4-1-1.6-1.4c-1.6-0.5-2.4-1.3-2.2-2.2
						C286.3,199.3,287.6,198.4,289.7,198.3z"/>
				</g>
				<g>
					<path fill="#FFFFFF" d="M305.2,198.3c2.7,0,4.4,1.6,4,3.9c-0.3,2.8-3,4.1-5.3,4.1c-2.6,0-4.4-1.5-4-3.9
						C300.2,199.9,302.6,198.3,305.2,198.3z M304.1,205.3c1.7,0,3-1.3,3.3-3c0.1-1.3-0.5-2.9-2.5-3c-2,0-3.1,1.5-3.3,3
						C301.5,204,302.5,205.3,304.1,205.3"/>
				</g>
				<g>
					<polygon fill="#FFFFFF" points="314.2,194.9 312.7,206.1 310.9,206.1 312.4,194.9 					"/>
				</g>
				<g>
					<path fill="#FFFFFF" d="M262.8,217.3c1,0,1.9,0.2,2.3,0.4l-0.5,1c-0.4-0.2-1-0.3-1.9-0.4c-2.2,0-3.5,1.3-3.7,2.9
						c-0.2,1.8,1.1,2.8,3,2.8c1,0,1.7-0.2,2.2-0.4l0.2,1c-0.5,0.2-1.5,0.5-2.8,0.5c-2.9,0-4.6-1.6-4.2-3.9
						C257.5,219,259.7,217.3,262.8,217.3z"/>
				</g>
				<g>
					<path fill="#FFFFFF" d="M253.1,214.4c1.4,0,2.3,0.3,2.8,0.5l-0.6,1.1c-0.4-0.2-1.2-0.5-2.4-0.5c-1.8,0-2.7,0.8-2.7,1.6
						c-0.1,1,0.6,1.5,2.4,2.1c2.1,0.7,3.2,1.5,3,3.1c-0.2,1.6-1.9,3.1-5,3.1c-1.3,0-2.6-0.3-3.3-0.6l0.6-1.1
						c0.7,0.4,1.8,0.7,2.9,0.7c1.8,0,2.9-0.8,3-1.8c0.1-1-0.5-1.6-2.2-2.1c-2-0.6-3.3-1.5-3.1-3
						C248.6,215.6,250.5,214.4,253.1,214.4z"/>
				</g>
				<g>
					<path fill="#FFFFFF" d="M269.5,214l-0.6,4.7l0,0c0.3-0.4,0.8-0.7,1.3-1c0.5-0.2,1.2-0.4,1.8-0.4c1.3,0,3.2,0.6,2.9,3.2
						l-0.7,4.5l-1.7,0l0.6-4.3c0.1-1.2-0.2-2.3-1.9-2.3c-1.1,0-2.1,0.6-2.5,1.4c-0.1,0.2-0.2,0.4-0.2,0.6l-0.6,4.6l-1.7,0l1.5-11.2
						L269.5,214z"/>
				</g>
				<g>
					<path fill="#FFFFFF" d="M293.1,217.3c2.7,0,4.4,1.6,4,3.9c-0.3,2.8-3,4.1-5.3,4.1c-2.6,0-4.4-1.5-4-3.9
						C288.2,218.8,290.4,217.2,293.1,217.3z M292.1,224.2c1.7,0,3-1.3,3.3-3c0.1-1.3-0.5-2.9-2.5-3c-2,0-3.1,1.5-3.3,3
						C289.3,222.9,290.4,224.2,292.1,224.2"/>
				</g>
				<g>
					<path fill="#FFFFFF" d="M282.3,217.3c2.7,0,4.4,1.6,4,3.9c-0.3,2.8-3,4.1-5.3,4.1c-2.6,0-4.4-1.5-4-3.9
						C277.3,218.7,279.6,217.3,282.3,217.3z M281.2,224.2c1.6,0,3-1.3,3.2-3c0.1-1.3-0.5-2.9-2.5-3c-2,0-3.1,1.5-3.3,3
						C278.5,223,279.5,224.2,281.2,224.2"/>
				</g>
				<g>
					<polygon fill="#FFFFFF" points="302,213.9 300.5,225.1 298.8,225.1 300.3,213.9 					"/>
				</g>
				<g>
					<path fill="#FFFFFF" d="M314.4,214.2c3.6,0,5.6,2.2,5.2,5.3c-0.5,3.6-3.5,5.6-6.9,5.6c-3.5,0-5.6-2.2-5.2-5.4
						C308.1,216.5,310.9,214.2,314.4,214.2z M313.1,224.1c2.7,0,4.5-2,4.9-4.5c0.3-2.1-0.8-4.4-3.6-4.3c-2.8,0.1-4.5,2.1-4.9,4.5
						C309.1,222,310.4,224.1,313.1,224.1"/>
				</g>
				<g>
					<path fill="#FFFFFF" d="M326.3,213.7c0.6,0,1.1,0.1,1.4,0.2l-0.3,1c-0.2-0.1-0.6-0.2-1.1-0.1c-1.5,0-1.9,1-2.2,2.2l-0.1,0.4
						l2.3,0l-0.1,1l-2.3,0L323,225l-1.7,0l0.8-6.6l-1.3,0l0.1-1l1.3,0l0.1-0.4c0.1-1.1,0.6-2,1.5-2.7
						C324.5,213.9,325.4,213.6,326.3,213.7z"/>
				</g>
				<g>
					<path fill="#FFFFFF" d="M280.8,234.2l-0.3,2.2l2.5,0l-0.1,1l-2.5,0l-0.6,4.1c-0.2,0.9,0.2,1.5,1.1,1.4c0.5,0,0.8,0,1-0.1l0,1
						c-0.4,0.1-0.9,0.1-1.6,0.2c-0.8,0-1.4-0.2-1.8-0.6s-0.6-1.1-0.4-2l0.6-4.1l-1.5,0l0.1-1l1.5,0l0.2-1.8L280.8,234.2z"/>
				</g>
				<g>
					<path fill="#FFFFFF" d="M276.2,236.2c0.2,0,0.3,0,0.5,0.1l-0.1,1.3c-0.2,0-0.3-0.1-0.6-0.1c-1.2,0-2.2,0.7-2.6,1.7
						c-0.1,0.2-0.2,0.4-0.2,0.6l-0.6,4l-1.7,0l0.7-5.2c0.2-0.9,0.2-1.7,0.3-2.4l1.5,0l-0.1,1.5l0.1,0
						C273.9,236.9,275.1,236.2,276.2,236.2z"/>
				</g>
				<g>
					<path fill="#FFFFFF" d="M265.9,233.4L269,244l-1.8,0l-1-3.4l-4.7,0.1l-1.8,3.3l-1.8,0l5.9-10.6L265.9,233.4z M262.1,239.6l4,0
						l-0.9-3.1c-0.2-0.7-0.3-1.3-0.4-2l0,0c-0.3,0.6-0.6,1.2-0.9,2L262.1,239.6"/>
				</g>
				<g>
					<polygon fill="#FFFFFF" points="283.9,244 284.9,236.4 286.7,236.4 285.6,244 					"/>
				</g>
				<g>
					<path fill="#FFFFFF" d="M285.9,235.1c-0.6,0-1-0.3-0.9-0.8c0.1-0.5,0.6-0.8,1.3-0.9c0.6,0,1,0.3,0.9,0.8
						C287.1,234.6,286.6,235.1,285.9,235.1z"/>
				</g>
				<g>
					<path fill="#FFFFFF" d="M299.7,234.1l-0.3,2.2l2.5,0l-0.1,1l-2.5,0l-0.6,4.1c-0.2,0.9,0.2,1.5,1.1,1.4c0.5,0,0.8,0,1-0.1l0,1
						c-0.4,0.1-0.9,0.1-1.6,0.2c-0.8,0-1.4-0.2-1.8-0.6c-0.4-0.4-0.6-1.1-0.4-2l0.6-4.1l-1.5,0l0.1-1l1.5,0l0.2-1.8L299.7,234.1z"/>
				</g>
				<g>
					<path fill="#FFFFFF" d="M292.4,236.2c1,0,1.8,0.2,2.3,0.5l-0.5,1c-0.3-0.2-1-0.4-1.9-0.4c-1,0-1.7,0.5-1.7,1.1
						c-0.1,0.6,0.4,0.9,1.7,1.3c1.6,0.5,2.4,1.2,2.2,2.3c-0.2,1.3-1.6,2.3-3.9,2.3c-1,0-2-0.2-2.6-0.6l0.5-1
						c0.5,0.3,1.3,0.5,2.2,0.6c1.3,0,1.9-0.5,2-1.1c0.1-0.7-0.4-1-1.6-1.4c-1.6-0.5-2.4-1.3-2.2-2.2
						C289.1,237.2,290.4,236.2,292.4,236.2z"/>
				</g>
				<g>
					<path fill="#FFFFFF" d="M306.8,236.2c1,0,1.8,0.2,2.2,0.5l-0.5,1c-0.3-0.2-1-0.4-1.9-0.4c-1,0-1.7,0.5-1.7,1
						c-0.1,0.6,0.4,0.9,1.7,1.3c1.6,0.5,2.4,1.2,2.2,2.3c-0.2,1.3-1.6,2.3-3.9,2.3c-1,0-2-0.2-2.6-0.6l0.5-1
						c0.5,0.3,1.3,0.5,2.2,0.6c1.3,0,1.9-0.5,2-1.1c0.1-0.7-0.4-1-1.6-1.4c-1.6-0.5-2.4-1.3-2.2-2.2
						C303.4,237.2,304.7,236.2,306.8,236.2z"/>
				</g>
				<g>
					<path fill="#FFFFFF" d="M260.3,261c0.6,0.6,1.3,1.2,1.9,1.9l-2,0c-0.3-0.3-0.6-0.6-1.1-1c-1.3,0.9-2.6,1.2-4,1.2
						c-2.6,0-3.9-1.4-3.7-3c0.2-1.4,1.4-2.5,3-3.1l0,0c-0.6-0.7-0.9-1.5-0.8-2.3c0.1-1.3,1.6-2.6,3.8-2.6c1.6,0,2.9,0.8,2.6,2.3
						c-0.1,1.1-1.1,2-3.2,2.9l0,0c1,1,2.1,2.2,2.9,2.9c0.7-0.7,1.2-1.8,1.7-3.1l1.6,0C262.2,258.8,261.4,260.2,260.3,261z
						 M255.5,262.1c1.1,0,2.2-0.4,2.9-1c-0.7-0.7-2-2-3.3-3.3c-0.8,0.3-1.8,1-2,2.2C252.9,261.1,253.9,262.1,255.5,262.1
						 M257.1,253.1c-1.1,0-1.8,0.7-1.9,1.5c-0.1,0.8,0.3,1.4,0.7,1.9c1.5-0.6,2.3-1.2,2.5-2C258.5,253.8,258.2,253.1,257.1,253.1"/>
				</g>
				<g>
					<path fill="#FFFFFF" d="M273.4,252.1c1.4,0,2.3,0.3,2.8,0.5l-0.6,1.1c-0.4-0.2-1.2-0.5-2.4-0.5c-1.8,0-2.7,0.8-2.7,1.6
						c-0.1,1,0.6,1.5,2.3,2.1c2.1,0.7,3.2,1.5,3,3.1c-0.2,1.6-1.9,3.1-5,3.1c-1.3,0-2.6-0.3-3.3-0.7l0.5-1.1
						c0.7,0.4,1.8,0.7,2.9,0.6c1.8,0,2.9-0.8,3-1.9c0.1-1-0.5-1.6-2.2-2.1c-2.1-0.6-3.3-1.5-3.1-3
						C268.8,253.4,270.8,252.2,273.4,252.1z"/>
				</g>
				<g>
					<polygon fill="#FFFFFF" points="277.7,262.9 278.6,255.3 280.3,255.3 279.4,262.9 					"/>
				</g>
				<g>
					<path fill="#FFFFFF" d="M279.7,254c-0.6,0-1-0.3-0.9-0.8c0.1-0.5,0.6-0.8,1.2-0.9c0.6,0,1,0.3,0.9,0.8
						C280.9,253.6,280.4,254,279.7,254z"/>
				</g>
				<g>
					<path fill="#FFFFFF" d="M295.8,255.3L291,263l-1.7,0l-2.6-7.6l1.8,0l1.3,4.2c0.2,0.7,0.4,1.3,0.5,2l0.1,0
						c0.3-0.6,0.6-1.2,1.1-2l2.5-4.3L295.8,255.3z"/>
				</g>
				<g>
					<polygon fill="#FFFFFF" points="285.5,251.8 284,263 282.3,262.9 283.8,251.7 					"/>
				</g>
				<g>
					<path fill="#FFFFFF" d="M304.7,258.6c-0.1,0.3-0.1,0.5-0.2,0.6l-6.7,0c-0.2,1.9,1.1,2.6,2.9,2.6c1.2,0,2-0.2,2.7-0.4l0.2,1
						c-0.7,0.2-1.7,0.5-3.3,0.5c-2.9,0-4.5-1.6-4.2-3.9c0.3-2.3,2.3-4.1,5-4.1C304.3,255,304.9,257.2,304.7,258.6z M297.9,258.3
						l5.1,0c0.2-0.9-0.1-2.3-2.1-2.3C299.2,256.1,298.2,257.4,297.9,258.3"/>
				</g>
				<g>
					<path fill="#FFFFFF" d="M311.5,255c0.2,0,0.3,0,0.5,0.1l-0.1,1.3c-0.2,0-0.3-0.1-0.6-0.1c-1.2,0-2.2,0.7-2.6,1.7
						c-0.1,0.2-0.2,0.4-0.2,0.6l-0.6,4l-1.7,0l0.7-5.2c0.2-0.9,0.2-1.7,0.3-2.4l1.5,0l-0.1,1.5l0.1,0
						C309.2,255.7,310.4,255,311.5,255z"/>
				</g>
			</g>
		</g>
		<g>
			<g>
				<g>
					<path fill="#FFFFFF" d="M407.4,275.7c1.7,0,3,0.2,3.5,0.5l-0.6,1.2c-0.7-0.3-1.7-0.5-3.1-0.5c-3.5,0-6.1,1.8-6.4,4.8
						c-0.4,2.9,1.6,4.7,5,4.7c1.2,0,2.1-0.1,2.6-0.3l0.5-3.5l-3,0l0.1-1.2l4.8,0l-0.8,5.7c-0.9,0.2-2.6,0.6-4.6,0.7
						c-2.2,0-3.9-0.5-5.3-1.5c-1.2-0.9-1.7-2.5-1.4-4.3C399.2,278.3,402.4,275.7,407.4,275.7z"/>
				</g>
				<g>
					<polygon fill="#FFFFFF" points="416.2,275.2 414.6,287.5 412.7,287.5 414.3,275.2 					"/>
				</g>
				<g>
					<path fill="#FFFFFF" d="M425.4,285.5c-0.1,0.7-0.1,1.4-0.1,2l-1.7,0l-0.1-1.1l-0.1,0c-0.7,0.6-1.8,1.2-3.3,1.3
						c-2.1,0-3.1-1.2-2.8-2.4c0.3-2,2.6-3.1,6.6-3.2l0.1,0l0-0.2c0.1-0.7,0-1.9-2.1-2c-1,0-2,0.2-2.8,0.7l-0.3-1
						c1-0.5,2.3-0.7,3.6-0.8c3.2,0,3.8,1.7,3.5,3.4L425.4,285.5z M423.7,284.6l0.2-1.4c-0.1,0-0.2,0-0.3,0c-2,0-4.2,0.3-4.4,1.9
						c-0.1,1,0.6,1.5,1.6,1.4c1.4,0,2.4-0.7,2.7-1.5C423.6,285,423.7,284.8,423.7,284.6"/>
				</g>
				<g>
					<path fill="#FFFFFF" d="M432.6,278.8c1.1,0,1.9,0.2,2.5,0.5l-0.6,1.1c-0.4-0.2-1.1-0.4-2.1-0.5c-1.1,0-1.8,0.5-1.9,1.1
						c-0.1,0.7,0.5,1,1.8,1.4c1.7,0.5,2.6,1.3,2.4,2.6c-0.2,1.5-1.8,2.5-4.3,2.5c-1.2,0-2.2-0.2-2.8-0.5l0.6-1.1
						c0.5,0.3,1.4,0.6,2.4,0.6c1.4,0,2.1-0.5,2.2-1.2c0.1-0.7-0.4-1.1-1.8-1.5c-1.8-0.5-2.6-1.4-2.4-2.4
						C428.8,280.1,430.4,278.9,432.6,278.8z"/>
				</g>
				<g>
					<path fill="#FFFFFF" d="M441.2,278.9c1.1,0,1.9,0.2,2.5,0.5l-0.6,1.1c-0.4-0.2-1.1-0.4-2.1-0.5c-1.1,0-1.8,0.5-1.9,1.1
						c-0.1,0.7,0.5,1,1.8,1.4c1.7,0.5,2.6,1.3,2.4,2.6c-0.2,1.5-1.8,2.5-4.3,2.5c-1.2,0-2.2-0.2-2.8-0.5l0.6-1.1
						c0.5,0.3,1.4,0.6,2.4,0.6c1.4,0,2.1-0.5,2.2-1.2c0.1-0.7-0.4-1.1-1.8-1.5c-1.8-0.5-2.6-1.4-2.4-2.4
						C437.4,280,438.9,278.9,441.2,278.9z"/>
				</g>
			</g>
		</g>
		<g>
			<g>
				<g>
					<path fill="#FFFFFF" d="M258.7,308.4c0.7,0.6,1.1,1.4,0.9,2.5c-0.1,1-0.6,1.9-1.5,2.5c-1.2,0.9-2.8,1.3-4.6,1.3
						c-0.6,0-1.1,0-1.5-0.1l-0.6,4.6l-1.9,0l1.6-11.6c0.9-0.1,2.1-0.2,3.7-0.2C256.6,307.5,257.9,307.8,258.7,308.4z M253.8,313.5
						c2.3,0,3.8-0.9,4-2.5c0.2-1.5-1-2.2-3.1-2.3c-0.8,0-1.5,0.1-1.8,0.1l-0.7,4.5C252.6,313.4,253.2,313.4,253.8,313.5"/>
				</g>
				<g>
					<polygon fill="#FFFFFF" points="264.5,306.9 262.9,319.2 261,319.2 262.6,306.9 					"/>
				</g>
				<g>
					<path fill="#FFFFFF" d="M273.7,317.2c-0.1,0.7-0.1,1.4-0.1,2l-1.7,0l-0.1-1.1l-0.1,0c-0.7,0.6-1.8,1.2-3.3,1.3
						c-2.1,0-3.1-1.2-2.9-2.4c0.3-2,2.6-3.1,6.6-3.2l0.1,0l0-0.2c0.1-0.7,0-1.9-2.1-2c-1,0-2,0.2-2.8,0.7l-0.3-1
						c1-0.5,2.3-0.7,3.6-0.8c3.2,0,3.7,1.7,3.5,3.4L273.7,317.2z M272.1,316.4l0.2-1.4c-0.1,0-0.2,0-0.3,0c-2,0-4.2,0.3-4.4,1.9
						c-0.1,1,0.6,1.5,1.6,1.4c1.4,0,2.4-0.7,2.7-1.5C271.9,316.7,272,316.5,272.1,316.4"/>
				</g>
				<g>
					<path fill="#FFFFFF" d="M295.4,314.5c-0.1,0.3-0.1,0.5-0.2,0.7l-7.4,0c-0.2,2,1.3,2.9,3.2,2.9c1.4,0,2.2-0.2,3-0.5l0.2,1.1
						c-0.7,0.2-1.9,0.5-3.6,0.5c-3.2,0-4.9-1.7-4.6-4.3c0.4-2.5,2.5-4.5,5.6-4.5C295,310.5,295.6,313,295.4,314.5z M288.1,314.1
						l5.6,0c0.1-1-0.1-2.5-2.3-2.5C289.3,311.6,288.3,313.1,288.1,314.1"/>
				</g>
				<g>
					<path fill="#FFFFFF" d="M282.6,310.6c1.1,0,2.1,0.2,2.6,0.5l-0.6,1.1c-0.4-0.2-1.1-0.4-2.1-0.4c-2.4,0-3.9,1.4-4.1,3.1
						c-0.3,1.9,1.2,3.1,3.2,3.1c1.1,0,1.8-0.2,2.4-0.4l0.2,1.2c-0.5,0.2-1.7,0.5-3.1,0.5c-3.2,0-5-1.7-4.6-4.3
						C276.7,312.5,279.2,310.6,282.6,310.6z"/>
				</g>
				<g>
					<path fill="#FFFFFF" d="M301.5,310.6c1.1,0,1.9,0.2,2.5,0.5l-0.6,1.1c-0.4-0.2-1.1-0.4-2.1-0.5c-1.1,0-1.8,0.5-1.9,1.1
						c-0.1,0.7,0.5,1,1.8,1.4c1.7,0.5,2.6,1.3,2.4,2.6c-0.2,1.5-1.8,2.5-4.3,2.5c-1.2,0-2.2-0.2-2.8-0.5l0.6-1.1
						c0.5,0.3,1.4,0.6,2.4,0.6c1.4,0,2.1-0.5,2.2-1.2c0.1-0.7-0.4-1.1-1.8-1.5c-1.8-0.5-2.6-1.4-2.4-2.4
						C297.7,311.7,299.2,310.6,301.5,310.6z"/>
				</g>
				<g>
					<path fill="#FFFFFF" d="M284.8,327.5c0.7,0,1.2,0.1,1.6,0.2l-0.4,1.2c-0.3-0.1-0.6-0.2-1.2-0.2c-1.6,0-2.1,1.1-2.4,2.4
						l-0.1,0.5l2.5,0l-0.1,1.2l-2.5,0l-1,7.3l-1.9,0l1-7.3l-1.5,0l0.1-1.2l1.5,0l0.1-0.4c0.1-1.2,0.7-2.2,1.6-2.9
						C282.9,327.7,283.9,327.5,284.8,327.5z"/>
				</g>
				<g>
					<path fill="#FFFFFF" d="M271.7,328.1c4,0,6.2,2.5,5.7,5.9c-0.6,4-3.9,6.1-7.6,6.1c-3.9,0-6.2-2.4-5.7-5.9
						C264.6,330.6,267.8,328.1,271.7,328.1z M270.2,338.9c3,0,5-2.2,5.3-4.9c0.3-2.3-0.9-4.8-4.1-4.8c-3.1,0-5,2.3-5.3,4.9
						C265.9,336.8,267.2,339,270.2,338.9"/>
				</g>
				<g>
					<path fill="#FFFFFF" d="M255,350.6c1.2,0.9,1.7,2.3,1.5,4.2c-0.3,1.9-1.2,3.5-2.8,4.6c-1.5,1.1-3.8,1.7-6.7,1.7
						c-1.3,0-2.5-0.1-3.4-0.1l1.6-11.5c1.2-0.2,2.6-0.2,4-0.2C251.9,349,253.9,349.5,255,350.6z M247.6,359.8c4,0,6.4-1.9,6.8-5
						c0.4-2.7-1.3-4.5-5.4-4.5c-1,0-1.7,0.1-2.2,0.1l-1.2,9.2C246.2,359.8,246.9,359.7,247.6,359.8"/>
				</g>
				<g>
					<path fill="#FFFFFF" d="M273.2,352.2c1.1,0,1.9,0.2,2.5,0.6l-0.6,1.1c-0.4-0.2-1.1-0.4-2.1-0.5c-1.1,0-1.8,0.5-1.9,1.1
						c-0.1,0.7,0.5,1,1.8,1.4c1.7,0.6,2.6,1.3,2.4,2.6c-0.2,1.5-1.8,2.5-4.3,2.5c-1.1,0-2.2-0.2-2.8-0.5l0.6-1.1
						c0.5,0.3,1.4,0.6,2.4,0.6c1.4,0,2.1-0.5,2.2-1.2c0.1-0.7-0.4-1.1-1.8-1.5c-1.8-0.5-2.6-1.4-2.4-2.4
						C269.5,353.4,270.9,352.2,273.2,352.2z"/>
				</g>
				<g>
					<path fill="#FFFFFF" d="M267.1,356.2c-0.1,0.3-0.1,0.5-0.2,0.7l-7.4,0c-0.2,2,1.3,2.9,3.2,2.9c1.4,0,2.2-0.2,3-0.5l0.2,1.1
						c-0.7,0.2-1.9,0.5-3.6,0.5c-3.2,0-4.9-1.7-4.6-4.3c0.4-2.5,2.5-4.5,5.6-4.5C266.7,352.2,267.4,354.6,267.1,356.2z M259.8,355.8
						l5.6,0c0.1-1-0.1-2.5-2.3-2.5C261.1,353.3,260.1,354.8,259.8,355.8"/>
				</g>
				<g>
					<polygon fill="#FFFFFF" points="277.5,360.8 278.6,352.4 280.5,352.4 279.4,360.7 					"/>
				</g>
				<g>
					<path fill="#FFFFFF" d="M279.7,351c-0.7,0-1.1-0.4-1.1-0.9c0.1-0.5,0.6-0.9,1.3-1c0.7,0,1.1,0.4,1.1,0.9
						C281,350.5,280.5,351,279.7,351z"/>
				</g>
				<g>
					<path fill="#FFFFFF" d="M298.8,356.1c-0.1,0.3-0.1,0.5-0.2,0.7l-7.4,0c-0.2,2,1.3,2.9,3.2,2.9c1.4,0,2.2-0.2,3-0.5l0.2,1.1
						c-0.7,0.2-1.9,0.5-3.6,0.5c-3.2,0-4.9-1.7-4.6-4.3c0.4-2.5,2.5-4.5,5.6-4.5C298.4,352.2,298.9,354.6,298.8,356.1z M291.4,355.8
						l5.6,0c0.1-1-0.1-2.5-2.3-2.5C292.7,353.3,291.7,354.7,291.4,355.8"/>
				</g>
				<g>
					<path fill="#FFFFFF" d="M288.4,352.1c0.2,0,0.4,0,0.5,0.1l-0.2,1.4c-0.2,0-0.4-0.1-0.6-0.1c-1.3,0-2.4,0.8-2.8,2
						c-0.1,0.2-0.2,0.4-0.2,0.7l-0.6,4.4l-1.9,0l0.8-5.8c0.1-1,0.2-1.8,0.3-2.6l1.7,0l-0.1,1.6l0.1,0
						C285.8,352.9,287.1,352.2,288.4,352.1z"/>
				</g>
			</g>
		</g>
		<g>
			<g>
				<g>
					<path fill="#FFFFFF" d="M360.7,345.6c1.5,0,2.5,0.3,3.1,0.5l-0.7,1.2c-0.4-0.2-1.3-0.5-2.7-0.6c-2,0-2.9,1-3,1.8
						c-0.1,1.1,0.7,1.7,2.6,2.3c2.3,0.8,3.5,1.7,3.3,3.4c-0.2,1.8-2.1,3.4-5.5,3.4c-1.4,0-2.9-0.3-3.6-0.7l0.6-1.2
						c0.8,0.5,1.9,0.8,3.2,0.7c1.9,0,3.2-0.8,3.3-2c0.1-1.1-0.6-1.7-2.4-2.4c-2.3-0.7-3.6-1.7-3.4-3.3
						C355.8,347,357.8,345.5,360.7,345.6z"/>
				</g>
				<g>
					<path fill="#FFFFFF" d="M371.4,348.9c1.1,0,2.1,0.2,2.6,0.5l-0.5,1.1c-0.4-0.2-1.1-0.4-2.1-0.4c-2.4,0-3.9,1.4-4.1,3.1
						c-0.3,1.9,1.2,3.1,3.2,3.1c1.1,0,1.8-0.2,2.4-0.4l0.2,1.1c-0.5,0.2-1.7,0.5-3.1,0.5c-3.2,0-5-1.7-4.6-4.3
						C365.6,350.7,368,348.9,371.4,348.9z"/>
				</g>
				<g>
					<path fill="#FFFFFF" d="M385,349l-0.8,6.2c-0.2,0.9-0.2,1.6-0.2,2.3l-1.7,0l0.1-1.4l0,0c-0.6,0.6-1.8,1.6-3.7,1.6
						c-1.6,0-3.5-0.7-3.1-3.6l0.6-4.9l1.9,0l-0.6,4.6c-0.2,1.6,0.2,2.7,2,2.7c1.3,0,2.3-0.7,2.7-1.4c0.1-0.2,0.3-0.5,0.3-0.8
						l0.7-5.1L385,349z"/>
				</g>
				<g>
					<polygon fill="#FFFFFF" points="390.6,345 389,357.4 387.1,357.4 388.7,345 					"/>
				</g>
				<g>
					<path fill="#FFFFFF" d="M398.8,348.8c2.5,0,4.2,1.7,3.8,4.3c-0.4,3-2.9,4.5-5.4,4.5c-1.4,0-2.5-0.5-3.1-1.3l0,0l-0.7,4.5
						l-1.9,0l1.2-9.1c0.1-1.1,0.2-1.9,0.3-2.7l1.7,0l-0.1,1.4l0,0C395.8,349.4,397.1,348.8,398.8,348.8z M397.1,356.3
						c2,0,3.3-1.3,3.6-3.2c0.2-1.7-0.7-3.2-2.7-3.2c-1.3,0-2.6,0.7-3.1,1.9c-0.1,0.2-0.2,0.4-0.2,0.6l-0.2,1.4c0,0.2,0,0.4,0,0.6
						C394.7,355.6,395.7,356.4,397.1,356.3"/>
				</g>
				<g>
					<path fill="#FFFFFF" d="M408.2,346.5l-0.4,2.4l2.7,0l-0.1,1.2l-2.7,0l-0.6,4.5c-0.1,1,0.2,1.6,1.2,1.6c0.5,0,0.9,0,1.1-0.1
						l0,1.1c-0.4,0.1-1,0.3-1.7,0.2c-0.9,0-1.6-0.2-1.9-0.6c-0.5-0.5-0.6-1.2-0.4-2.2l0.7-4.5l-1.6,0l0.1-1.2l1.6,0l0.3-2
						L408.2,346.5z"/>
				</g>
				<g>
					<path fill="#FFFFFF" d="M421.6,348.9l-0.8,6.2c-0.2,0.9-0.2,1.6-0.2,2.3l-1.7,0l0.1-1.4l0,0c-0.6,0.6-1.8,1.6-3.7,1.6
						c-1.6,0-3.5-0.7-3.1-3.6l0.6-4.9l1.9,0l-0.6,4.6c-0.2,1.6,0.2,2.7,2,2.7c1.3,0,2.3-0.7,2.7-1.4c0.2-0.2,0.3-0.5,0.3-0.8
						l0.7-5.1L421.6,348.9z"/>
				</g>
				<g>
					<path fill="#FFFFFF" d="M429.4,348.7c0.2,0,0.4,0,0.5,0.1l-0.2,1.4c-0.2,0-0.4-0.1-0.6-0.1c-1.3,0-2.4,0.8-2.8,2
						c-0.1,0.2-0.2,0.4-0.2,0.7l-0.6,4.4l-1.9,0l0.8-5.8c0.1-1,0.2-1.8,0.3-2.6l1.7,0l-0.1,1.6l0.1,0
						C426.9,349.4,428.1,348.7,429.4,348.7z"/>
				</g>
				<g>
					<path fill="#FFFFFF" d="M439.8,352.7c-0.1,0.3-0.2,0.6-0.2,0.7l-7.4,0c-0.2,2,1.3,2.9,3.2,2.9c1.4,0,2.2-0.2,3-0.5l0.2,1.1
						c-0.7,0.2-1.9,0.5-3.6,0.5c-3.2,0-4.9-1.7-4.6-4.3c0.4-2.5,2.5-4.5,5.6-4.5C439.4,348.7,440,351,439.8,352.7z M432.5,352.3
						l5.6,0c0.1-1-0.1-2.5-2.3-2.5C433.7,349.8,432.7,351.2,432.5,352.3"/>
				</g>
			</g>
		</g>
		<g>
			<g>
				<g>
					<polygon fill="#FFFFFF" points="500,316.5 499.8,317.8 493.6,317.9 493,321.9 498.8,321.9 498.7,323.2 492.9,323.2 
						492.2,328.8 490.2,328.8 491.8,316.6 					"/>
				</g>
				<g>
					<path fill="#FFFFFF" d="M518,323.8c-0.1,0.3-0.2,0.6-0.2,0.7l-7.7,0c-0.3,2.1,1.4,3,3.4,3c1.4,0,2.3-0.2,3.1-0.5l0.2,1.2
						c-0.7,0.2-2,0.5-3.7,0.6c-3.4,0-5.1-1.7-4.8-4.4c0.4-2.6,2.5-4.7,5.8-4.7C517.6,319.8,518.3,322.2,518,323.8z M510.3,323.5
						l5.8,0c0.1-1-0.1-2.6-2.4-2.6C511.8,320.9,510.7,322.3,510.3,323.5"/>
				</g>
				<g>
					<path fill="#FFFFFF" d="M507.2,319.7c0.2,0,0.4,0,0.6,0.1l-0.2,1.5c-0.2,0-0.4-0.1-0.7-0.1c-1.4,0-2.6,0.8-3,2.1
						c-0.1,0.2-0.2,0.5-0.2,0.7l-0.6,4.6l-2,0l0.8-6.1c0.1-1,0.2-1.9,0.3-2.7l1.7,0l-0.2,1.7l0.1,0
						C504.5,320.5,505.8,319.8,507.2,319.7z"/>
				</g>
				<g>
					<path fill="#FFFFFF" d="M526.5,319.8c1.5,0,3.7,0.7,3.4,3.7l-0.7,5.2l-2,0l0.6-5c0.2-1.4-0.3-2.6-2.1-2.6
						c-1.3,0-2.5,0.7-2.9,1.7c-0.1,0.2-0.2,0.5-0.3,0.7l-0.7,5.2l-2,0l0.9-6.4c0.2-0.9,0.2-1.6,0.2-2.4l1.8,0l-0.1,1.4l0.1,0
						C523.4,320.5,524.7,319.8,526.5,319.8z"/>
				</g>
				<g>
					<path fill="#FFFFFF" d="M538.8,319.7c1.2,0,2.2,0.2,2.7,0.5l-0.6,1.2c-0.4-0.2-1.1-0.4-2.2-0.4c-2.5,0-4,1.5-4.3,3.3
						c-0.3,2,1.2,3.2,3.4,3.2c1.1,0,1.9-0.2,2.5-0.4l0.2,1.2c-0.6,0.2-1.8,0.5-3.2,0.5c-3.3,0-5.2-1.8-4.9-4.4
						C532.6,321.6,535.1,319.7,538.8,319.7z"/>
				</g>
				<g>
					<path fill="#FFFFFF" d="M546.4,315.8l-0.7,5.4l0,0c0.4-0.4,1-0.9,1.5-1.1c0.6-0.2,1.4-0.5,2.1-0.4c1.5,0,3.7,0.7,3.3,3.7
						l-0.7,5.2l-2,0l0.6-5c0.2-1.4-0.3-2.6-2.2-2.6c-1.3,0-2.4,0.7-2.9,1.6c-0.2,0.2-0.2,0.4-0.3,0.7l-0.7,5.2l-2,0l1.7-12.9
						L546.4,315.8z"/>
				</g>
				<g>
					<path fill="#FFFFFF" d="M530.5,339.2l-0.4,2.5l2.9-0.1l-0.1,1.2l-2.9,0.1l-0.6,4.7c-0.1,1.1,0.2,1.7,1.3,1.7
						c0.5,0,0.9,0,1.2-0.2l0,1.2c-0.4,0.1-1,0.3-1.8,0.2c-0.9,0-1.6-0.2-2-0.7c-0.5-0.5-0.6-1.3-0.4-2.3l0.6-4.7l-1.7,0l0.1-1.2
						l1.7,0l0.3-2.1L530.5,339.2z"/>
				</g>
				<g>
					<path fill="#FFFFFF" d="M525.2,341.5c0.2,0,0.4,0,0.6,0.1l-0.2,1.5c-0.2,0-0.4-0.1-0.7-0.1c-1.4,0-2.6,0.8-2.9,2.1
						c-0.1,0.2-0.2,0.5-0.2,0.7l-0.6,4.6l-2,0l0.8-6.1c0.1-1,0.2-1.9,0.3-2.7l1.7,0l-0.2,1.7l0.1,0
						C522.7,342.2,523.9,341.4,525.2,341.5z"/>
				</g>
				<g>
					<path fill="#FFFFFF" d="M513.4,338.2l3.6,12.2l-2.1,0l-1.1-3.8l-5.4,0l-2.1,3.8l-2,0l6.8-12.2L513.4,338.2z M509,345.4l4.6-0.1
						l-1-3.6c-0.2-0.8-0.4-1.5-0.5-2.2l0,0c-0.4,0.7-0.7,1.4-1.1,2.2L509,345.4"/>
				</g>
			</g>
		</g>
		<g>
			<g>
				<g>
					<path fill="#FFFFFF" d="M253.7,394.3l-0.6,4.7l0,0c0.3-0.4,0.8-0.7,1.3-1c0.6-0.2,1.2-0.4,1.8-0.4c1.3,0,3.2,0.6,2.9,3.2
						l-0.7,4.5l-1.7,0l0.6-4.3c0.1-1.2-0.2-2.3-1.9-2.3c-1.1,0-2.1,0.6-2.5,1.4c-0.1,0.2-0.2,0.4-0.2,0.6l-0.6,4.6l-1.7,0l1.5-11.2
						L253.7,394.3z"/>
				</g>
				<g>
					<path fill="#FFFFFF" d="M245.4,394.9l3.1,10.6l-1.8,0l-1-3.4l-4.7,0.1l-1.8,3.3l-1.8,0l5.9-10.6L245.4,394.9z M241.6,401.1l4,0
						l-0.9-3.1c-0.2-0.7-0.3-1.3-0.4-2l0,0c-0.3,0.6-0.6,1.2-0.9,2L241.6,401.1"/>
				</g>
				<g>
					<path fill="#FFFFFF" d="M278.2,403.6c-0.1,0.7-0.1,1.3-0.1,1.8l-1.6,0l-0.1-1l-0.1,0c-0.6,0.6-1.7,1.1-3,1.2
						c-1.9,0-2.8-1.1-2.6-2.2c0.2-1.8,2.3-2.8,6.1-2.8l0.1,0l0-0.2c0.1-0.6,0-1.8-1.9-1.8c-0.9,0-1.8,0.2-2.6,0.5l-0.2-0.9
						c0.9-0.4,2-0.7,3.3-0.7c2.9,0,3.4,1.6,3.2,3.1L278.2,403.6z M276.6,402.9l0.1-1.3c-0.1,0-0.2,0-0.3,0c-1.8,0-3.8,0.3-4,1.7
						c-0.2,0.9,0.6,1.4,1.5,1.3c1.2,0,2.1-0.6,2.4-1.2C276.5,403.2,276.6,403.1,276.6,402.9"/>
				</g>
				<g>
					<path fill="#FFFFFF" d="M269.6,401.2c-0.1,0.3-0.1,0.5-0.2,0.6l-6.7,0c-0.2,1.9,1.1,2.6,2.9,2.6c1.2,0,2-0.2,2.7-0.3l0.2,1
						c-0.7,0.2-1.7,0.5-3.3,0.5c-2.9,0-4.5-1.6-4.2-3.9c0.3-2.3,2.3-4.1,5-4.1C269.3,397.7,269.8,399.8,269.6,401.2z M263,400.9
						l5.1,0c0.2-0.9-0.1-2.3-2.1-2.3C264.2,398.6,263.2,400,263,400.9"/>
				</g>
				<g>
					<path fill="#FFFFFF" d="M289.3,403.5c-0.1,0.7-0.2,1.4-0.2,2l-1.5,0l0.1-1.3l0,0c-0.7,0.8-1.9,1.5-3.4,1.5
						c-2.3,0-3.9-1.6-3.5-3.9c0.3-2.5,2.5-4.1,4.8-4.1c1.5,0,2.3,0.6,2.7,1.2l0,0l0.7-4.5l1.7,0L289.3,403.5z M287.7,402.3l0.1-1.3
						c0-0.2,0.1-0.4,0-0.6c-0.1-0.9-1-1.6-2.3-1.6c-1.8,0-3,1.3-3.2,3c-0.2,1.5,0.6,2.8,2.5,2.8c1.2,0,2.3-0.6,2.8-1.7
						C287.6,402.7,287.6,402.5,287.7,402.3"/>
				</g>
				<g>
					<path fill="#FFFFFF" d="M254.2,413.1c0.6,0,1.1,0.1,1.4,0.2l-0.3,1c-0.2-0.1-0.6-0.2-1.1-0.1c-1.5,0-1.9,1-2.2,2.2l-0.1,0.4
						l2.3,0l-0.1,1l-2.3,0l-0.8,6.6l-1.7,0l0.8-6.6l-1.3,0l0.1-1l1.3,0l0.1-0.4c0.1-1.1,0.6-2,1.5-2.7
						C252.5,413.3,253.4,413,254.2,413.1z"/>
				</g>
				<g>
					<path fill="#FFFFFF" d="M242.4,413.6c3.6,0,5.6,2.2,5.2,5.3c-0.5,3.6-3.5,5.6-6.9,5.6c-3.5,0-5.6-2.2-5.2-5.4
						C236,415.9,238.8,413.6,242.4,413.6z M241,423.5c2.7,0,4.5-2,4.9-4.5c0.3-2.1-0.8-4.4-3.6-4.3c-2.8,0.1-4.5,2.1-4.9,4.5
						C237.1,421.5,238.3,423.5,241,423.5"/>
				</g>
				<g>
					<polygon fill="#FFFFFF" points="268.8,413.8 268.7,414.9 264.7,414.9 263.4,424.4 261.7,424.4 262.9,414.9 258.8,415 
						259,413.7 					"/>
				</g>
				<g>
					<path fill="#FFFFFF" d="M288.1,420.2c-0.1,0.3-0.1,0.5-0.2,0.6l-6.7,0c-0.2,1.9,1.1,2.6,2.9,2.6c1.2,0,2-0.2,2.7-0.4l0.2,1
						c-0.7,0.2-1.7,0.5-3.3,0.5c-2.9,0-4.5-1.6-4.2-3.9c0.3-2.3,2.3-4.1,5-4.1C287.7,416.6,288.2,418.8,288.1,420.2z M281.3,419.8
						l5.1,0c0.2-0.9-0.1-2.3-2.1-2.3C282.5,417.6,281.6,418.8,281.3,419.8"/>
				</g>
				<g>
					<path fill="#FFFFFF" d="M272.1,413.2l-0.6,4.7l0,0c0.3-0.4,0.8-0.7,1.3-1c0.6-0.2,1.2-0.4,1.8-0.4c1.3,0,3.2,0.6,2.9,3.2
						l-0.7,4.5l-1.7,0l0.6-4.3c0.1-1.2-0.2-2.3-1.9-2.3c-1.1,0-2.1,0.6-2.5,1.4c-0.1,0.2-0.2,0.4-0.2,0.6l-0.6,4.6l-1.7,0l1.5-11.2
						L272.1,413.2z"/>
				</g>
				<g>
					<path fill="#FFFFFF" d="M243.7,432.6c1.7,0,2.6,0.3,3.1,0.4l-0.5,1.1c-0.6-0.3-1.5-0.4-2.6-0.5c-3.1,0-5.4,1.6-5.8,4.4
						c-0.4,2.6,1.3,4.2,4.5,4.3c1,0,2.1-0.2,2.9-0.5l0.2,1.1c-0.7,0.2-2,0.5-3.6,0.5c-3.7,0-6.3-1.9-5.8-5.4
						C236.5,434.8,239.6,432.5,243.7,432.6z"/>
				</g>
				<g>
					<path fill="#FFFFFF" d="M256.5,435.7l-0.7,5.5c-0.1,0.8-0.2,1.5-0.2,2.1l-1.5,0l0-1.2l0,0c-0.6,0.6-1.6,1.4-3.3,1.4
						c-1.5,0-3.2-0.6-2.9-3.3l0.6-4.4l1.7,0l-0.6,4.2c-0.2,1.4,0.2,2.4,1.8,2.4c1.2,0,2.1-0.6,2.4-1.2c0.1-0.2,0.2-0.4,0.3-0.7
						l0.6-4.6L256.5,435.7z"/>
				</g>
				<g>
					<path fill="#FFFFFF" d="M282.5,439.1c-0.1,0.3-0.1,0.5-0.2,0.6l-6.7,0c-0.2,1.9,1.1,2.6,2.9,2.6c1.2,0,2-0.2,2.7-0.4l0.2,1
						c-0.7,0.2-1.7,0.5-3.3,0.5c-2.9,0-4.5-1.6-4.2-3.9c0.3-2.3,2.3-4.1,5-4.2C282.2,435.5,282.7,437.7,282.5,439.1z M275.9,438.8
						l5.1,0c0.2-0.9-0.1-2.3-2.1-2.3C277.1,436.5,276.1,437.7,275.9,438.8"/>
				</g>
				<g>
					<path fill="#FFFFFF" d="M273.6,435.7l-4.8,7.7l-1.7,0l-2.6-7.7l1.8,0l1.3,4.2c0.2,0.7,0.4,1.3,0.5,2l0.1,0
						c0.3-0.6,0.6-1.2,1.1-2l2.5-4.3L273.6,435.7z"/>
				</g>
				<g>
					<path fill="#FFFFFF" d="M263.6,435.5c0.2,0,0.3,0,0.5,0.1l-0.1,1.3c-0.2,0-0.3-0.1-0.6-0.1c-1.2,0-2.2,0.7-2.6,1.7
						c-0.1,0.2-0.2,0.4-0.2,0.6l-0.6,4l-1.7,0l0.7-5.2c0.2-0.9,0.2-1.7,0.3-2.4l1.5,0l-0.1,1.5l0.1,0
						C261.3,436.2,262.4,435.5,263.6,435.5z"/>
				</g>
				<g>
					<polygon fill="#FFFFFF" points="211.8,459.4 210.8,467.1 209.5,467.1 210.5,460.4 210.5,460.4 208.7,461.1 208.5,460.3 
						210.7,459.4 					"/>
				</g>
				<g>
					<path fill="#FFFFFF" d="M218.2,459.2c1.9,0,2.7,0.9,2.5,1.9c-0.1,0.8-0.8,1.4-2,1.8l0,0c1.1,0.2,2.1,0.9,1.9,2
						c-0.1,1.2-1.5,2.3-3.8,2.3c-1.1,0-2-0.3-2.4-0.5l0.5-0.8c0.3,0.2,1.1,0.4,2,0.5c1.7,0,2.3-0.8,2.3-1.5c0.1-1.1-1-1.5-2.3-1.6
						l-0.7,0l0.1-0.8l0.7,0c0.9,0,2.2-0.4,2.3-1.3c0.1-0.6-0.4-1.2-1.6-1.1c-0.8,0-1.6,0.3-2,0.5l-0.2-0.8
						C216.1,459.6,217.2,459.2,218.2,459.2z"/>
				</g>
				<g>
					<path fill="#FFFFFF" d="M223.1,465.7c0.5,0,0.8,0.4,0.7,0.8c-0.1,0.4-0.5,0.7-1,0.8s-0.8-0.4-0.7-0.8
						C222.2,466,222.6,465.7,223.1,465.7z"/>
				</g>
				<g>
					<polygon fill="#FFFFFF" points="230,459.4 229.1,467.1 227.7,467 228.7,460.3 228.7,460.3 226.9,461.1 226.8,460.3 
						228.9,459.4 					"/>
				</g>
				<g>
					<path fill="#FFFFFF" d="M236.5,459.2c2.1,0,2.8,1.2,2.6,2.3c-0.2,1.4-1.7,2.6-3.9,4.1l-0.9,0.5l0,0l4.3,0l-0.2,0.9l-6.1,0
						l0.1-0.6l1.2-0.8c2.7-1.9,4-2.8,4.1-4c0.1-0.8-0.3-1.5-1.7-1.5c-0.9,0-1.7,0.4-2.2,0.6l-0.3-0.8
						C234.4,459.6,235.4,459.2,236.5,459.2z"/>
				</g>
				<g>
					<path fill="#FFFFFF" d="M241.3,465.7c0.5,0,0.8,0.4,0.7,0.8c-0.1,0.4-0.5,0.7-1,0.8s-0.8-0.4-0.7-0.8
						C240.4,465.9,240.8,465.6,241.3,465.7z"/>
				</g>
				<g>
					<polygon fill="#FFFFFF" points="248.3,459.3 247.3,467 246,467 246.9,460.3 246.9,460.3 245.1,461 244.9,460.2 247.2,459.4 
											"/>
				</g>
				<g>
					<path fill="#FFFFFF" d="M256.4,464.1l1.3,0l-0.2,0.8l-1.3,0L256,467l-1.2,0l0.3-2.1l-4.5,0l0.1-0.7l4.9-4.9l1.4,0L256.4,464.1z
						 M255.5,461.5c0.1-0.4,0.2-0.8,0.2-1.2l0,0c-0.4,0.4-0.7,0.7-0.9,1.2l-2.7,2.6l0,0l3.1,0L255.5,461.5"/>
				</g>
				<g>
					<polygon fill="#FFFFFF" points="265.4,463.4 265.2,464.2 261.6,464.2 261.7,463.4 					"/>
				</g>
				<g>
					<polygon fill="#FFFFFF" points="274.2,459.3 273.2,466.9 271.9,466.9 272.8,460.3 272.8,460.3 271.1,461 270.9,460.2 
						273.1,459.2 					"/>
				</g>
				<g>
					<path fill="#FFFFFF" d="M277.8,465.6c0.5,0,0.8,0.4,0.7,0.8c-0.1,0.4-0.5,0.7-1,0.8c-0.5,0-0.8-0.4-0.7-0.8
						C277,465.8,277.3,465.5,277.8,465.6z"/>
				</g>
				<g>
					<path fill="#FFFFFF" d="M283.6,459.1c1.9,0,2.7,0.9,2.5,1.9c-0.1,0.8-0.8,1.4-2,1.8l0,0c1.1,0.2,2.1,0.9,1.9,2
						c-0.1,1.2-1.5,2.3-3.8,2.3c-1.1,0-2-0.3-2.4-0.5l0.5-0.8c0.3,0.2,1.1,0.4,2,0.5c1.7,0,2.3-0.8,2.3-1.5c0.1-1.1-1-1.5-2.3-1.6
						l-0.7,0l0.1-0.8l0.7,0c0.9,0,2.2-0.4,2.3-1.3c0.1-0.6-0.4-1.2-1.6-1.1c-0.8,0-1.6,0.3-2,0.5l-0.2-0.8
						C281.6,459.4,282.6,459.1,283.6,459.1z"/>
				</g>
				<g>
					<path fill="#FFFFFF" d="M288.6,465.5c0.5,0,0.8,0.4,0.7,0.8c-0.1,0.4-0.5,0.7-1,0.8c-0.5,0-0.8-0.4-0.7-0.8
						C287.6,465.9,288,465.5,288.6,465.5z"/>
				</g>
				<g>
					<polygon fill="#FFFFFF" points="295.5,459.2 294.4,466.9 293.2,466.9 294.1,460.2 294.1,460.2 292.3,460.9 292.2,460.1 
						294.4,459.2 					"/>
				</g>
				<g>
					<path fill="#FFFFFF" d="M304.7,459.2l-0.2,0.9l-3.7,0l-0.6,1.9c0.2,0,0.4,0,0.8,0c0.7,0,1.4,0.1,2,0.4c0.7,0.4,1.3,1,1.1,1.9
						c-0.2,1.5-1.9,2.6-4,2.6c-1.1,0-1.9-0.2-2.3-0.5l0.5-0.8c0.4,0.2,1.1,0.4,2,0.4c1.2,0,2.4-0.6,2.5-1.6c0.1-1-0.6-1.7-2.5-1.7
						c-0.5,0-1,0.1-1.3,0.1l1.1-3.7L304.7,459.2z"/>
				</g>
			</g>
		</g>
		<g>
			<g>
				<g>
					<path fill="#FFFFFF" d="M501.1,403.1c4.2,0,6.5,2.5,6,6.2c-0.6,4.2-4.1,6.4-8,6.4c-4,0-6.5-2.4-6-6.2
						C493.7,405.6,497.1,403.1,501.1,403.1z M499.5,414.4c3.1,0,5.2-2.3,5.5-5.1c0.4-2.4-1-5-4.2-5c-3.3,0-5.2,2.4-5.5,5.1
						C494.9,412,496.4,414.4,499.5,414.4"/>
				</g>
				<g>
					<polygon fill="#FFFFFF" points="512.5,402.6 510.9,415.5 508.8,415.5 510.5,402.6 					"/>
				</g>
				<g>
					<path fill="#FFFFFF" d="M523.9,413.2c-0.1,0.8-0.2,1.7-0.2,2.3l-1.8,0l0.1-1.5l0,0c-0.7,0.9-2.2,1.7-4,1.7
						c-2.6,0-4.4-1.8-4.1-4.5c0.3-2.9,2.8-4.8,5.6-4.7c1.7,0,2.7,0.7,3.1,1.3l0,0l0.7-5.2l2,0L523.9,413.2z M522.1,411.8l0.2-1.5
						c0-0.2,0.1-0.5,0-0.7c-0.2-1-1.1-1.8-2.6-1.9c-2.1,0-3.4,1.5-3.7,3.4c-0.2,1.8,0.7,3.3,2.8,3.3c1.3,0,2.7-0.7,3.2-1.9
						C522,412.3,522.1,412,522.1,411.8"/>
				</g>
				<g>
					<path fill="#FFFFFF" d="M486.4,425l-0.6,12.3l-1.9,0l0.3-5.3c0.1-1.7,0.3-3.7,0.5-5.2l-0.1,0c-0.7,1.4-1.5,3-2.5,4.6l-3.5,5.9
						l-1.5,0l-1.7-5.8c-0.5-1.7-0.9-3.3-1.2-4.7l-0.1,0c-0.2,1.5-0.6,3.5-1,5.4l-1.1,5.3l-1.9,0l2.7-12.3l2.5,0l1.8,5.9
						c0.4,1.5,0.8,2.9,1,4.1l0.1,0c0.5-1.2,1.3-2.6,2.2-4.1l3.5-5.9L486.4,425z"/>
				</g>
				<g>
					<path fill="#FFFFFF" d="M496.7,435.2c-0.1,0.8-0.1,1.5-0.1,2.1l-1.8,0l-0.1-1.1l-0.1,0c-0.7,0.7-1.9,1.3-3.5,1.3
						c-2.2,0-3.2-1.2-3-2.5c0.3-2.1,2.7-3.3,6.9-3.3l0.1,0l0-0.2c0.1-0.7,0-2-2.2-2c-1,0-2.1,0.2-3,0.7l-0.4-1.1
						c1-0.5,2.4-0.8,3.7-0.8c3.3,0,3.9,1.8,3.7,3.6L496.7,435.2z M494.9,434.3l0.2-1.5c-0.1,0-0.2,0-0.3,0c-2.1,0-4.4,0.3-4.6,2
						c-0.1,1,0.7,1.5,1.7,1.5c1.4,0,2.5-0.7,2.8-1.5C494.8,434.7,494.9,434.5,494.9,434.3"/>
				</g>
				<g>
					<path fill="#FFFFFF" d="M504.1,428.3c1.1,0,2,0.3,2.6,0.6l-0.6,1.1c-0.4-0.2-1.1-0.5-2.1-0.5c-1.2,0-1.9,0.5-2,1.2
						c-0.1,0.7,0.6,1.1,1.9,1.5c1.8,0.6,2.7,1.4,2.5,2.7c-0.2,1.5-1.9,2.6-4.5,2.6c-1.2,0-2.3-0.3-3-0.6l0.6-1.2
						c0.5,0.3,1.5,0.6,2.5,0.7c1.4,0,2.2-0.6,2.3-1.3c0.1-0.8-0.4-1.2-1.8-1.6c-1.9-0.6-2.7-1.5-2.5-2.5
						C500.2,429.4,501.8,428.3,504.1,428.3z"/>
				</g>
				<g>
					<path fill="#FFFFFF" d="M525.6,432.3c-0.1,0.3-0.2,0.6-0.2,0.7l-7.7,0c-0.3,2.1,1.4,3,3.4,3c1.4,0,2.3-0.2,3.1-0.5l0.2,1.2
						c-0.7,0.2-2,0.5-3.7,0.6c-3.4,0-5.2-1.7-4.9-4.4c0.4-2.6,2.5-4.7,5.8-4.7C525.3,428.2,525.8,430.7,525.6,432.3z M518,431.9
						l5.8,0c0.1-1-0.1-2.6-2.4-2.6C519.3,429.3,518.2,430.8,518,431.9"/>
				</g>
				<g>
					<path fill="#FFFFFF" d="M512.5,425.9l-0.4,2.5l2.9-0.1l-0.1,1.2l-2.9,0.1l-0.6,4.7c-0.1,1.1,0.2,1.7,1.3,1.7
						c0.5,0,0.9,0,1.2-0.1l0,1.2c-0.4,0.1-1,0.3-1.8,0.2c-0.9,0-1.6-0.2-2-0.7c-0.5-0.5-0.6-1.3-0.4-2.3l0.6-4.7l-1.7,0l0.1-1.2
						l1.7,0l0.3-2.1L512.5,425.9z"/>
				</g>
				<g>
					<path fill="#FFFFFF" d="M533.5,428.2c0.2,0,0.4,0,0.6,0.1l-0.2,1.5c-0.2,0-0.4-0.1-0.7-0.1c-1.4,0-2.6,0.8-2.9,2.1
						c-0.1,0.2-0.2,0.5-0.2,0.7l-0.6,4.6l-2,0l0.8-6.1c0.1-1,0.2-1.9,0.3-2.7l1.7,0L530,430l0.1,0
						C530.8,428.9,532.2,428.2,533.5,428.2z"/>
				</g>
				<g>
					<path fill="#FFFFFF" d="M539.4,428.1c1.1,0,2,0.3,2.6,0.6l-0.6,1.1c-0.4-0.2-1.1-0.5-2.1-0.5c-1.2,0-1.9,0.5-2,1.2
						c-0.1,0.7,0.6,1.1,1.9,1.5c1.8,0.6,2.7,1.4,2.5,2.7c-0.2,1.5-1.9,2.6-4.5,2.6c-1.2,0-2.3-0.3-3-0.6l0.6-1.2
						c0.5,0.3,1.5,0.6,2.5,0.7c1.5,0,2.2-0.6,2.3-1.3c0.1-0.8-0.4-1.2-1.8-1.6c-1.9-0.6-2.7-1.5-2.5-2.5
						C535.4,429.3,537,428.2,539.4,428.1z"/>
				</g>
			</g>
		</g>
		<g>
			<g>
				<g>
					<polygon fill="#FFFFFF" points="335.5,475.8 334,485.9 332.4,485.9 333.6,477 333.5,477 331.2,478 331,476.9 334,475.7 					
						"/>
				</g>
				<g>
					<path fill="#FFFFFF" d="M352.8,476.1l-0.3,2.2l2.5,0l-0.1,1l-2.5,0l-0.6,4.1c-0.2,0.9,0.2,1.5,1.1,1.4c0.5,0,0.8,0,1-0.1l0,1
						c-0.4,0.1-0.9,0.1-1.6,0.2c-0.8,0-1.4-0.2-1.8-0.6c-0.4-0.4-0.6-1.1-0.4-2l0.6-4.1l-1.5,0l0.1-1l1.5,0l0.2-1.8L352.8,476.1z"/>
				</g>
				<g>
					<path fill="#FFFFFF" d="M345.4,480.5c1.5,0.5,2.4,1.4,2.2,2.7c-0.2,1.8-2.3,3-4.7,3c-2.7,0-4.1-1.3-4-2.8
						c0.1-1.3,1.3-2.2,2.9-2.8l0,0c-1.3-0.5-1.9-1.4-1.7-2.3c0.2-1.6,2.1-2.7,4.4-2.7c2.5,0,3.6,1.2,3.3,2.5
						C347.7,478.9,347,479.8,345.4,480.5L345.4,480.5z M343,485.1c1.5,0,2.7-0.7,2.8-1.9c0.1-1.2-0.8-1.9-2.5-2.3
						c-1.6,0.4-2.4,1.1-2.6,2.1C340.6,484.2,341.4,485.1,343,485.1 M341.7,478.1c-0.1,1,0.8,1.6,2.2,1.9c1.2-0.3,2.1-0.9,2.2-1.8
						c0.2-0.8-0.4-1.7-1.9-1.7C342.7,476.6,341.9,477.3,341.7,478.1"/>
				</g>
				<g>
					<path fill="#FFFFFF" d="M359.2,474.7l-0.6,4.7c0.4-0.4,0.9-0.7,1.4-1s1.2-0.4,1.8-0.4c1.3,0,3.2,0.6,2.9,3.2l-0.7,4.5l-1.7,0
						l0.6-4.3c0.1-1.2-0.2-2.3-1.9-2.3c-1.1,0-2.1,0.6-2.5,1.3c-0.1,0.2-0.2,0.4-0.2,0.7l-0.6,4.6l-1.7,0l1.5-11.2L359.2,474.7z"/>
				</g>
				<g>
					<path fill="#FFFFFF" d="M390.8,481.6c-0.1,0.3-0.1,0.5-0.2,0.6l-6.7,0c-0.2,1.9,1.1,2.6,2.9,2.6c1.2,0,2-0.2,2.7-0.4l0.2,1
						c-0.7,0.2-1.7,0.5-3.3,0.5c-2.9,0-4.5-1.6-4.2-3.9c0.3-2.3,2.3-4.1,5-4.2C390.4,478.1,390.9,480.2,390.8,481.6z M384.1,481.3
						l5.1,0c0.2-0.9-0.1-2.3-2.1-2.3C385.2,479,384.3,480.3,384.1,481.3"/>
				</g>
				<g>
					<path fill="#FFFFFF" d="M378.7,475.1c1.6,0,2.6,0.3,3.1,0.4l-0.5,1.1c-0.6-0.3-1.5-0.4-2.6-0.5c-3.1,0-5.4,1.6-5.8,4.4
						c-0.4,2.6,1.3,4.2,4.5,4.3c1,0,2.1-0.2,2.9-0.5l0.2,1.1c-0.7,0.2-2,0.5-3.6,0.5c-3.7,0-6.3-1.9-5.8-5.4
						C371.4,477.3,374.5,475,378.7,475.1z"/>
				</g>
				<g>
					<path fill="#FFFFFF" d="M398.1,478c1.3,0,3.3,0.6,3,3.2l-0.7,4.5l-1.7,0l0.6-4.4c0.1-1.2-0.3-2.3-1.9-2.3
						c-1.1,0-2.1,0.6-2.5,1.4c-0.1,0.2-0.2,0.4-0.2,0.6l-0.7,4.5l-1.7,0l0.7-5.5c0.1-0.8,0.2-1.4,0.2-2.1l1.5,0l0,1.3l0,0
						C395.3,478.7,396.5,478,398.1,478z"/>
				</g>
				<g>
					<path fill="#FFFFFF" d="M406.6,476l-0.3,2.2l2.5,0l-0.1,1l-2.5,0l-0.6,4.1c-0.2,0.9,0.1,1.5,1.1,1.4c0.5,0,0.8,0,1-0.1l0,1
						c-0.4,0.1-0.9,0.1-1.6,0.2c-0.8,0-1.4-0.2-1.8-0.6s-0.6-1.1-0.4-2l0.6-4.1l-1.5,0l0.1-1l1.5,0l0.2-1.8L406.6,476z"/>
				</g>
				<g>
					<path fill="#FFFFFF" d="M418.7,478.1l-0.7,5.5c-0.1,0.8-0.2,1.5-0.2,2.1l-1.5,0l0-1.2l0,0c-0.6,0.6-1.6,1.4-3.3,1.4
						c-1.5,0-3.2-0.6-2.9-3.3l0.6-4.4l1.7,0l-0.6,4.2c-0.2,1.4,0.2,2.4,1.8,2.4c1.2,0,2.1-0.6,2.4-1.2c0.1-0.2,0.2-0.4,0.3-0.7
						l0.6-4.6L418.7,478.1z"/>
				</g>
				<g>
					<path fill="#FFFFFF" d="M425.8,477.9c0.2,0,0.3,0,0.5,0.1l-0.1,1.3c-0.2,0-0.3-0.1-0.6-0.1c-1.2,0-2.2,0.7-2.6,1.7
						c-0.1,0.2-0.2,0.4-0.2,0.6l-0.6,4l-1.7,0l0.7-5.2c0.2-0.9,0.2-1.7,0.3-2.4l1.5,0l-0.1,1.5l0.1,0
						C423.6,478.6,424.7,478,425.8,477.9z"/>
				</g>
				<g>
					<path fill="#FFFFFF" d="M435.8,478.1l-3.3,5.5c-1.6,2.6-2.6,3.9-3.9,4.8c-1,0.7-1.8,0.8-2.3,0.9l-0.3-1.2
						c0.5-0.1,1.1-0.4,1.6-0.7c0.5-0.3,1.2-0.9,1.6-1.6c0.1-0.1,0.2-0.2,0.2-0.3c0-0.1,0-0.2-0.1-0.4l-2.6-7.1l1.9,0l1.4,4.5
						c0.1,0.5,0.3,1.1,0.4,1.6l0,0c0.3-0.4,0.5-1,0.8-1.6l2.5-4.4L435.8,478.1z"/>
				</g>
				<g>
					<path fill="#FFFFFF" d="M389.6,494.9l-0.3,2.2l2.5,0l-0.1,1l-2.5,0l-0.6,4.1c-0.2,0.9,0.2,1.5,1.1,1.4c0.5,0,0.8,0,1-0.1l0,1
						c-0.4,0.1-0.9,0.1-1.6,0.2c-0.8,0-1.4-0.2-1.8-0.6s-0.6-1.1-0.4-2l0.6-4.1l-1.5,0l0.1-1l1.5,0l0.2-1.8L389.6,494.9z"/>
				</g>
				<g>
					<path fill="#FFFFFF" d="M385,497c0.2,0,0.3,0,0.5,0.1l-0.1,1.3c-0.2,0-0.3-0.1-0.6-0.1c-1.2,0-2.2,0.7-2.6,1.7
						c-0.1,0.2-0.2,0.4-0.2,0.6l-0.6,4l-1.7,0l0.7-5.2c0.2-0.9,0.2-1.7,0.3-2.4l1.5,0l-0.1,1.5l0.1,0
						C382.8,497.6,383.9,496.9,385,497z"/>
				</g>
				<g>
					<path fill="#FFFFFF" d="M374.7,494.1l3.1,10.6l-1.8,0l-1-3.4l-4.7,0.1l-1.8,3.3l-1.8,0l5.9-10.6L374.7,494.1z M370.9,500.4l4,0
						l-0.9-3.1c-0.2-0.7-0.3-1.3-0.4-2l0,0c-0.3,0.6-0.5,1.2-0.9,2L370.9,500.4"/>
				</g>
			</g>
		</g>
	</g>
	<g>
		<g>
			<g>
				<polygon fill="#336666" points="604.3,254 605.1,248.4 606.4,248.3 605.6,254.1 				"/>
			</g>
			<g>
				<polygon fill="#336666" points="599.7,246.1 598.7,253.2 603,253.2 602.9,254.1 597.4,254.1 598.4,246.1 				"/>
			</g>
			<g enable-background="new    ">
				<g>
					<path fill="#336666" d="M611.6,245.5c0.5,0,0.8,0.1,1.1,0.1l-0.3,0.8c-0.2-0.1-0.4-0.2-0.8-0.2c-1.1,0-1.5,0.8-1.6,1.7
						l-0.1,0.3l1.7,0l-0.1,0.8l-1.7,0l-0.6,4.9l-1.3,0l0.6-4.9l-1,0l0.1-0.8l1,0l0.1-0.3c0.2-0.8,0.4-1.5,1.1-2
						C610.3,245.7,610.9,245.5,611.6,245.5z"/>
				</g>
				<g>
					<path fill="#336666" d="M614.6,246.6l-0.2,1.6l1.9,0l-0.1,0.8l-1.9,0l-0.4,3.1c-0.1,0.7,0.1,1.1,0.9,1.2c0.3,0,0.6,0,0.8,0
						l-0.1,0.8c-0.3,0.1-0.7,0.1-1.2,0.2c-0.6,0-1.1-0.1-1.3-0.4c-0.3-0.3-0.3-0.8-0.3-1.5l0.4-3.1l-1.1,0l0.1-0.8l1.1,0l0.2-1.4
						L614.6,246.6z"/>
				</g>
			</g>
			<g>
				<path fill="#336666" d="M605.8,247.3c-0.5,0-0.7-0.3-0.7-0.7c0.1-0.4,0.5-0.6,0.9-0.6c0.5,0,0.7,0.3,0.7,0.7
					C606.7,247.1,606.3,247.4,605.8,247.3z"/>
			</g>
		</g>
	</g>
	<g>
		<g>
			<g>
				<polygon fill="#336666" points="588.7,336.8 587.7,344 592,343.9 591.8,344.8 586.3,344.8 587.4,336.9 				"/>
			</g>
			<g>
				<polygon fill="#336666" points="593.2,344.8 594,339.1 595.3,339 594.5,344.8 				"/>
			</g>
			<g>
				<path fill="#336666" d="M603.5,337.4l-0.2,1.6l1.9,0l-0.1,0.8l-1.9,0l-0.4,3.1c-0.1,0.7,0.1,1.1,0.9,1.2c0.3,0,0.6,0,0.8,0
					l-0.1,0.8c-0.3,0.1-0.7,0.1-1.2,0.2c-0.6,0-1.1-0.1-1.3-0.4c-0.3-0.3-0.4-0.8-0.3-1.5l0.4-3.1l-1.1,0l0.1-0.8l1.1,0l0.2-1.4
					L603.5,337.4z"/>
			</g>
			<g>
				<path fill="#336666" d="M600.5,336.3c0.5,0,0.8,0.1,1.1,0.1l-0.3,0.8c-0.2-0.1-0.4-0.2-0.8-0.2c-1.1,0-1.5,0.8-1.6,1.7l-0.1,0.3
					l1.7,0l-0.1,0.8l-1.7,0l-0.6,4.9l-1.3,0l0.6-4.9l-1,0l0.1-0.8l1,0l0.1-0.3c0.2-0.8,0.4-1.5,1.1-2
					C599.3,336.4,599.9,336.3,600.5,336.3z"/>
			</g>
			<g>
				<path fill="#336666" d="M594.7,338.1c-0.5,0-0.7-0.3-0.7-0.7c0.1-0.4,0.5-0.6,0.9-0.6c0.5,0,0.7,0.3,0.7,0.7
					C595.6,337.8,595.2,338.1,594.7,338.1z"/>
			</g>
		</g>
	</g>
	<g>
		<g>
			<g>
				<polygon fill="#336666" points="312.7,283 311.8,289.5 315.5,289.5 315.3,290.3 310.6,290.3 311.6,283 				"/>
			</g>
			<g>
				<polygon fill="#336666" points="316.5,290.3 317.2,285.1 318.3,285 317.6,290.3 				"/>
			</g>
			<g>
				<path fill="#336666" d="M317.9,284.1c-0.4,0-0.6-0.3-0.6-0.6c0.1-0.3,0.4-0.6,0.8-0.6c0.4,0,0.6,0.3,0.6,0.6
					C318.6,283.9,318.3,284.1,317.9,284.1z"/>
			</g>
			<g>
				<path fill="#336666" d="M325.4,283.5l-0.2,1.5l1.6,0l-0.1,0.7l-1.6,0l-0.3,2.8c-0.1,0.6,0.1,1,0.7,1.1c0.3,0,0.5,0,0.6,0
					l-0.1,0.7c-0.2,0.1-0.6,0.1-1,0.2c-0.5,0-0.9-0.2-1.1-0.4c-0.3-0.3-0.3-0.8-0.3-1.4l0.3-2.8l-0.9,0l0.1-0.7l0.9,0l0.1-1.3
					L325.4,283.5z"/>
			</g>
			<g>
				<path fill="#336666" d="M322.8,282.5c0.4,0,0.7,0.1,0.9,0.2l-0.3,0.7c-0.2-0.1-0.4-0.1-0.7-0.2c-0.9,0-1.3,0.7-1.4,1.6l-0.1,0.3
					l1.5,0l-0.1,0.7l-1.5,0l-0.7,4.5l-1.1,0l0.7-4.5l-0.9,0l0.1-0.7l0.9,0l0-0.3c0.1-0.7,0.4-1.4,0.9-1.9
					C321.7,282.6,322.3,282.4,322.8,282.5z"/>
			</g>
		</g>
	</g>
</g>
</svg>
