<?xml version="1.0" encoding="utf-8"?>
<!-- Generator: Adobe Illustrator 18.1.1, SVG Export Plug-In . SVG Version: 6.00 Build 0)  -->
<svg version="1.1" xmlns="http://www.w3.org/2000/svg" xmlns:xlink="http://www.w3.org/1999/xlink" x="0px" y="0px"
	 viewBox="0 0 800 600" enable-background="new 0 0 800 600" xml:space="preserve">
<g id="Layer_8">
	<g>
		<polygon fill="#C1DDDD" points="598.7,89.8 548.9,450.5 480.8,449.8 472.5,509.1 266.9,506.6 275.4,444.9 209.7,444.1 
			251.1,144.1 395.2,145.9 398.7,121 349,120.4 353.5,86.8 		"/>
	</g>
</g>
<g id="Layer_1">
	<g id="Layer_1_1_" display="none">
		<g id="cvsuAc.tif" display="inline">
			
				<image overflow="visible" enable-background="new    " width="344" height="535" id="Layer_0_1_" xlink:href="875B8B38130B4F40.png"  transform="matrix(1 0 0 1 228 32)">
			</image>
		</g>
	</g>
	<polygon fill="#C1DDDD" points="612.8,239.8 609.6,263.8 575.5,263.9 578.6,239.9 	"/>
	<polygon fill="#9BA8AB" points="612.8,239.8 613.6,242.9 610.4,266.9 609.6,263.8 	"/>
	<polygon fill="#9BA8AB" points="609.6,263.8 610.4,266.9 576.2,267 575.5,263.9 	"/>
	<polygon fill="#405E5E" points="587.8,247.7 586.8,254.9 591.1,254.8 590.9,255.8 585.4,255.8 586.5,247.8 	"/>
	<polygon fill="#405E5E" points="592.3,255.7 593.1,250 594.4,250 593.6,255.7 	"/>
	<path fill="#405E5E" d="M593.9,249c-0.5,0-0.7-0.3-0.7-0.7c0.1-0.4,0.5-0.6,0.9-0.6c0.5,0,0.7,0.3,0.7,0.7
		C594.8,248.7,594.4,249.1,593.9,249z"/>
	<path fill="#405E5E" d="M602.6,248.3l-0.2,1.6l1.9,0l-0.1,0.8l-1.9,0l-0.4,3.1c-0.1,0.7,0.1,1.1,0.9,1.2c0.3,0,0.6,0,0.8,0
		l-0.1,0.8c-0.3,0.1-0.7,0.1-1.2,0.2c-0.6,0-1.1-0.1-1.3-0.4c-0.3-0.3-0.4-0.8-0.3-1.5l0.4-3.1l-1.1,0l0.1-0.8l1.1,0l0.2-1.4
		L602.6,248.3z"/>
	<path fill="#405E5E" d="M599.6,247.2c0.5,0,0.8,0.1,1.1,0.1l-0.3,0.8c-0.2-0.1-0.4-0.2-0.8-0.2c-1.1,0-1.5,0.8-1.6,1.7l-0.1,0.3
		l1.7,0l-0.1,0.8l-1.7,0l-0.6,4.9l-1.3,0l0.6-4.9l-1,0l0.1-0.8l1,0l0.1-0.3c0.2-0.8,0.4-1.5,1.1-2
		C598.4,247.3,599,247.2,599.6,247.2z"/>
	<polygon fill="#C1DDDD" points="354.9,432.2 351.7,456.2 317.6,456.3 320.8,432.3 	"/>
	<polygon fill="#405E5E" points="354.9,432.2 355.7,435.3 352.5,459.3 351.7,456.2 	"/>
	<polygon fill="#405E5E" points="351.7,456.2 352.5,459.3 318.4,459.4 317.6,456.3 	"/>
	<polygon fill="#646DA8" points="591.1,92.9 587.6,115.3 357,113.1 360.5,90.8 	"/>
	<polygon fill="#51588A" points="591.1,92.9 591.9,96 588.3,118.4 587.6,115.3 	"/>
	<polygon fill="#474D7A" points="587.6,115.3 588.3,118.4 357.7,116.2 357,113.1 	"/>
	<polygon fill="#646DA8" points="557.9,355.7 545.8,445.5 481.8,445.6 493.8,355.8 	"/>
	<polygon fill="#515889" points="557.9,355.7 558.5,358.8 546.5,448.6 545.8,445.5 	"/>
	<polygon fill="#474D7B" points="545.8,445.5 546.5,448.6 482.4,448.7 481.8,445.6 	"/>
	<polygon fill="#646DA8" points="587.9,119.6 571.1,245.5 507.1,245.6 523.8,119.8 	"/>
	<polygon fill="#515889" points="587.9,119.6 588.7,122.7 571.8,248.6 571.1,245.5 	"/>
	<polygon fill="#474D7B" points="571.1,245.5 571.8,248.6 507.7,248.7 507.1,245.6 	"/>
	<polygon fill="#646DA8" points="566.4,289.3 558.1,351.9 494,352 502.4,289.5 	"/>
	<polygon fill="#515889" points="566.4,289.3 567.1,292.4 558.8,355 558.1,351.9 	"/>
	<polygon fill="#474D7B" points="558.1,351.9 558.8,355 494.7,355.2 494,352 	"/>
	<polygon fill="#646DA8" points="571.1,252.2 566.9,283.5 502.8,283.7 507,252.3 	"/>
	<polygon fill="#515889" points="571.1,252.2 571.8,255.3 567.6,286.6 566.9,283.5 	"/>
	<polygon fill="#474D7B" points="566.9,283.5 567.6,286.6 503.5,286.8 502.8,283.7 	"/>
	<polygon fill="#646DA8" points="315.3,146.8 298.9,269.7 236.5,270 252.9,146.9 	"/>
	<polygon fill="#515889" points="315.3,146.8 315.9,149.8 299.5,272.8 298.9,269.7 	"/>
	<polygon fill="#474D7B" points="298.9,269.7 299.5,272.8 237.2,273 236.5,270 	"/>
	<polygon fill="#646DA8" points="298.2,273.2 288.3,346.4 226,346.6 235.7,273.3 	"/>
	<polygon fill="#515889" points="298.2,273.2 298.8,276.3 289,349.5 288.3,346.4 	"/>
	<polygon fill="#474D7B" points="288.3,346.4 289,349.5 226.6,349.6 226,346.6 	"/>
	<polygon fill="#646DA8" points="287.9,349.8 276,439.2 213.6,439.4 225.5,350 	"/>
	<polygon fill="#515889" points="287.9,349.8 288.6,352.8 276.7,442.3 276,439.2 	"/>
	<polygon fill="#474D7B" points="276,439.2 276.7,442.3 214.3,442.4 213.6,439.4 	"/>
	<polygon fill="#646DA8" points="519.1,123.3 516.2,145.1 444.2,145.2 447.1,123.4 	"/>
	<polygon fill="#515889" points="519.1,123.3 519.8,126.4 516.8,148.1 516.2,145.1 	"/>
	<polygon fill="#474D7B" points="516.2,145.1 516.8,148.1 444.8,148.3 444.2,145.2 	"/>
	<polygon fill="#646DA8" points="472.9,460.4 467.1,502.5 278.6,503 284.2,460.8 	"/>
	<polygon fill="#515889" points="472.9,460.4 473.5,463.5 467.9,505.7 467.1,502.5 	"/>
	<polygon fill="#474D7B" points="467.1,502.5 467.9,505.7 279.3,506.1 278.6,503 	"/>
	<polygon fill="#646DA8" points="509.3,171.3 498.2,254.4 309.7,254.9 320.7,171.8 	"/>
	<polygon fill="#515889" points="509.3,171.3 510.1,174.4 499,257.5 498.2,254.4 	"/>
	<polygon fill="#474D7B" points="498.2,254.4 499,257.5 310.3,258 309.7,254.9 	"/>
	<polygon fill="#646DA8" points="447.2,262.6 442.7,296.2 350.6,296.5 355.1,262.9 	"/>
	<polygon fill="#515889" points="447.2,262.6 447.9,265.7 443.4,299.3 442.7,296.2 	"/>
	<polygon fill="#474D7B" points="442.7,296.2 443.4,299.3 351.3,299.5 350.6,296.5 	"/>
	<polygon fill="#646DA8" points="490,306.8 474.7,421.4 286.2,421.8 301.4,307.2 	"/>
	<polygon fill="#515889" points="490,306.8 490.7,309.8 475.4,424.4 474.7,421.4 	"/>
	<polygon fill="#474D7B" points="474.7,421.4 475.4,424.4 286.8,424.8 286.2,421.8 	"/>
</g>
<g id="Layer_9">
	<polygon fill="#405E5E" points="315.9,446 316.9,450.2 315.6,459.1 314.7,454.9 	"/>
	<polygon fill="#405E5E" points="314.7,454.9 315.6,459.1 284.3,459.2 283.3,454.9 	"/>
	<polygon fill="#405E5E" points="316.2,439.2 317.1,443.5 315.9,452.4 314.9,448 	"/>
	<polygon fill="#405E5E" points="314.9,448 315.9,452.4 284.5,452.4 283.5,448.2 	"/>
	<polygon fill="#405E5E" points="316.4,432.3 317.3,436.7 316.2,445.6 315.2,441.3 	"/>
	<polygon fill="#405E5E" points="315.2,441.3 316.2,445.6 284.8,445.7 283.8,441.3 	"/>
	<polygon fill="#405E5E" points="413.2,445.9 414.1,450.1 412.9,459.3 411.9,455 	"/>
	<polygon fill="#405E5E" points="411.9,455 412.9,459.3 361.5,459.4 360.6,455.1 	"/>
	<polygon fill="#405E5E" points="413.8,438.8 414.7,443.1 413.5,452.3 412.6,448 	"/>
	<polygon fill="#405E5E" points="412.6,448 413.5,452.3 362.1,452.4 361.2,448.1 	"/>
	<polygon fill="#405E5E" points="414.4,431.8 415.3,436 414.1,445.3 413.2,441 	"/>
	<polygon fill="#405E5E" points="413.2,441 414.1,445.3 362.8,445.4 361.8,441.1 	"/>
</g>
<g id="Layer_7">
	<g>
		<g>
			<g enable-background="new    ">
				<g>
					<polygon fill="#8F9A9E" points="398.7,121 399.2,124 349.5,123.5 349,120.4 					"/>
				</g>
				<g>
					<polygon fill="#8F9A9E" points="275.4,444.9 276,448 210.2,447.2 209.7,444.1 					"/>
				</g>
				<g>
					<polygon fill="#8F9A9E" points="548.9,450.5 549.5,453.6 481.4,452.8 480.8,449.8 					"/>
				</g>
				<g>
					<polygon fill="#9BA8AB" points="598.7,89.8 599.3,92.9 549.5,453.6 548.9,450.5 					"/>
				</g>
				<g>
					<polygon fill="#9BA8AB" points="480.8,449.8 481.4,452.8 473.1,512.2 472.5,509.1 					"/>
				</g>
				<g>
					<polygon fill="#8F9A9E" points="472.5,509.1 473.1,512.2 267.4,509.7 266.9,506.6 					"/>
				</g>
			</g>
		</g>
	</g>
</g>
<g id="Layer_4">
	<polygon fill="#4A8080" points="591.1,92.9 591.9,96 588.3,118.4 587.6,115.3 	"/>
	<polygon fill="#4A8080" points="587.6,115.3 588.3,118.4 357.7,116.2 357,113.1 	"/>
	<polygon fill="#4A8080" points="557.9,355.7 558.5,358.8 546.5,448.6 545.8,445.5 	"/>
	<polygon fill="#4A8080" points="545.8,445.5 546.5,448.6 482.4,448.7 481.8,445.6 	"/>
	<polygon fill="#4A8080" points="587.9,119.6 588.7,122.7 571.8,248.6 571.1,245.5 	"/>
	<polygon fill="#4A8080" points="571.1,245.5 571.8,248.6 507.7,248.7 507.1,245.6 	"/>
	<polygon fill="#4A8080" points="566.4,289.3 567.1,292.4 558.8,355 558.1,351.9 	"/>
	<polygon fill="#4A8080" points="558.1,351.9 558.8,355 494.7,355.2 494,352 	"/>
	<polygon fill="#4A8080" points="571.1,252.2 571.8,255.3 567.6,286.6 566.9,283.5 	"/>
	<polygon fill="#4A8080" points="566.9,283.5 567.6,286.6 503.5,286.8 502.8,283.7 	"/>
	<polygon fill="#4A8080" points="315.3,146.8 315.9,149.8 299.5,272.8 298.9,269.7 	"/>
	<polygon fill="#4A8080" points="298.9,269.7 299.5,272.8 237.2,273 236.5,270 	"/>
	<polygon fill="#4A8080" points="298.2,273.2 298.8,276.3 289,349.5 288.3,346.4 	"/>
	<polygon fill="#4A8080" points="288.3,346.4 289,349.5 226.6,349.6 226,346.6 	"/>
	<polygon fill="#4A8080" points="287.9,349.8 288.6,352.8 276.7,442.3 276,439.2 	"/>
	<polygon fill="#4A8080" points="276,439.2 276.7,442.3 214.3,442.4 213.6,439.4 	"/>
	<polygon fill="#4A8080" points="519.1,123.3 519.8,126.4 516.8,148.1 516.2,145.1 	"/>
	<polygon fill="#4A8080" points="516.2,145.1 516.8,148.1 444.8,148.3 444.2,145.2 	"/>
	<polygon fill="#4A8080" points="472.9,460.4 473.5,463.5 467.9,505.7 467.1,502.5 	"/>
	<polygon fill="#4A8080" points="467.1,502.5 467.9,505.7 279.3,506.1 278.6,503 	"/>
	<polygon fill="#4A8080" points="509.3,171.3 510.1,174.4 499,257.5 498.2,254.4 	"/>
	<polygon fill="#4A8080" points="498.2,254.4 499,257.5 310.3,258 309.7,254.9 	"/>
	<polygon fill="#4A8080" points="447.2,262.6 447.9,265.7 443.4,299.3 442.7,296.2 	"/>
	<polygon fill="#4A8080" points="442.7,296.2 443.4,299.3 351.3,299.5 350.6,296.5 	"/>
	<polygon fill="#4A8080" points="490,306.8 490.7,309.8 475.4,424.4 474.7,421.4 	"/>
	<polygon fill="#4A8080" points="474.7,421.4 475.4,424.4 286.8,424.8 286.2,421.8 	"/>
</g>
<g id="Layer_5">
	<polygon fill="#80BCBC" points="591.1,92.9 587.6,115.3 357,113.1 360.5,90.8 	"/>
	<polygon fill="#80BCBC" points="557.9,355.7 545.8,445.5 481.8,445.6 493.8,355.8 	"/>
	<polygon fill="#80BCBC" points="587.9,119.6 571.1,245.5 507.1,245.6 523.8,119.8 	"/>
	<polygon fill="#80BCBC" points="566.4,289.3 558.1,351.9 494,352 502.4,289.5 	"/>
	<polygon fill="#80BCBC" points="571.1,252.2 566.9,283.5 502.8,283.7 507,252.3 	"/>
	<polygon fill="#80BCBC" points="315.3,146.8 298.9,269.7 236.5,270 252.9,146.9 	"/>
	<polygon fill="#80BCBC" points="298.2,273.2 288.3,346.4 226,346.6 235.7,273.3 	"/>
	<polygon fill="#80BCBC" points="287.9,349.8 276,439.2 213.6,439.4 225.5,350 	"/>
	<polygon fill="#80BCBC" points="519.1,123.3 516.2,145.1 444.2,145.2 447.1,123.4 	"/>
	<polygon fill="#80BCBC" points="472.9,460.4 467.1,502.5 278.6,503 284.2,460.8 	"/>
	<polygon fill="#80BCBC" points="509.3,171.3 498.2,254.4 309.7,254.9 320.7,171.8 	"/>
	<polygon fill="#80BCBC" points="447.2,262.6 442.7,296.2 350.6,296.5 355.1,262.9 	"/>
	<polygon fill="#80BCBC" points="490,306.8 474.7,421.4 286.2,421.8 301.4,307.2 	"/>
</g>
<g id="Layer_3">
	<g id="nopointer-test_2_">
		<g>
			<g>
				<g>
					<path fill="#FFFFFF" d="M468.7,105.9c-0.1,0.6-0.1,1.1-0.1,1.6l-1.3,0l0-0.8l-0.1,0c-0.5,0.5-1.3,1-2.4,1c-1.6,0-2.3-1-2.1-1.9
						c0.2-1.6,2-2.5,4.9-2.5c0,0,0,0,0.1,0l0-0.1c0.1-0.5,0-1.5-1.6-1.5c-0.7,0-1.5,0.2-2.1,0.5l-0.2-0.8c0.7-0.3,1.7-0.6,2.7-0.6
						c2.4,0,2.8,1.4,2.7,2.8L468.7,105.9z M467.3,105.3l0.1-1.1c-0.1,0-0.2,0-0.2,0c-1.5,0-3.1,0.3-3.2,1.5
						c-0.1,0.8,0.5,1.2,1.2,1.1c1,0,1.8-0.6,2-1.1C467.2,105.6,467.3,105.4,467.3,105.3"/>
				</g>
				<g>
					<path fill="#FFFFFF" d="M459.8,98.1c1.3,0,2.2,0.3,2.5,0.4l-0.4,1c-0.5-0.2-1.2-0.3-2.1-0.4c-2.5,0-4.4,1.4-4.7,3.9
						c-0.3,2.3,1.1,3.7,3.7,3.7c0.9,0,1.7-0.2,2.3-0.4l0.2,1c-0.6,0.2-1.6,0.5-2.9,0.5c-3.1,0-5.2-1.6-4.8-4.6
						C453.9,100.1,456.5,98.2,459.8,98.1z"/>
				</g>
				<g>
					<path fill="#FFFFFF" d="M482.2,103.8c0,0.2-0.1,0.4-0.1,0.6l-5.5,0c-0.2,1.6,0.9,2.4,2.4,2.3c1,0,1.7-0.2,2.2-0.3l0.1,0.9
						c-0.5,0.2-1.4,0.4-2.7,0.4c-2.4,0-3.7-1.3-3.4-3.3c0.3-2,1.8-3.6,4.1-3.6C481.9,100.7,482.3,102.6,482.2,103.8z M476.7,103.6
						l4.1,0c0.2-0.8-0.1-2-1.7-2C477.6,101.5,476.9,102.7,476.7,103.6"/>
				</g>
				<g>
					<path fill="#FFFFFF" d="M474.9,97.6c0.5,0,0.9,0.1,1.2,0.2l-0.4,0.9c-0.2-0.1-0.5-0.2-0.9-0.2c-1.2,0-1.7,0.9-1.7,1.9l-0.1,0.4
						l1.9,0l-0.2,0.9l-1.9,0l-0.7,5.7l-1.4,0l0.7-5.7l-1.1,0l0.2-0.9l1.1,0l0.1-0.3c0.2-0.9,0.5-1.8,1.2-2.4
						C473.5,97.7,474.2,97.6,474.9,97.6z"/>
				</g>
			</g>
		</g>
		<g>
			<g>
				<g>
					<path fill="#FFFFFF" d="M524.7,178.5c1.4,0,2.2,0.2,2.5,0.4l-0.4,0.9c-0.5-0.2-1.2-0.3-2.2-0.4c-2.6,0-4.4,1.2-4.7,3.6
						c-0.3,2.1,1.2,3.4,3.8,3.4c0.9,0,1.8-0.1,2.4-0.3l0.1,0.9c-0.5,0.2-1.6,0.4-3,0.4c-3.1,0-5.3-1.5-4.9-4.3
						C518.8,180.3,521.3,178.4,524.7,178.5z"/>
				</g>
				<g>
					<path fill="#FFFFFF" d="M535.4,181l-0.6,4.4c-0.1,0.6-0.1,1.2-0.1,1.7l-1.3,0l0-1l0,0c-0.5,0.5-1.3,1.2-2.7,1.2
						c-1.2,0-2.6-0.6-2.4-2.7l0.4-3.5l1.4,0l-0.4,3.4c-0.1,1.2,0.2,2,1.5,1.9c1,0,1.7-0.5,2-1c0.1-0.2,0.2-0.4,0.2-0.6l0.5-3.7
						L535.4,181z"/>
				</g>
				<g>
					<path fill="#FFFFFF" d="M541.3,180.9c0.2,0,0.3,0,0.4,0.1l-0.1,1c-0.1,0-0.3-0.1-0.5-0.1c-1,0-1.8,0.6-2.1,1.4
						c-0.1,0.2-0.1,0.3-0.2,0.5l-0.4,3.2l-1.4,0l0.5-4.2c0.1-0.7,0.1-1.3,0.2-1.9l1.3,0l-0.1,1.2l0.1,0
						C539.4,181.4,540.4,180.8,541.3,180.9z"/>
				</g>
				<g>
					<polygon fill="#FFFFFF" points="542.4,187.1 543.1,181 544.6,181 543.8,187 					"/>
				</g>
				<g>
					<path fill="#FFFFFF" d="M543.9,179.9c-0.5,0-0.8-0.3-0.7-0.7s0.5-0.7,1-0.7c0.5,0,0.8,0.3,0.8,0.7
						C544.9,179.7,544.5,179.9,543.9,179.9z"/>
				</g>
				<g>
					<path fill="#FFFFFF" d="M550.3,180.8c2.3,0,3.7,1.3,3.4,3.1c-0.3,2.2-2.4,3.2-4.3,3.2c-2.1,0-3.7-1.2-3.4-3.1
						C546.2,182,548.1,180.8,550.3,180.8z M549.6,186.4c1.4,0,2.5-1,2.7-2.3c0.1-1-0.4-2.4-2.1-2.4s-2.5,1.2-2.7,2.3
						C547.3,185.3,548.2,186.4,549.6,186.4"/>
				</g>
				<g>
					<path fill="#FFFFFF" d="M558.3,180.8c0.8,0,1.5,0.2,1.9,0.4l-0.5,0.8c-0.3-0.2-0.8-0.4-1.6-0.3c-0.9,0-1.4,0.4-1.5,0.9
						c-0.1,0.5,0.3,0.8,1.4,1c1.3,0.4,2,0.9,1.8,1.8c-0.1,1.1-1.3,1.9-3.2,1.9c-0.9,0-1.6-0.1-2.1-0.4l0.5-0.8
						c0.4,0.2,1.1,0.4,1.8,0.4c1,0,1.6-0.4,1.7-0.9c0.1-0.5-0.3-0.8-1.4-1.1c-1.4-0.4-2-1-1.9-1.7
						C555.5,181.6,556.6,180.8,558.3,180.8z"/>
				</g>
				<g>
					<polygon fill="#FFFFFF" points="561.6,187.1 562.4,180.9 563.8,180.9 563,187.1 					"/>
				</g>
				<g>
					<path fill="#FFFFFF" d="M577.9,180.9l-2.7,4.4c-1.3,2.1-2.1,3.2-3.2,3.9c-0.8,0.4-1.5,0.7-1.9,0.7l-0.2-0.9
						c0.4-0.1,0.9-0.2,1.3-0.6c0.4-0.2,1-0.7,1.3-1.3c0.1-0.1,0.2-0.2,0.2-0.3s0-0.1,0-0.3l-2.2-5.6l1.6,0l1.3,3.6
						c0.1,0.4,0.2,0.9,0.4,1.3l0,0c0.2-0.4,0.5-0.8,0.6-1.2l2-3.6L577.9,180.9z"/>
				</g>
				<g>
					<path fill="#FFFFFF" d="M568.1,179.2l-0.2,1.7l2.1,0l-0.1,0.8l-2.1,0l-0.4,3.3c-0.1,0.8,0.2,1.2,1,1.1c0.4,0,0.7,0,0.8,0
						l-0.1,0.8c-0.3,0.1-0.7,0.1-1.3,0.2c-0.7,0-1.2-0.1-1.5-0.4c-0.4-0.3-0.4-0.9-0.4-1.6l0.4-3.3l-1.2,0l0.1-0.8l1.2,0l0.2-1.5
						L568.1,179.2z"/>
				</g>
				<g>
					<path fill="#FFFFFF" d="M563.1,179.9c-0.5,0-0.8-0.3-0.7-0.7c0.1-0.4,0.5-0.7,1-0.7c0.5,0,0.8,0.3,0.8,0.7
						C564.1,179.6,563.7,179.8,563.1,179.9z"/>
				</g>
			</g>
		</g>
		<g>
			<g>
				<g>
					<path fill="#FFFFFF" d="M523,271c-0.1,0.5-0.1,1.1,0,1.5l-1.3,0l0-0.8l-0.1,0c-0.5,0.5-1.4,1-2.6,0.9c-1.6,0-2.4-0.9-2.2-1.8
						c0.2-1.5,2-2.3,5-2.4l0.1,0l0-0.1c0.1-0.5,0-1.4-1.7-1.4c-0.7,0-1.5,0.2-2.2,0.5l-0.2-0.8c0.7-0.3,1.7-0.6,2.7-0.5
						c2.4,0,2.9,1.3,2.7,2.6L523,271z M521.6,270.4l0.1-1.1c-0.1,0-0.2,0-0.3,0c-1.5,0-3.2,0.3-3.3,1.4c-0.1,0.7,0.5,1.1,1.3,1
						c1,0,1.8-0.5,2-1C521.5,270.7,521.5,270.6,521.6,270.4"/>
				</g>
				<g>
					<polygon fill="#FFFFFF" points="517,263.8 516.8,264.7 513.5,264.8 512.5,272.6 511,272.5 512,264.8 508.6,264.8 508.8,263.9 
											"/>
				</g>
				<g>
					<path fill="#FFFFFF" d="M530,266.1c1.9,0,3.3,1.3,3,3.1c-0.3,2.2-2.1,3.4-4,3.4c-1.1,0-1.9-0.4-2.4-1l0,0l-0.4,3.4l-1.4,0
						l0.8-6.8c0.1-0.8,0.1-1.4,0.2-2l1.3,0l0,1.1C527.7,266.5,528.7,266.1,530,266.1z M528.8,271.8c1.5,0,2.5-1,2.7-2.4
						c0.1-1.2-0.5-2.4-2.1-2.3c-1,0-2,0.5-2.3,1.4c-0.1,0.1-0.2,0.3-0.2,0.5l-0.1,1.1c0,0.2,0,0.3,0,0.5
						C527,271.2,527.8,271.7,528.8,271.8"/>
				</g>
				<g>
					<path fill="#FFFFFF" d="M541.4,269c0,0.2-0.1,0.4-0.1,0.5l-5.6,0c-0.1,1.5,1,2.1,2.5,2.2c1,0,1.7-0.2,2.3-0.3l0.1,0.8
						c-0.5,0.1-1.5,0.4-2.7,0.3c-2.5,0-3.8-1.3-3.6-3.1c0.2-1.9,1.8-3.4,4.1-3.4C541,266.1,541.5,267.9,541.4,269z M535.8,268.7
						l4.2,0c0.1-0.7-0.1-1.9-1.8-1.8C536.8,266.8,536,268,535.8,268.7"/>
				</g>
				<g>
					<path fill="#FFFFFF" d="M552,264.4l-0.2,1.8l2.1,0l-0.2,0.9l-2.1,0l-0.4,3.3c-0.1,0.8,0.2,1.2,1,1.2c0.4,0,0.7,0,0.9,0
						l-0.1,0.8c-0.3,0.1-0.8,0.1-1.3,0.2c-0.7,0-1.2-0.1-1.5-0.5c-0.3-0.4-0.4-0.9-0.4-1.6l0.4-3.4l-1.2,0l0.2-0.9l1.2,0l0.2-1.5
						L552,264.4z"/>
				</g>
				<g>
					<path fill="#FFFFFF" d="M545.9,266c0.8,0,1.5,0.2,1.9,0.4l-0.5,0.8c-0.3-0.2-0.8-0.4-1.6-0.3c-0.9,0-1.4,0.4-1.5,0.9
						c-0.1,0.5,0.3,0.8,1.4,1c1.3,0.4,2,1,1.9,1.9c-0.1,1.1-1.3,1.9-3.2,1.9c-0.9,0-1.6-0.1-2.2-0.4l0.5-0.8
						c0.4,0.2,1.1,0.4,1.8,0.5c1.1,0,1.6-0.4,1.7-0.9s-0.3-0.9-1.4-1.1c-1.4-0.4-2-1-1.9-1.8C543.1,266.9,544.2,266,545.9,266z"/>
				</g>
				<g>
					<path fill="#FFFFFF" d="M559,266c0.2,0,0.3,0,0.4,0.1l-0.1,1.1c-0.1,0-0.3-0.1-0.5-0.1c-1,0-1.9,0.6-2.1,1.4
						c-0.1,0.2-0.1,0.3-0.2,0.5l-0.4,3.3l-1.4,0l0.6-4.3c0.1-0.7,0.1-1.4,0.2-1.9l1.3,0l-0.1,1.2l0.1,0
						C557.2,266.5,558.1,266.1,559,266z"/>
				</g>
				<g>
					<path fill="#FFFFFF" d="M567.4,266.2l-2.8,4.5c-1.3,2.2-2.1,3.2-3.2,4c-0.8,0.4-1.5,0.7-1.9,0.7l-0.3-1
						c0.4-0.1,0.9-0.2,1.4-0.6c0.4-0.2,1-0.7,1.3-1.3c0.1-0.1,0.2-0.2,0.2-0.3s0-0.2,0-0.3l-2.2-5.8l1.6,0l1.3,3.7
						c0.1,0.4,0.2,0.9,0.4,1.3l0,0c0.2-0.4,0.5-0.8,0.6-1.3l2-3.7L567.4,266.2z"/>
				</g>
			</g>
		</g>
		<g id="Assyrian____Reliefs_2_">
			<g>
				<g>
					<path fill="#FFFFFF" d="M508.3,307.1l2.9,10.1l-1.6,0l-0.9-3.2l-4.2,0l-1.6,3.2l-1.6,0l5.2-10L508.3,307.1z M504.9,312.9l3.5,0
						l-0.8-2.9c-0.1-0.7-0.3-1.3-0.4-1.8l0,0c-0.3,0.6-0.5,1.2-0.8,1.8L504.9,312.9"/>
				</g>
				<g>
					<path fill="#FFFFFF" d="M516.3,309.7c0.9,0,1.6,0.2,2,0.5l-0.5,0.9c-0.3-0.2-0.9-0.5-1.6-0.4c-0.9,0-1.5,0.5-1.5,1
						c-0.1,0.6,0.4,0.9,1.5,1.2c1.4,0.4,2.1,1.1,1.9,2.2c-0.1,1.3-1.4,2.2-3.4,2.2c-0.9,0-1.7-0.2-2.3-0.5l0.5-1
						c0.4,0.3,1.2,0.5,1.9,0.5c1.1,0,1.7-0.5,1.7-1.1s-0.4-1-1.4-1.3c-1.4-0.4-2.1-1.2-2-2C513.2,310.7,514.5,309.7,516.3,309.7z"/>
				</g>
				<g>
					<path fill="#FFFFFF" d="M523.2,309.7c0.9,0,1.6,0.2,2,0.5l-0.5,0.9c-0.3-0.2-0.9-0.5-1.6-0.4c-0.9,0-1.5,0.5-1.5,1
						c-0.1,0.6,0.3,0.9,1.5,1.2c1.4,0.4,2.1,1.1,1.9,2.2c-0.1,1.3-1.4,2.2-3.4,2.2c-0.9,0-1.7-0.2-2.3-0.5l0.5-1
						c0.4,0.3,1.2,0.5,1.9,0.5c1.1,0,1.7-0.5,1.7-1.1s-0.4-1-1.4-1.3c-1.4-0.4-2.1-1.2-2-2C520.1,310.7,521.3,309.7,523.2,309.7z"/>
				</g>
				<g>
					<path fill="#FFFFFF" d="M534.3,309.8l-2.9,5.2c-1.4,2.5-2.3,3.7-3.5,4.5c-0.8,0.5-1.6,0.8-2,0.8l-0.3-1.1
						c0.4-0.1,0.9-0.3,1.5-0.7c0.5-0.3,1.1-0.8,1.4-1.5c0.1-0.1,0.2-0.2,0.2-0.3c0-0.1,0-0.2,0-0.3l-2.4-6.6l1.7,0l1.3,4.2
						c0.1,0.5,0.3,1.1,0.4,1.5l0,0c0.2-0.4,0.4-1,0.7-1.5l2.2-4.2L534.3,309.8z"/>
				</g>
				<g>
					<path fill="#FFFFFF" d="M539.4,309.8c0.2,0,0.3,0,0.4,0.1l-0.1,1.2c-0.2,0-0.3-0.1-0.5-0.1c-1.1,0-2,0.7-2.3,1.7
						c-0.1,0.2-0.1,0.4-0.2,0.6l-0.5,3.8l-1.5,0l0.6-4.9c0.1-0.8,0.2-1.6,0.2-2.2l1.3,0l-0.1,1.4l0.1,0
						C537.3,310.4,538.4,309.7,539.4,309.8z"/>
				</g>
				<g>
					<polygon fill="#FFFFFF" points="540.5,317.1 541.3,309.8 542.9,309.9 542,317 					"/>
				</g>
				<g>
					<path fill="#FFFFFF" d="M542.3,308.6c-0.5,0-0.9-0.4-0.8-0.8c0.1-0.5,0.5-0.8,1.1-0.9c0.6,0,0.9,0.4,0.8,0.9
						C543.2,308.2,542.9,308.7,542.3,308.6z"/>
				</g>
				<g>
					<path fill="#FFFFFF" d="M550.7,315.3c-0.1,0.6-0.1,1.2-0.1,1.7l-1.4,0l0-0.9l-0.1,0c-0.6,0.5-1.5,1.1-2.7,1.1
						c-1.7,0-2.5-1.1-2.3-2.1c0.2-1.7,2.2-2.7,5.4-2.7c0,0,0,0,0.1,0l0-0.1c0.1-0.6,0-1.7-1.7-1.7c-0.8,0-1.6,0.2-2.3,0.5l-0.2-0.9
						c0.8-0.3,1.8-0.6,2.9-0.7c2.6,0,3,1.5,2.9,2.9L550.7,315.3z M549.3,314.6l0.1-1.2c-0.1,0-0.2,0-0.2,0c-1.6,0-3.4,0.3-3.5,1.6
						c-0.1,0.8,0.5,1.3,1.3,1.2c1.1,0,1.9-0.6,2.2-1.2C549.2,314.9,549.3,314.7,549.3,314.6"/>
				</g>
				<g>
					<path fill="#FFFFFF" d="M558,309.6c1.2,0,2.9,0.5,2.6,3.1l-0.5,4.3l-1.5,0l0.5-4.1c0.1-1.2-0.2-2.1-1.7-2.1
						c-1,0-1.9,0.6-2.2,1.3c-0.1,0.2-0.2,0.4-0.2,0.6l-0.6,4.3l-1.5,0l0.6-5.2c0.1-0.7,0.1-1.3,0.2-1.9l1.4,0l0,1.2l0,0
						C555.6,310.4,556.6,309.7,558,309.6z"/>
				</g>
				<g>
					<path fill="#FFFFFF" d="M524.1,331c0,0.3-0.1,0.5-0.2,0.6l-5.9,0c-0.2,1.8,1,2.4,2.5,2.5c1.1,0,1.8-0.2,2.4-0.3l0.1,0.9
						c-0.6,0.2-1.5,0.5-2.9,0.5c-2.6,0-4-1.5-3.7-3.6c0.3-2.2,2-3.9,4.4-3.8C523.8,327.6,524.2,329.6,524.1,331z M518.1,330.6l4.5,0
						c0.2-0.8-0.1-2.1-1.9-2.1C519.2,328.6,518.4,329.7,518.1,330.6"/>
				</g>
				<g>
					<path fill="#FFFFFF" d="M514.5,332.2c0.2,1.4,0.3,2.4,0.6,2.8l-1.6,0c-0.1-0.3-0.4-1.2-0.5-2.4c-0.2-1.4-0.7-1.9-2.1-2l-1.4,0
						l-0.6,4.3l-1.5,0l1.2-9.9c0.8-0.1,1.9-0.2,2.9-0.3c1.6,0,2.6,0.3,3.2,0.8c0.5,0.5,0.8,1.2,0.7,1.9c-0.1,1.3-1.3,2.2-2.6,2.5
						l0,0C513.9,330.5,514.3,331.2,514.5,332.2z M511.2,329.6c1.6,0,2.8-0.8,2.9-1.9c0.1-1.3-0.9-1.9-2.5-1.9
						c-0.7,0-1.3,0.1-1.5,0.1l-0.4,3.6L511.2,329.6"/>
				</g>
				<g>
					<polygon fill="#FFFFFF" points="528.3,324.4 527,335 525.5,335 526.8,324.4 					"/>
				</g>
				<g>
					<polygon fill="#FFFFFF" points="529.6,334.9 530.5,327.8 532,327.7 531.2,334.9 					"/>
				</g>
				<g>
					<path fill="#FFFFFF" d="M531.3,326.5c-0.5,0-0.9-0.4-0.8-0.8c0.1-0.5,0.5-0.8,1.1-0.9s0.9,0.4,0.8,0.9
						C532.4,326.2,531.9,326.5,531.3,326.5z"/>
				</g>
				<g>
					<path fill="#FFFFFF" d="M546.9,324.2c0.5,0,1,0.1,1.3,0.2l-0.3,1c-0.2-0.1-0.5-0.2-0.9-0.2c-1.3,0-1.7,1-1.9,2.1l-0.1,0.4l2,0
						l-0.1,1l-2,0l-0.8,6.3l-1.5,0l0.8-6.3l-1.2,0l0.1-1l1.2,0l0.1-0.3c0.1-1,0.5-1.9,1.3-2.5C545.4,324.3,546.1,324.2,546.9,324.2z
						"/>
				</g>
				<g>
					<path fill="#FFFFFF" d="M541,330.9c0,0.3-0.1,0.5-0.2,0.6l-5.9,0c-0.2,1.8,1,2.4,2.5,2.5c1.1,0,1.8-0.2,2.4-0.3l0.1,0.9
						c-0.6,0.2-1.5,0.5-2.9,0.5c-2.6,0-4-1.5-3.7-3.6c0.3-2.2,2-3.9,4.4-3.8C540.7,327.5,541.1,329.6,541,330.9z M535,330.6l4.5,0
						c0.2-0.8-0.1-2.1-1.9-2.1C536.1,328.5,535.3,329.7,535,330.6"/>
				</g>
				<g>
					<path fill="#FFFFFF" d="M550.9,327.6c0.9,0,1.6,0.2,2,0.5l-0.5,0.9c-0.3-0.2-0.9-0.5-1.6-0.4c-0.9,0-1.5,0.5-1.5,1
						c-0.1,0.6,0.4,0.9,1.5,1.2c1.4,0.4,2.1,1.1,1.9,2.2c-0.1,1.3-1.4,2.2-3.4,2.2c-0.9,0-1.7-0.2-2.3-0.5l0.5-1
						c0.4,0.3,1.2,0.5,1.9,0.5c1.1,0,1.7-0.5,1.7-1.1s-0.4-1-1.4-1.3c-1.4-0.4-2.1-1.2-2-2C548,328.5,549.1,327.5,550.9,327.6z"/>
				</g>
			</g>
		</g>
		<g>
			<g>
				<g>
					<path fill="#FFFFFF" d="M545.3,394.6l-0.3,2.5l2.9,0l-0.1,1.2l-2.9,0l-0.5,4.7c-0.1,1.1,0.2,1.7,1.3,1.7c0.5,0,0.9,0,1.2-0.1
						l0,1.2c-0.4,0.1-1,0.3-1.8,0.2c-0.9,0-1.6-0.2-2-0.7c-0.5-0.5-0.7-1.3-0.5-2.3l0.5-4.8l-1.7,0l0.1-1.2l1.7,0l0.3-2.1
						L545.3,394.6z"/>
				</g>
				<g>
					<path fill="#FFFFFF" d="M535.3,396.9c2.7,0,4.5,1.8,4.2,4.5c-0.4,3.1-2.9,4.8-5.6,4.7c-1.5,0-2.6-0.5-3.3-1.4l0,0l-0.5,4.8
						l-2,0l1.2-9.6c0.1-1.1,0.2-2,0.2-2.9l1.8,0l-0.1,1.5l0,0C532.1,397.6,533.5,396.9,535.3,396.9z M533.7,404.9
						c2.1,0,3.5-1.4,3.8-3.4c0.2-1.8-0.8-3.3-2.9-3.2c-1.4,0-2.8,0.8-3.3,2c-0.1,0.2-0.2,0.4-0.3,0.6l-0.2,1.5c0,0.2,0,0.5,0,0.7
						C531.2,404.1,532.2,404.9,533.7,404.9"/>
				</g>
				<g>
					<path fill="#FFFFFF" d="M527.7,397.1l-3.8,6.3c-1.8,3-3,4.6-4.5,5.6c-1.1,0.7-2,1-2.5,1l-0.4-1.4c0.5-0.1,1.2-0.4,1.9-0.8
						c0.6-0.3,1.3-1,1.9-1.8c0.1-0.2,0.2-0.3,0.2-0.4c0-0.1,0-0.2-0.1-0.4l-3.1-8.1l2.2,0l1.8,5.2c0.1,0.6,0.4,1.3,0.5,1.8l0,0
						c0.3-0.5,0.5-1.2,0.9-1.9l2.8-5.2L527.7,397.1z"/>
				</g>
				<g>
					<path fill="#FFFFFF" d="M513.8,397.2l1.8,0c-0.2,0.6-0.2,1.3-0.4,2.4l-0.6,5.1c-0.3,2-0.9,3.3-2.1,4c-1.2,0.8-2.7,1.1-4.1,1
						c-1.3,0-2.7-0.3-3.5-0.7l0.6-1.2c0.7,0.4,1.8,0.7,3.1,0.7c2.1,0,3.7-0.9,3.9-3.1l0.1-1l0,0c-0.8,0.8-2,1.5-3.7,1.5
						c-2.7,0-4.5-1.9-4.1-4.3c0.3-3,2.9-4.7,5.6-4.7c1.9,0,2.9,0.8,3.3,1.5l0,0L513.8,397.2z M512.8,402.2l0.2-1.6
						c0-0.3,0.1-0.5,0-0.7c-0.2-0.9-1.2-1.7-2.6-1.7c-1.9,0-3.4,1.3-3.7,3.3c-0.2,1.7,0.7,3.2,2.9,3.1c1.2,0,2.5-0.6,3-1.7
						C512.8,402.8,512.8,402.5,512.8,402.2"/>
				</g>
				<g>
					<polygon fill="#FFFFFF" points="503.6,393.7 503.4,395 497.1,395.1 496.6,398.9 502.6,398.9 502.4,400.3 496.5,400.2 
						495.9,404.7 502.6,404.7 502.4,406 493.8,406.1 495.2,393.8 					"/>
				</g>
			</g>
		</g>
		<g>
			<g>
				<g>
					<polygon fill="#FFFFFF" points="334.4,471.8 334.2,473.5 326.7,473.5 326.1,478.5 333.1,478.4 332.9,480.1 325.9,480.1 
						325.2,485.7 333.1,485.7 332.9,487.3 322.7,487.4 324.6,471.8 					"/>
				</g>
				<g>
					<path fill="#FFFFFF" d="M343.7,475.9c1.8,0,4.6,1,4.1,4.7l-0.8,6.7l-2.4,0l0.7-6.5c0.2-1.8-0.4-3.3-2.7-3.3
						c-1.6,0-2.9,1-3.4,2.1c-0.2,0.2-0.3,0.6-0.3,0.9l-0.8,6.7l-2.4,0l1-8.2c0.1-1.1,0.2-2.1,0.2-3l2.1,0l-0.1,1.8l0.1,0
						C340,477,341.6,475.9,343.7,475.9z"/>
				</g>
				<g>
					<path fill="#FFFFFF" d="M355.5,473l-0.4,3.2l3.4,0l-0.2,1.5l-3.4,0l-0.7,6c-0.1,1.4,0.2,2.2,1.5,2.1c0.6,0,1.1-0.1,1.4-0.2
						l-0.1,1.5c-0.5,0.1-1.2,0.3-2.2,0.3c-1.1,0-1.9-0.3-2.5-0.9c-0.6-0.6-0.7-1.6-0.6-2.9l0.8-6.1l-2,0l0.2-1.5l2,0l0.4-2.7
						L355.5,473z"/>
				</g>
				<g>
					<path fill="#FFFFFF" d="M366.9,475.8c0.3,0,0.4,0,0.7,0.1l-0.2,1.9c-0.2-0.1-0.5-0.1-0.8-0.1c-1.7,0-3,1.1-3.5,2.6
						c-0.1,0.3-0.2,0.6-0.3,0.9l-0.7,5.9l-2.4,0l0.9-7.7c0.1-1.3,0.3-2.4,0.3-3.5l2.1,0l-0.2,2.2l0.1,0
						C363.8,476.8,365.3,475.9,366.9,475.8z"/>
				</g>
				<g>
					<path fill="#FFFFFF" d="M378.1,484.5c-0.1,1-0.2,1.9-0.2,2.7l-2.2,0l-0.1-1.4l-0.1,0c-0.9,0.8-2.3,1.6-4.2,1.6
						c-2.6,0-3.8-1.6-3.6-3.2c0.4-2.7,3.3-4.2,8.3-4.2l0.1,0l0-0.2c0.2-0.9,0.1-2.6-2.6-2.6c-1.2,0-2.5,0.3-3.5,0.8l-0.4-1.4
						c1.2-0.6,2.8-1,4.4-1c4,0,4.7,2.3,4.5,4.6L378.1,484.5z M376,483.6l0.2-1.9c-0.1,0-0.3,0-0.4,0c-2.5,0-5.2,0.5-5.5,2.5
						c-0.1,1.3,0.8,2,2,1.9c1.7,0,2.9-1,3.4-1.9C375.9,484,376,483.8,376,483.6"/>
				</g>
				<g>
					<path fill="#FFFFFF" d="M389.6,475.8c1.8,0,4.5,1,4.1,4.7l-0.8,6.7l-2.4,0l0.7-6.5c0.2-1.8-0.4-3.3-2.7-3.3
						c-1.6,0-2.9,1-3.4,2.1c-0.2,0.2-0.3,0.6-0.3,0.9l-0.8,6.7l-2.4,0l1-8.2c0.1-1.1,0.2-2.1,0.2-3l2.1,0l-0.1,1.8l0.1,0
						C385.7,476.9,387.4,475.8,389.6,475.8z"/>
				</g>
				<g>
					<path fill="#FFFFFF" d="M420.1,481c-0.1,0.4-0.2,0.7-0.2,0.9l-9.2,0c-0.3,2.7,1.6,3.9,4,3.9c1.7,0,2.8-0.3,3.7-0.6l0.3,1.5
						c-0.9,0.3-2.4,0.7-4.5,0.7c-4,0-6.1-2.3-5.7-5.6c0.4-3.3,3.1-6,6.9-6C419.6,475.8,420.3,478.9,420.1,481z M410.9,480.5l6.9,0
						c0.2-1.3-0.2-3.3-2.9-3.2C412.6,477.2,411.3,479.1,410.9,480.5"/>
				</g>
				<g>
					<path fill="#FFFFFF" d="M404.1,475.8c1.4,0,2.6,0.3,3.2,0.5l-0.7,1.5c-0.5-0.3-1.4-0.5-2.7-0.6c-3,0-4.8,1.9-5.2,4.2
						c-0.4,2.6,1.4,4.1,4,4.2c1.3,0,2.3-0.3,3-0.6l0.2,1.5c-0.7,0.2-2.1,0.6-3.9,0.6c-3.9,0-6.2-2.3-5.8-5.7
						C396.8,478.3,399.8,475.8,404.1,475.8z"/>
				</g>
			</g>
		</g>
		<g>
			<g>
				<g>
					<polygon fill="#FFFFFF" points="350.5,358.8 350.3,360.4 343.2,360.4 342.6,365.3 349.2,365.3 348.9,366.9 342.3,366.9 
						341.6,373.7 339.3,373.7 341.1,358.8 					"/>
				</g>
				<g>
					<path fill="#FFFFFF" d="M366.7,362.7c3.6,0,5.7,2.2,5.3,5.5c-0.5,3.9-3.9,5.7-6.9,5.7c-3.4,0-5.7-2.1-5.3-5.5
						C360.4,364.7,363.3,362.7,366.7,362.7z M365.5,372.4c2.2,0,4-1.7,4.3-4.1c0.2-1.8-0.5-4.1-3.2-4.1c-2.7,0-4.1,2.1-4.4,4.1
						C362,370.6,363.3,372.4,365.5,372.4"/>
				</g>
				<g>
					<path fill="#FFFFFF" d="M358.6,362.6c0.3,0,0.4,0,0.6,0.1l-0.2,1.8c-0.2-0.1-0.5-0.1-0.8-0.1c-1.6,0-2.8,1.1-3.4,2.5
						c-0.1,0.3-0.2,0.6-0.3,0.9l-0.7,5.7l-2.2,0l0.9-7.4c0.1-1.3,0.3-2.3,0.3-3.3l2,0l-0.2,2.1l0.1,0
						C355.6,363.6,357,362.7,358.6,362.6z"/>
				</g>
				<g>
					<path fill="#FFFFFF" d="M381.8,362.7c1.7,0,4.3,0.9,3.9,4.6l-0.8,6.4l-2.3,0l0.8-6.2c0.2-1.7-0.4-3.2-2.5-3.2
						c-1.5,0-2.8,1-3.3,2c-0.1,0.2-0.3,0.6-0.3,0.9l-0.7,6.5l-2.3,0l1-7.9c0.1-1.1,0.2-2,0.2-2.9l2,0l-0.1,1.8l0.1,0
						C378.2,363.6,379.8,362.7,381.8,362.7z"/>
				</g>
				<g>
					<path fill="#FFFFFF" d="M392.9,359.7l-0.3,3.1l3.2,0l-0.2,1.5l-3.2,0l-0.7,5.7c-0.1,1.3,0.2,2.1,1.4,2.1c0.6,0,1-0.1,1.3-0.2
						l0,1.5c-0.5,0.1-1.2,0.3-2.1,0.3c-1,0-1.8-0.3-2.3-0.8c-0.5-0.6-0.7-1.6-0.6-2.8l0.7-5.8l-1.9,0l0.2-1.5l1.9,0l0.3-2.5
						L392.9,359.7z"/>
				</g>
				<g>
					<polygon fill="#FFFFFF" points="417.2,358.6 415.4,373.5 413.2,373.4 414,366.5 405.6,366.6 404.8,373.5 402.6,373.5 
						404.4,358.6 406.6,358.6 405.8,364.8 414.2,364.8 415,358.5 					"/>
				</g>
				<g>
					<path fill="#FFFFFF" d="M428.3,370.9c-0.2,0.9-0.2,1.8-0.1,2.6l-2.1,0l0-1.4l-0.1,0c-0.8,0.8-2.2,1.6-4,1.6
						c-2.5,0-3.6-1.5-3.5-3.1c0.3-2.5,3.1-4,7.9-4l0.1,0l0-0.2c0.2-0.9,0-2.5-2.5-2.5c-1.2,0-2.4,0.3-3.4,0.8l-0.4-1.3
						c1.1-0.6,2.7-0.9,4.2-0.9c3.8,0,4.4,2.3,4.2,4.4L428.3,370.9z M426.2,369.8l0.2-1.8c-0.1,0-0.3,0-0.4,0c-2.4,0-4.9,0.5-5.2,2.4
						c-0.1,1.3,0.8,1.9,1.9,1.9c1.6,0,2.8-0.9,3.2-1.8C426.1,370.2,426.2,370,426.2,369.8"/>
				</g>
				<g>
					<polygon fill="#FFFFFF" points="435.8,357.7 433.9,373.4 431.6,373.4 433.5,357.7 					"/>
				</g>
				<g>
					<polygon fill="#FFFFFF" points="441.8,357.7 439.9,373.4 437.7,373.4 439.6,357.7 					"/>
				</g>
			</g>
		</g>
		<g>
			<g>
				<g>
					<path fill="#FFFFFF" d="M393.6,264.9c1.1,0,1.8,0.2,2.3,0.5l-0.5,0.9c-0.3-0.2-1-0.4-1.9-0.4c-1.4,0-2.1,0.7-2.1,1.3
						c-0.1,0.8,0.5,1.3,1.9,1.7c1.7,0.6,2.6,1.4,2.3,2.7c-0.1,1.4-1.6,2.6-4.1,2.6c-1,0-2.1-0.3-2.6-0.6l0.5-0.9
						c0.6,0.3,1.4,0.6,2.3,0.6c1.4,0,2.3-0.6,2.4-1.5c0.1-0.8-0.4-1.3-1.8-1.8c-1.6-0.5-2.7-1.3-2.5-2.6
						C390.1,266,391.6,264.9,393.6,264.9z"/>
				</g>
				<g>
					<path fill="#FFFFFF" d="M410.6,272.4c-0.1,0.6-0.1,1.1,0,1.5l-1.3,0l0-0.8l0,0c-0.5,0.5-1.3,1-2.5,0.9c-1.5,0-2.3-0.9-2.1-1.9
						c0.2-1.5,1.9-2.4,4.8-2.4c0,0,0,0,0.1,0l0-0.1c0.1-0.5,0-1.5-1.6-1.5c-0.7,0-1.5,0.2-2.1,0.5l-0.2-0.8c0.7-0.3,1.6-0.6,2.6-0.5
						c2.3,0,2.7,1.4,2.5,2.7L410.6,272.4z M409.3,271.8l0.1-1.1c-0.1,0-0.2,0-0.2,0c-1.4,0-3,0.3-3.1,1.5c-0.1,0.8,0.5,1.1,1.2,1.1
						c1,0,1.7-0.5,1.9-1.1C409.3,272,409.3,271.9,409.3,271.8"/>
				</g>
				<g>
					<path fill="#FFFFFF" d="M403.8,270.4c0,0.2-0.1,0.4-0.1,0.5l-5.3,0c-0.1,1.6,0.9,2.3,2.3,2.3c1,0,1.6-0.2,2.2-0.3l0.1,0.8
						c-0.5,0.2-1.4,0.4-2.6,0.4c-2.3,0-3.6-1.3-3.4-3.2c0.2-1.9,1.8-3.5,4-3.5C403.5,267.4,403.9,269.2,403.8,270.4z M398.4,270.1
						l4,0c0.1-0.7-0.1-1.9-1.7-1.9C399.3,268.3,398.6,269.4,398.4,270.1"/>
				</g>
				<g>
					<path fill="#FFFFFF" d="M382.4,282.1c0.8,0.8,1.3,1.7,1.1,3.2c-0.2,1.4-0.9,2.7-1.9,3.5c-1.1,0.9-2.7,1.3-4.8,1.3
						c-1,0-1.8,0-2.5-0.1l1-8.8c0.9-0.1,1.9-0.2,2.9-0.2C380.2,280.9,381.5,281.3,382.4,282.1z M377,289.1c2.9,0,4.7-1.4,5-3.8
						c0.3-2.1-1-3.5-3.9-3.5c-0.7,0-1.3,0.1-1.6,0.1l-0.8,7.1C376,289.2,376.5,289.1,377,289.1"/>
				</g>
				<g>
					<path fill="#FFFFFF" d="M388.7,283.4c0.2,0,0.3,0,0.4,0.1l-0.1,1.1c-0.1,0-0.3-0.1-0.5-0.1c-1,0-1.8,0.6-2,1.5
						c-0.1,0.2-0.1,0.3-0.2,0.5l-0.4,3.4l-1.4,0l0.6-4.4c0.1-0.8,0.1-1.4,0.2-2l1.2,0l-0.1,1.3l0.1,0
						C387,284,387.8,283.4,388.7,283.4z"/>
				</g>
				<g>
					<path fill="#FFFFFF" d="M403.5,283.4l1.2,0c-0.1,0.5-0.1,1-0.3,1.7l-0.5,3.7c-0.2,1.5-0.7,2.3-1.4,3c-0.8,0.5-1.9,0.8-2.9,0.8
						c-0.9,0-1.9-0.2-2.4-0.6l0.5-0.9c0.5,0.3,1.2,0.5,2.1,0.5c1.4,0,2.6-0.6,2.7-2.2l0.1-0.7l0,0c-0.5,0.6-1.3,1.1-2.5,1
						c-1.9,0-3.1-1.3-2.9-3.1c0.3-2.2,2.1-3.4,3.8-3.4c1.3,0,1.9,0.6,2.3,1.1l0,0L403.5,283.4z M402.8,287.2l0.1-1.1
						c0-0.2,0-0.4,0-0.5c-0.1-0.7-0.8-1.3-1.8-1.2c-1.3,0-2.4,0.9-2.6,2.4c-0.1,1.3,0.5,2.3,2,2.3c0.8,0,1.7-0.5,2-1.2
						C402.7,287.6,402.8,287.4,402.8,287.2"/>
				</g>
				<g>
					<path fill="#FFFFFF" d="M395.3,288.4c-0.1,0.5-0.1,1.1,0,1.5l-1.3,0l0-0.8l0,0c-0.5,0.5-1.3,1-2.5,0.9c-1.5,0-2.3-0.9-2.1-1.9
						c0.2-1.5,1.9-2.4,4.8-2.4c0,0,0,0,0.1,0l0-0.1c0.1-0.5,0-1.5-1.6-1.5c-0.7,0-1.5,0.2-2.1,0.5l-0.2-0.8c0.7-0.3,1.6-0.6,2.6-0.5
						c2.3,0,2.8,1.4,2.5,2.7L395.3,288.4z M394.1,287.8l0.1-1.1c-0.1,0-0.2,0-0.2,0c-1.4,0-3,0.3-3.1,1.5c-0.1,0.8,0.5,1.1,1.2,1.1
						c1,0,1.7-0.5,1.9-1.1C394,288.1,394,287.9,394.1,287.8"/>
				</g>
				<g>
					<path fill="#FFFFFF" d="M410.2,283.3c2.2,0,3.5,1.3,3.3,3.3c-0.3,2.4-2.3,3.4-4.2,3.4c-2.1,0-3.5-1.3-3.3-3.3
						C406.2,284.6,408.1,283.3,410.2,283.3z M409.4,289.1c1.3,0,2.4-1,2.6-2.5c0.1-1.1-0.3-2.5-1.9-2.5c-1.6,0-2.5,1.2-2.7,2.5
						C407.2,288.1,408.1,289.2,409.4,289.1"/>
				</g>
				<g>
					<path fill="#FFFFFF" d="M419.4,283.3c1,0,2.6,0.6,2.4,2.8l-0.5,3.8l-1.4,0l0.4-3.7c0.1-1-0.2-1.9-1.5-1.9c-0.9,0-1.7,0.6-2,1.2
						c-0.1,0.1-0.2,0.3-0.2,0.5l-0.5,3.8l-1.4,0l0.5-4.7c0.1-0.7,0.1-1.2,0.1-1.7l1.2,0l0,1.1l0,0
						C417.1,283.9,418.1,283.3,419.4,283.3z"/>
				</g>
				<g>
					<path fill="#FFFFFF" d="M426.6,283.3c0.8,0,1.4,0.2,1.8,0.4l-0.5,0.8c-0.3-0.2-0.8-0.4-1.5-0.4c-0.8,0-1.3,0.4-1.4,0.9
						s0.3,0.8,1.4,1.1c1.2,0.4,1.9,1,1.8,1.9c-0.1,1.1-1.3,2-3.1,2c-0.8,0-1.6-0.2-2.1-0.4l0.5-0.9c0.4,0.2,1,0.4,1.7,0.5
						c1,0,1.5-0.4,1.5-1c0.1-0.6-0.2-0.9-1.3-1.1c-1.3-0.4-1.9-1-1.8-1.8C423.9,284.1,425,283.3,426.6,283.3z"/>
				</g>
			</g>
		</g>
		<g>
			<g>
				<g>
					<path fill="#FFFFFF" d="M387.9,214.2c-0.1,0.4-0.2,0.7-0.2,0.9l-7.9,0c-0.3,2.5,1.4,3.5,3.4,3.5c1.5,0,2.4-0.2,3.2-0.6l0.2,1.3
						c-0.8,0.3-2.1,0.6-3.9,0.6c-3.5,0-5.3-2.1-4.9-5.1c0.4-3,2.7-5.6,6-5.5C387.4,209.3,388.1,212.3,387.9,214.2z M379.9,213.7l6,0
						c0.1-1.2-0.2-3-2.5-3.1C381.4,210.7,380.2,212.4,379.9,213.7"/>
				</g>
				<g>
					<path fill="#FFFFFF" d="M375,216c0.3,2,0.5,3.4,0.7,4l-2.1,0c-0.2-0.4-0.4-1.7-0.7-3.5c-0.2-2-1-2.8-2.9-2.7l-1.9,0l-0.8,6.3
						l-2,0l1.7-14.1c1.1-0.2,2.5-0.3,3.9-0.3c2.2,0,3.5,0.3,4.4,1.2c0.7,0.7,1.1,1.6,1,2.8c-0.2,1.9-1.7,3.2-3.4,3.7l0,0.1
						C374.2,213.4,374.9,214.5,375,216z M370.5,212.3c2.2,0,3.6-1.1,3.9-2.7c0.2-1.8-1.1-2.6-3.2-2.6c-1,0-1.7,0.1-2,0.2l-0.6,5.2
						L370.5,212.3"/>
				</g>
				<g>
					<path fill="#FFFFFF" d="M397.9,217.4c-0.2,0.9-0.2,1.8-0.1,2.5l-1.9,0l0-1.3l-0.1,0c-0.8,0.8-2,1.5-3.6,1.5
						c-2.3,0-3.3-1.4-3.1-2.9c0.3-2.5,2.9-3.9,7.1-3.9l0.1,0l0-0.2c0.1-0.8,0.1-2.4-2.2-2.4c-1,0-2.2,0.3-3.1,0.8l-0.3-1.2
						c1-0.6,2.4-0.9,3.9-0.9c3.4,0,4,2.2,3.7,4.2L397.9,217.4z M396.1,216.4l0.2-1.8c-0.1,0-0.2,0-0.3,0c-2.1,0-4.5,0.4-4.7,2.4
						c-0.1,1.2,0.7,1.8,1.7,1.8c1.5,0,2.5-0.8,2.9-1.8C395.9,216.8,396,216.6,396.1,216.4"/>
				</g>
				<g>
					<path fill="#FFFFFF" d="M407.1,209.3c0.2,0,0.4,0,0.6,0.1l-0.2,1.8c-0.2-0.1-0.4-0.1-0.7-0.1c-1.4,0-2.5,1-3.1,2.4
						c-0.1,0.3-0.2,0.5-0.2,0.9l-0.7,5.4l-2,0l0.8-7.1c0.1-1.2,0.3-2.2,0.3-3.2l1.8,0l-0.2,2l0.1,0
						C404.5,210.2,405.8,209.3,407.1,209.3z"/>
				</g>
				<g>
					<polygon fill="#FFFFFF" points="426.9,205.4 425.2,219.8 423.2,219.8 424,213.1 416.3,213.1 415.6,219.8 413.5,219.8 
						415.2,205.5 417.3,205.5 416.6,211.5 424.2,211.5 424.9,205.5 					"/>
				</g>
				<g>
					<path fill="#FFFFFF" d="M436.9,217.3c-0.2,0.9-0.2,1.8-0.1,2.5l-1.9,0l0-1.3l-0.1,0c-0.8,0.8-2,1.5-3.6,1.5
						c-2.3,0-3.3-1.4-3.1-2.9c0.3-2.5,2.9-3.9,7.1-3.9l0.1,0l0-0.2c0.1-0.8,0.1-2.4-2.2-2.4c-1,0-2.2,0.3-3.1,0.8l-0.3-1.2
						c1-0.6,2.4-0.9,3.9-0.9c3.4,0,4,2.2,3.7,4.2L436.9,217.3z M435,216.3l0.2-1.8c-0.1,0-0.2,0-0.3,0c-2.1,0-4.5,0.4-4.7,2.4
						c-0.1,1.2,0.7,1.8,1.7,1.8c1.5,0,2.5-0.8,2.9-1.8C435,216.7,435.1,216.5,435,216.3"/>
				</g>
				<g>
					<polygon fill="#FFFFFF" points="443.8,204.6 441.9,219.7 439.9,219.8 441.7,204.6 					"/>
				</g>
				<g>
					<polygon fill="#FFFFFF" points="449.2,204.6 447.5,219.7 445.4,219.8 447.2,204.6 					"/>
				</g>
			</g>
		</g>
		<g>
			<g>
				<g>
					<path fill="#FFFFFF" d="M469.5,124.5c1,0,1.6,0.2,1.8,0.3l-0.4,0.7c-0.4-0.2-0.9-0.3-1.6-0.2c-1.9,0-3.3,1-3.5,2.6
						c-0.2,1.5,0.8,2.6,2.7,2.6c0.6,0,1.3-0.1,1.7-0.3l0.1,0.7c-0.4,0.1-1.2,0.3-2.2,0.3c-2.2,0-3.8-1.1-3.6-3.2
						C465.1,125.9,467,124.5,469.5,124.5z"/>
				</g>
				<g>
					<path fill="#FFFFFF" d="M477.2,126.4l-0.4,3.3c-0.1,0.5-0.1,0.9-0.1,1.2l-0.9,0l0.1-0.7l0,0c-0.3,0.4-1,0.9-2,0.8
						c-0.9,0-1.9-0.4-1.7-2l0.4-2.7l1,0l-0.3,2.5c-0.2,0.9,0.2,1.5,1.1,1.4c0.7,0,1.2-0.4,1.5-0.8c0.1-0.1,0.1-0.3,0.2-0.4l0.3-2.8
						L477.2,126.4z"/>
				</g>
				<g>
					<path fill="#FFFFFF" d="M485,125l-0.1,1.3l1.5,0l-0.1,0.6l-1.5,0l-0.3,2.4c-0.1,0.6,0,0.9,0.6,0.9c0.3,0,0.5,0,0.6,0l-0.1,0.6
						c-0.2,0.1-0.5,0.1-0.9,0.1c-0.5,0-0.9-0.2-1.1-0.3c-0.3-0.3-0.3-0.7-0.3-1.2l0.3-2.5l-0.9,0l0.1-0.6l0.9,0l0.1-1.1L485,125z"/>
				</g>
				<g>
					<path fill="#FFFFFF" d="M480.7,126.3c0.6,0,1.1,0.1,1.4,0.2l-0.4,0.6c-0.2-0.1-0.6-0.3-1.1-0.2c-0.6,0-1,0.3-1.1,0.7
						c-0.1,0.4,0.2,0.6,0.9,0.7c0.9,0.3,1.4,0.7,1.4,1.3c-0.1,0.8-0.9,1.4-2.3,1.3c-0.6,0-1.2-0.1-1.6-0.3l0.4-0.6
						c0.3,0.2,0.8,0.4,1.3,0.3c0.8,0,1.2-0.3,1.2-0.7c0.1-0.4-0.2-0.6-0.9-0.8c-1-0.2-1.4-0.7-1.4-1.3
						C478.6,126.9,479.4,126.4,480.7,126.3z"/>
				</g>
				<g>
					<path fill="#FFFFFF" d="M490,126.3c1.6,0,2.7,1,2.4,2.4c-0.2,1.7-1.8,2.4-3.2,2.5c-1.5,0-2.7-0.9-2.4-2.4
						C487.1,127.2,488.4,126.3,490,126.3z M489.4,130.4c1,0,1.9-0.7,1.9-1.8c0.1-0.8-0.3-1.8-1.5-1.7c-1.2,0-1.9,0.9-2,1.8
						C487.8,129.7,488.4,130.5,489.4,130.4"/>
				</g>
				<g>
					<path fill="#FFFFFF" d="M500.3,126.3c0.8,0,1.8,0.4,1.6,2l-0.4,2.7l-1,0l0.4-2.6c0.2-0.9-0.3-1.4-1.1-1.4
						c-0.6,0-1.1,0.4-1.4,0.8c-0.1,0.1-0.1,0.3-0.2,0.4L498,131l-1,0l0.4-2.7c0.1-0.7-0.3-1.3-1.1-1.2c-0.6,0-1.2,0.5-1.4,0.9
						c-0.1,0.1-0.1,0.3-0.2,0.4l-0.4,2.7l-1,0l0.4-3.3c0.1-0.5,0.1-0.9,0.1-1.2l0.9,0l-0.1,0.7l0,0c0.4-0.4,1-0.9,1.9-0.8
						c0.8,0,1.3,0.3,1.6,0.9l0,0c0.2-0.2,0.5-0.4,0.7-0.6C499.4,126.4,499.8,126.2,500.3,126.3z"/>
				</g>
				<g>
					<path fill="#FFFFFF" d="M462,136l-0.5,4.2c-0.2,1.7-1.3,2.2-2.7,2.2c-0.4,0-0.8-0.1-1.1-0.1l0.3-0.7c0.2,0.1,0.5,0.1,0.8,0.2
						c0.9,0,1.5-0.3,1.6-1.6l0.5-4.2L462,136z"/>
				</g>
				<g>
					<path fill="#FFFFFF" d="M482.5,139.8c0,0.2-0.1,0.3-0.1,0.4l-4,0c-0.1,1.1,0.7,1.6,1.8,1.6c0.7,0,1.2-0.1,1.6-0.2l0.1,0.6
						c-0.4,0.1-1,0.3-2,0.3c-1.8,0-2.8-1-2.5-2.3c0.1-1.4,1.4-2.5,3-2.5C482.3,137.6,482.7,139,482.5,139.8z M478.5,139.6l3,0
						c0.1-0.5-0.1-1.4-1.3-1.3C479.2,138.3,478.7,139,478.5,139.6"/>
				</g>
				<g>
					<path fill="#FFFFFF" d="M477.1,137.8l-2.4,4.5l-0.9,0l-0.6-2.2c-0.1-0.5-0.3-1-0.3-1.5l0,0c-0.2,0.5-0.4,1-0.7,1.5l-1.2,2.2
						l-0.9,0l-1.2-4.5l1.1,0l0.4,2.3c0.1,0.5,0.2,1,0.3,1.5l0,0c0.2-0.5,0.5-0.9,0.7-1.4l1.2-2.4l0.9,0l0.6,2.3
						c0.1,0.6,0.3,1,0.3,1.5l0,0c0.2-0.5,0.4-0.9,0.6-1.4l1.1-2.3L477.1,137.8z"/>
				</g>
				<g>
					<path fill="#FFFFFF" d="M467.9,139.8c0,0.2-0.1,0.3-0.1,0.4l-4,0c-0.1,1.1,0.7,1.6,1.8,1.6c0.7,0,1.2-0.1,1.6-0.2l0.1,0.6
						c-0.4,0.1-1,0.3-1.9,0.3c-1.8,0-2.8-1-2.5-2.3c0.1-1.4,1.3-2.5,3-2.5C467.7,137.7,468,139,467.9,139.8z M463.9,139.6l3,0
						c0.1-0.5-0.1-1.4-1.3-1.3C464.6,138.3,464.1,139.1,463.9,139.6"/>
				</g>
				<g>
					<polygon fill="#FFFFFF" points="485.4,135.6 484.6,142.3 483.6,142.4 484.4,135.6 					"/>
				</g>
				<g>
					<polygon fill="#FFFFFF" points="488.2,135.6 487.4,142.3 486.4,142.3 487.1,135.7 					"/>
				</g>
				<g>
					<path fill="#FFFFFF" d="M494,139.8c0,0.2-0.1,0.3-0.1,0.4l-4,0c-0.1,1.1,0.7,1.6,1.8,1.6c0.7,0,1.2-0.1,1.6-0.2l0.1,0.6
						c-0.4,0.1-1,0.3-1.9,0.3c-1.8,0-2.8-1-2.5-2.3c0.1-1.4,1.3-2.5,3-2.5C493.8,137.6,494.2,139,494,139.8z M490,139.6l3,0
						c0.1-0.5-0.1-1.4-1.3-1.3C490.8,138.3,490.2,139,490,139.6"/>
				</g>
				<g>
					<path fill="#FFFFFF" d="M498.1,137.7c0.1,0,0.2,0,0.3,0l-0.1,0.8c-0.1,0-0.2,0-0.4,0c-0.7,0-1.3,0.5-1.5,1.1
						c0,0.1-0.1,0.2-0.1,0.4l-0.3,2.4l-1,0l0.3-3.1c0.1-0.5,0.1-1,0.1-1.4l0.9,0l-0.1,0.9l0.1,0C496.9,138,497.5,137.6,498.1,137.7z
						"/>
				</g>
				<g>
					<path fill="#FFFFFF" d="M504.1,137.7l-1.9,3.3c-0.9,1.6-1.6,2.4-2.3,2.8c-0.6,0.3-1.1,0.5-1.4,0.6l-0.1-0.7
						c0.3,0,0.6-0.2,1-0.5c0.3-0.2,0.7-0.5,0.9-1c0.1-0.1,0.1-0.1,0.1-0.2c0,0,0-0.1,0-0.2l-1.6-4.2l1.1,0l0.9,2.7
						c0.1,0.3,0.2,0.7,0.2,0.9l0,0c0.2-0.3,0.3-0.6,0.5-0.9l1.5-2.7L504.1,137.7z"/>
				</g>
			</g>
		</g>
		<g>
			<g>
				<g>
					<path fill="#FFFFFF" d="M271.8,197c0,0.2-0.1,0.4-0.1,0.5l-5.2,0c-0.1,1.6,0.9,2.3,2.3,2.3c1,0,1.6-0.2,2.1-0.3l0.1,0.8
						c-0.5,0.2-1.4,0.4-2.5,0.4c-2.3,0-3.5-1.3-3.3-3.2s1.7-3.5,3.9-3.5C271.5,194,272,195.8,271.8,197z M266.5,196.7l4,0
						c0.1-0.7-0.1-1.9-1.7-1.9C267.5,194.9,266.8,195.9,266.5,196.7"/>
				</g>
				<g>
					<polygon fill="#FFFFFF" points="265.3,191.7 265.2,192.6 262,192.6 261,200.6 259.7,200.6 260.7,192.6 257.5,192.6 
						257.6,191.7 					"/>
				</g>
				<g>
					<path fill="#FFFFFF" d="M282.1,194c1,0,2.4,0.6,2.2,2.8l-0.5,3.8l-1.3,0l0.4-3.6c0.1-1.2-0.3-2-1.4-1.9c-0.8,0-1.5,0.5-1.7,1.1
						c-0.1,0.2-0.2,0.4-0.2,0.6l-0.5,3.9l-1.3,0l0.5-3.8c0.1-1-0.3-1.8-1.3-1.7c-0.9,0-1.6,0.6-1.8,1.2c-0.1,0.2-0.2,0.4-0.2,0.6
						l-0.5,3.8l-1.3,0l0.5-4.7c0.1-0.7,0.1-1.2,0.1-1.7l1.2,0l0,1l0,0c0.5-0.6,1.2-1.2,2.5-1.2c1,0,1.7,0.5,2,1.3l0,0
						c0.3-0.3,0.6-0.6,1-0.9C280.8,194.1,281.3,194,282.1,194z"/>
				</g>
				<g>
					<path fill="#FFFFFF" d="M290.6,194c1.8,0,3,1.3,2.8,3.3c-0.3,2.3-2,3.4-3.8,3.4c-1,0-1.8-0.4-2.2-1l-0.4,3.5l-1.3,0l0.8-7
						c0.1-0.8,0.1-1.5,0.2-2.1l1.2,0l0,1.1l0,0C288.4,194.4,289.4,194,290.6,194z M289.4,199.8c1.4,0,2.3-1,2.6-2.5
						c0.1-1.3-0.5-2.4-1.9-2.4c-0.9,0-1.9,0.6-2.2,1.4c-0.1,0.1-0.1,0.3-0.2,0.5l-0.1,1.1c0,0.2,0,0.3,0,0.5
						C287.7,199.3,288.5,199.8,289.4,199.8"/>
				</g>
				<g>
					<polygon fill="#FFFFFF" points="256,207.6 255.9,208.6 251.5,208.5 251.2,211.4 255.3,211.4 255.2,212.4 251.2,212.4 
						250.7,215.6 255.2,215.6 255.1,216.6 249.3,216.6 250.3,207.6 					"/>
				</g>
				<g>
					<path fill="#FFFFFF" d="M263.3,210.1l-2.9,3.1l2.2,3.3l-1.5,0l-0.9-1.5c-0.2-0.4-0.4-0.8-0.7-1.1l0,0c-0.3,0.4-0.6,0.7-0.9,1.2
						l-1.2,1.5l-1.5,0l3-3.3l-2.2-3.2l1.5,0l0.9,1.4c0.2,0.4,0.4,0.7,0.7,1.1l0,0c0.3-0.4,0.6-0.7,0.8-1l1.2-1.4L263.3,210.1z"/>
				</g>
				<g>
					<path fill="#FFFFFF" d="M266.4,207.1l-0.5,4c0.3-0.3,0.7-0.6,1.1-0.9c0.4-0.2,0.9-0.3,1.5-0.4c1,0,2.5,0.6,2.3,2.8l-0.5,3.8
						l-1.4,0l0.4-3.7c0.1-1-0.2-1.9-1.5-1.9c-0.9,0-1.7,0.5-1.9,1.2c-0.1,0.2-0.1,0.3-0.2,0.5l-0.5,3.8l-1.4,0l1.1-9.5L266.4,207.1z
						"/>
				</g>
				<g>
					<polygon fill="#FFFFFF" points="272.5,216.5 273.3,210.1 274.7,210.1 273.9,216.5 					"/>
				</g>
				<g>
					<path fill="#FFFFFF" d="M274.1,209c-0.5,0-0.8-0.4-0.7-0.8c0.1-0.4,0.5-0.7,1-0.8c0.5,0,0.8,0.4,0.7,0.8S274.6,209,274.1,209z"
						/>
				</g>
				<g>
					<path fill="#FFFFFF" d="M280.8,209.9c1.9,0,3,1.3,2.8,3.3c-0.3,2.3-2.1,3.4-3.7,3.4c-1.1,0-1.9-0.4-2.4-1.2l0,0l-0.1,1l-1.2,0
						c0.1-0.4,0.2-1.1,0.3-1.6l1-7.8l1.3,0l-0.5,4C278.7,210.4,279.7,209.9,280.8,209.9z M279.7,215.7c1.4,0,2.3-1,2.6-2.4
						c0.1-1.3-0.5-2.4-1.9-2.4c-0.9,0-1.9,0.5-2.2,1.4c0,0.1-0.1,0.3-0.2,0.5l-0.1,1.1c0,0.1,0,0.3,0,0.4
						C277.9,215.1,278.7,215.7,279.7,215.7"/>
				</g>
				<g>
					<polygon fill="#FFFFFF" points="284.9,216.4 285.7,210.1 287,210 286.2,216.5 					"/>
				</g>
				<g>
					<path fill="#FFFFFF" d="M296.7,209.9c0.8,0,1.4,0.2,1.8,0.4l-0.5,0.8c-0.3-0.2-0.8-0.4-1.5-0.3c-0.8,0-1.3,0.4-1.4,0.9
						c-0.1,0.5,0.3,0.8,1.3,1.1c1.2,0.4,1.9,1,1.7,1.9c-0.1,1.1-1.2,2-3,2c-0.8,0-1.5-0.2-2-0.4l0.5-0.9c0.4,0.2,1,0.4,1.7,0.5
						c1,0,1.5-0.4,1.5-1c0.1-0.6-0.2-0.9-1.3-1.1c-1.3-0.4-1.9-1-1.8-1.8C293.9,210.7,295.1,209.9,296.7,209.9z"/>
				</g>
				<g>
					<path fill="#FFFFFF" d="M291.1,208.2l-0.2,1.8l1.9,0l-0.2,0.9l-1.9,0l-0.4,3.4c-0.1,0.8,0.1,1.3,0.9,1.3c0.4,0,0.6,0,0.8,0
						l-0.1,0.9c-0.3,0.1-0.7,0.1-1.2,0.2c-0.6,0-1.1-0.1-1.4-0.5c-0.3-0.4-0.4-0.9-0.3-1.7l0.4-3.5l-1.2,0l0.2-0.9l1.2,0l0.2-1.5
						L291.1,208.2z"/>
				</g>
				<g>
					<path fill="#FFFFFF" d="M286.4,208.9c-0.5,0-0.8-0.4-0.7-0.8c0.1-0.4,0.5-0.7,1-0.8c0.5,0,0.8,0.4,0.7,0.8
						C287.4,208.7,287,209,286.4,208.9z"/>
				</g>
			</g>
		</g>
		<g>
			<g>
				<g>
					<path fill="#FFFFFF" d="M246.5,299.2c1.5,0,2.5,0.3,3,0.6l-0.6,1.3c-0.4-0.2-1.3-0.6-2.6-0.7c-1.9,0-2.8,1.1-2.9,2
						c-0.1,1.2,0.6,1.8,2.5,2.5c2.4,0.9,3.4,1.9,3.2,3.8c-0.2,2-2.1,3.7-5.4,3.7c-1.4,0-2.8-0.3-3.5-0.8l0.6-1.4
						c0.7,0.5,1.9,0.8,3.2,0.8c1.9,0,3.1-0.9,3.3-2.2c0.1-1.2-0.5-1.9-2.3-2.6c-2.2-0.8-3.5-1.8-3.3-3.6
						C241.8,300.7,243.7,299.2,246.5,299.2z"/>
				</g>
				<g>
					<path fill="#FFFFFF" d="M254.6,298.6l-0.7,5.7l0,0c0.4-0.5,0.9-0.8,1.4-1.2c0.6-0.3,1.3-0.5,2-0.5c1.4,0,3.4,0.8,3.1,3.9
						l-0.7,5.5l-1.9,0l0.6-5.3c0.2-1.5-0.3-2.8-2.1-2.8c-1.2,0-2.3,0.7-2.7,1.7c-0.1,0.2-0.2,0.5-0.3,0.8l-0.7,5.6l-1.9,0l1.7-13.6
						L254.6,298.6z"/>
				</g>
				<g>
					<path fill="#FFFFFF" d="M280.9,302.7c2.5,0,4.1,1.9,3.8,4.7c-0.4,3.3-2.8,5-5.2,5c-1.3,0-2.4-0.6-3-1.4l0,0l-0.6,5l-1.8,0
						l1.3-10.1c0.1-1.2,0.2-2.1,0.2-3l1.7,0l-0.1,1.6l0,0C278,303.4,279.2,302.8,280.9,302.7z M279.3,311.1c2,0,3.3-1.5,3.5-3.6
						c0.2-1.8-0.7-3.5-2.6-3.5c-1.3,0-2.6,0.8-3.1,2.1c-0.1,0.2-0.2,0.5-0.3,0.7l-0.2,1.6c0,0.2,0,0.5,0,0.7
						C276.9,310.3,278,311.1,279.3,311.1"/>
				</g>
				<g>
					<path fill="#FFFFFF" d="M268.3,302.8c2.9,0,4.7,1.9,4.4,4.8c-0.4,3.4-3.2,5-5.6,4.9c-2.8,0.1-4.7-1.8-4.4-4.8
						C263,304.6,265.5,302.7,268.3,302.8z M267.2,311.2c1.8,0,3.3-1.5,3.5-3.6c0.2-1.6-0.4-3.6-2.6-3.6c-2.2,0-3.4,1.9-3.6,3.6
						C264.3,309.7,265.4,311.2,267.2,311.2"/>
				</g>
			</g>
		</g>
		<g>
			<g>
				<g>
					<path fill="#FFFFFF" d="M240,365.7c0.9,0.2,1.9,0.8,1.8,2c-0.1,0.7-0.5,1.2-1,1.7c-0.8,0.5-1.9,0.8-3.6,0.8c-0.9,0-1.6,0-2-0.1
						l1-8.1c0.6-0.1,1.5-0.2,2.4-0.1c1.3,0,2.1,0.2,2.6,0.6c0.5,0.3,0.7,0.8,0.7,1.5C241.8,364.6,241.1,365.4,240,365.7L240,365.7z
						 M237.7,369.3c1.3,0,2.6-0.4,2.7-1.6c0.1-1.1-1-1.5-2.4-1.6l-1.1,0l-0.3,3.1C236.8,369.3,237.2,369.4,237.7,369.3 M237.4,362.8
						l-0.4,2.6l1.2,0c1.4,0,2.3-0.6,2.3-1.4c0.2-0.9-0.7-1.4-2-1.3C238,362.6,237.6,362.6,237.4,362.8"/>
				</g>
				<g>
					<path fill="#FFFFFF" d="M247,364c0.2,0,0.2,0,0.4,0.1l-0.1,1c-0.1,0-0.3,0-0.4-0.1c-0.9,0-1.7,0.6-1.9,1.4
						c-0.1,0.1-0.1,0.3-0.1,0.5l-0.3,3.1l-1.3,0l0.5-4c0.1-0.7,0.1-1.3,0.2-1.8l1.1,0l-0.1,1.2l0.1,0
						C245.4,364.5,246.2,364.1,247,364z"/>
				</g>
				<g>
					<polygon fill="#FFFFFF" points="248.1,370.1 248.8,364.1 250.1,364.2 249.3,370.1 					"/>
				</g>
				<g>
					<path fill="#FFFFFF" d="M254,362.4l-0.2,1.7l1.9,0l-0.1,0.8l-1.9,0l-0.4,3.2c-0.1,0.7,0.2,1.1,0.9,1.2c0.3,0,0.6,0,0.8,0
						l-0.1,0.8c-0.3,0.1-0.7,0.1-1.2,0.2c-0.6,0-1.1-0.1-1.3-0.4c-0.3-0.3-0.4-0.9-0.3-1.5l0.4-3.2l-1.1,0l0.1-0.8l1.1,0l0.1-1.4
						L254,362.4z"/>
				</g>
				<g>
					<path fill="#FFFFFF" d="M249.5,363.2c-0.5,0-0.7-0.3-0.7-0.7c0.1-0.4,0.5-0.7,0.9-0.6c0.5,0,0.7,0.3,0.7,0.7
						C250.4,362.8,250,363.2,249.5,363.2z"/>
				</g>
				<g>
					<polygon fill="#FFFFFF" points="256.4,370 257.1,364.2 258.4,364.2 257.7,370.1 					"/>
				</g>
				<g>
					<path fill="#FFFFFF" d="M257.8,363.1c-0.5,0-0.7-0.3-0.7-0.7c0.1-0.4,0.5-0.7,0.9-0.6c0.5,0,0.7,0.3,0.7,0.7
						C258.7,362.9,258.3,363.1,257.8,363.1z"/>
				</g>
				<g>
					<path fill="#FFFFFF" d="M262.8,364c0.7,0,1.3,0.1,1.7,0.4l-0.5,0.8c-0.3-0.2-0.7-0.4-1.4-0.3c-0.8,0-1.3,0.4-1.3,0.8
						c-0.1,0.5,0.3,0.7,1.3,1c1.2,0.4,1.8,0.9,1.7,1.8c-0.1,1-1.2,1.8-2.9,1.8c-0.8,0-1.5-0.1-1.9-0.4l0.5-0.8
						c0.3,0.2,1,0.4,1.6,0.4c0.9,0,1.5-0.4,1.5-0.9c0.1-0.5-0.2-0.8-1.2-1c-1.2-0.3-1.8-1-1.7-1.7
						C260.2,364.8,261.2,364.1,262.8,364z"/>
				</g>
				<g>
					<path fill="#FFFFFF" d="M268,361.4l-0.4,3.7c0.3-0.3,0.7-0.5,1.1-0.8s0.9-0.3,1.4-0.3c1,0,2.4,0.5,2.2,2.5l-0.4,3.5l-1.3,0
						l0.4-3.4c0.2-0.9-0.2-1.8-1.5-1.7c-0.8,0-1.6,0.5-1.8,1.1c-0.1,0.1-0.1,0.3-0.2,0.5l-0.4,3.5l-1.3,0l1-8.7L268,361.4z"/>
				</g>
				<g>
					<path fill="#FFFFFF" d="M252.3,383.3c0.5,0.5,1,0.9,1.5,1.4l-1.5,0c-0.2-0.2-0.5-0.5-0.8-0.9c-1,0.7-2,0.9-3.1,1
						c-1.9,0-3-1-2.8-2.2c0.1-1.1,1-1.9,2.3-2.4l0,0c-0.4-0.6-0.7-1.2-0.6-1.7c0.1-1,1.1-2.1,2.8-2.1c1.2,0,2.1,0.7,2,1.7
						c-0.2,0.9-0.8,1.5-2.5,2.2l0,0c0.7,0.8,1.6,1.7,2.1,2.3c0.6-0.5,0.9-1.4,1.3-2.4l1.2,0C253.7,381.5,253.2,382.5,252.3,383.3z
						 M248.7,384.1c0.9,0,1.6-0.3,2.2-0.7c-0.5-0.6-1.5-1.5-2.4-2.6c-0.6,0.3-1.4,0.8-1.5,1.7C246.8,383.3,247.5,384,248.7,384.1
						 M249.9,377.1c-0.8,0-1.3,0.6-1.4,1.2c-0.1,0.6,0.2,1,0.6,1.5c1.1-0.5,1.8-0.9,1.8-1.6C250.9,377.6,250.7,377,249.9,377.1"/>
				</g>
				<g>
					<path fill="#FFFFFF" d="M242.7,393.3c2.1,0,3.3,1.2,3.1,3c-0.3,2.2-2.2,3.1-3.9,3.1c-1.9,0-3.3-1.1-3.1-3
						S240.7,393.3,242.7,393.3z M242,398.7c1.2,0,2.3-0.9,2.5-2.3c0.1-1-0.3-2.3-1.8-2.3c-1.5,0-2.3,1.1-2.5,2.3
						C240,397.7,240.7,398.6,242,398.7"/>
				</g>
				<g>
					<path fill="#FFFFFF" d="M235.6,391c1,0,1.7,0.2,2.1,0.4l-0.5,0.8c-0.3-0.2-0.9-0.4-1.8-0.4c-1.4,0-2,0.7-2,1.2
						c-0.1,0.8,0.5,1.2,1.8,1.6c1.6,0.5,2.4,1.2,2.2,2.4c-0.1,1.3-1.4,2.4-3.8,2.4c-1,0-2-0.2-2.4-0.6l0.5-0.9
						c0.5,0.3,1.3,0.5,2.2,0.6c1.3,0,2.2-0.6,2.2-1.4s-0.4-1.2-1.7-1.6c-1.5-0.5-2.5-1.2-2.3-2.3C232.3,392,233.7,391,235.6,391z"/>
				</g>
				<g>
					<path fill="#FFFFFF" d="M253.8,393.4l-0.5,4.3c-0.1,0.6-0.1,1.1-0.1,1.6l-1.2,0l0-1l0,0c-0.4,0.5-1.2,1.1-2.5,1.1
						c-1.1,0-2.4-0.5-2.1-2.6l0.4-3.4l1.3,0l-0.4,3.2c-0.1,1.1,0.2,1.9,1.4,1.8c0.9,0,1.6-0.5,1.8-1c0.1-0.2,0.2-0.3,0.2-0.5
						l0.4-3.6L253.8,393.4z"/>
				</g>
				<g>
					<path fill="#FFFFFF" d="M257.7,391.7l-0.2,1.7l1.9,0l-0.1,0.8l-1.9,0l-0.4,3.2c-0.1,0.7,0.1,1.1,0.9,1.2c0.3,0,0.6,0,0.8,0
						l-0.1,0.8c-0.3,0.1-0.7,0.1-1.2,0.2c-0.6,0-1.1-0.1-1.3-0.4c-0.3-0.3-0.4-0.9-0.3-1.5l0.4-3.2l-1.1,0l0.1-0.8l1.1,0l0.1-1.4
						L257.7,391.7z"/>
				</g>
				<g>
					<path fill="#FFFFFF" d="M262.4,390.6l-0.4,3.7c0.3-0.3,0.7-0.5,1.1-0.8s0.9-0.3,1.4-0.3c1,0,2.4,0.5,2.2,2.5l-0.4,3.5l-1.3,0
						l0.4-3.4c0.2-0.9-0.2-1.8-1.5-1.7c-0.8,0-1.6,0.5-1.8,1.1c-0.1,0.1-0.1,0.3-0.2,0.5l-0.4,3.5l-1.3,0l1-8.7L262.4,390.6z"/>
				</g>
				<g>
					<path fill="#FFFFFF" d="M251.7,410.6c0,0.2-0.1,0.4-0.1,0.5l-5,0c-0.1,1.4,0.9,2.1,2.2,2.1c0.9,0,1.5-0.2,2-0.3l0.1,0.8
						c-0.5,0.1-1.3,0.4-2.4,0.3c-2.2,0-3.4-1.2-3.2-2.9c0.2-1.8,1.6-3.2,3.7-3.2C251.4,407.8,251.8,409.6,251.7,410.6z M246.7,410.4
						l3.8,0c0.1-0.7-0.1-1.7-1.6-1.7C247.6,408.7,246.9,409.7,246.7,410.4"/>
				</g>
				<g>
					<path fill="#FFFFFF" d="M245.3,405.7l-3.8,8.2l-1.3,0l-0.7-4.3c-0.2-1.1-0.3-1.9-0.3-2.7l0,0c-0.3,0.8-0.6,1.6-1.1,2.7l-2,4.3
						l-1.3,0l-1.6-8.2l1.4,0l0.7,4.2c0.2,1,0.3,2.1,0.4,2.9c0.3-0.8,0.7-1.8,1.1-2.9l1.8-4.1l1.3,0l0.7,4.2c0.2,1,0.3,2,0.4,2.8l0,0
						c0.4-0.9,0.7-1.8,1.1-2.9l1.8-4.1L245.3,405.7z"/>
				</g>
				<g>
					<path fill="#FFFFFF" d="M261.3,406.3l-0.2,1.7l1.9,0l-0.1,0.8l-1.9,0l-0.4,3.2c-0.1,0.7,0.1,1.1,0.9,1.2c0.3,0,0.6,0,0.8,0
						l-0.1,0.8c-0.3,0.1-0.7,0.1-1.2,0.2c-0.6,0-1.1-0.1-1.3-0.4c-0.3-0.3-0.4-0.9-0.3-1.5l0.4-3.2l-1.1,0l0.1-0.8l1.1,0l0.1-1.4
						L261.3,406.3z"/>
				</g>
				<g>
					<path fill="#FFFFFF" d="M255.9,407.9c0.7,0,1.3,0.1,1.7,0.4l-0.5,0.8c-0.2-0.2-0.7-0.4-1.4-0.3c-0.8,0-1.3,0.4-1.3,0.8
						c-0.1,0.5,0.3,0.7,1.3,1c1.2,0.4,1.8,0.9,1.7,1.8c-0.1,1-1.2,1.8-2.9,1.8c-0.8,0-1.5-0.1-1.9-0.4l0.5-0.8
						c0.3,0.2,1,0.4,1.6,0.4c0.9,0,1.5-0.4,1.5-0.9c0.1-0.5-0.2-0.8-1.2-1c-1.2-0.3-1.8-1-1.7-1.7
						C253.3,408.6,254.4,407.9,255.9,407.9z"/>
				</g>
				<g>
					<polygon fill="#FFFFFF" points="237.6,428.5 238.2,422.7 239.5,422.6 238.9,428.6 					"/>
				</g>
				<g>
					<path fill="#FFFFFF" d="M237.3,420.3l-3.8,8.2l-1.3,0l-0.7-4.3c-0.2-1.1-0.3-1.9-0.3-2.7l0,0c-0.3,0.8-0.6,1.6-1.1,2.7l-2,4.3
						l-1.3,0l-1.6-8.2l1.4,0l0.7,4.2c0.2,1,0.3,2.1,0.4,2.9c0.3-0.8,0.7-1.8,1.1-2.9l1.9-4.1l1.3,0l0.7,4.2c0.2,1,0.3,2,0.4,2.8
						c0.4-0.9,0.7-1.8,1.1-2.9l1.8-4.1L237.3,420.3z"/>
				</g>
				<g>
					<path fill="#FFFFFF" d="M239,421.7c-0.5,0-0.7-0.3-0.7-0.7c0.1-0.4,0.5-0.7,0.9-0.6c0.5,0,0.7,0.3,0.7,0.7
						S239.5,421.6,239,421.7z"/>
				</g>
				<g>
					<polygon fill="#FFFFFF" points="243.4,419.9 242.3,428.6 241,428.6 242,419.9 					"/>
				</g>
				<g>
					<path fill="#FFFFFF" d="M250.9,427c-0.1,0.5-0.1,1.1-0.1,1.5l-1.2,0l0-1l0,0c-0.5,0.6-1.4,1.2-2.5,1.1c-1.7,0-2.9-1.2-2.7-3
						c0.2-2,1.8-3.2,3.6-3.2c1.1,0,1.8,0.4,2.1,0.9l0,0l0.4-3.5l1.3,0L250.9,427z M249.6,426.1l0.1-1c0-0.1,0-0.3,0-0.4
						c-0.1-0.7-0.8-1.3-1.8-1.2c-1.3,0-2.2,1-2.4,2.2c-0.1,1.2,0.4,2.2,1.8,2.2c0.9,0,1.8-0.5,2-1.3
						C249.7,426.4,249.7,426.3,249.6,426.1"/>
				</g>
				<g>
					<polygon fill="#FFFFFF" points="255.2,419.9 254.2,428.5 252.9,428.5 253.9,419.8 					"/>
				</g>
				<g>
					<polygon fill="#FFFFFF" points="256.3,428.5 257.1,422.7 258.4,422.6 257.6,428.5 					"/>
				</g>
				<g>
					<path fill="#FFFFFF" d="M257.8,421.6c-0.5,0-0.7-0.3-0.7-0.7c0.1-0.4,0.5-0.7,0.9-0.6c0.5,0,0.7,0.3,0.7,0.7
						C258.7,421.4,258.3,421.6,257.8,421.6z"/>
				</g>
				<g>
					<path fill="#FFFFFF" d="M263.5,419.7c0.5,0,0.8,0.1,1.1,0.1l-0.3,0.8c-0.2-0.1-0.4-0.2-0.8-0.2c-1.1,0-1.5,0.8-1.6,1.7
						l-0.1,0.3l1.7,0l-0.1,0.8l-1.7,0l-0.6,5l-1.3,0l0.6-5l-1,0l0.1-0.8l1,0l0-0.3c0.1-0.8,0.4-1.6,1.1-2.1
						C262.2,419.9,262.9,419.7,263.5,419.7z"/>
				</g>
				<g>
					<path fill="#FFFFFF" d="M270.3,425.2c0,0.2-0.1,0.4-0.1,0.5l-5,0c-0.1,1.4,0.9,2.1,2.2,2.1c0.9,0,1.5-0.2,2-0.3l0.1,0.8
						c-0.5,0.1-1.3,0.4-2.4,0.3c-2.2,0-3.4-1.2-3.2-2.9c0.2-1.8,1.6-3.2,3.7-3.2C270,422.5,270.4,424.1,270.3,425.2z M265.3,425
						l3.8,0c0.1-0.7-0.1-1.7-1.6-1.7C266.1,423.3,265.5,424.2,265.3,425"/>
				</g>
			</g>
		</g>
	</g>
	<g>
		<polygon fill="#405E5E" points="329.9,440.1 328.9,447.3 333.2,447.2 333.1,448.1 327.6,448.1 328.6,440.2 		"/>
		<polygon fill="#405E5E" points="334.5,448.1 335.3,442.4 336.6,442.3 335.8,448.1 		"/>
		<path fill="#405E5E" d="M341.8,439.6c0.5,0,0.8,0.1,1.1,0.1l-0.3,0.8c-0.2-0.1-0.4-0.2-0.8-0.2c-1.1,0-1.5,0.8-1.6,1.7l-0.1,0.3
			l1.7,0l-0.1,0.8l-1.7,0l-0.6,4.9l-1.3,0l0.6-4.9l-1,0l0.1-0.8l1,0l0.1-0.3c0.2-0.8,0.4-1.5,1.1-2
			C340.5,439.7,341.1,439.6,341.8,439.6z"/>
		<path fill="#405E5E" d="M336,441.4c-0.5,0-0.7-0.3-0.7-0.7c0.1-0.4,0.5-0.6,0.9-0.6c0.5,0,0.7,0.3,0.7,0.7
			C336.9,441.1,336.5,441.3,336,441.4z"/>
		<path fill="#405E5E" d="M344.8,440.7l-0.2,1.6l1.9,0l-0.1,0.8l-1.9,0l-0.4,3.1c-0.1,0.7,0.1,1.1,0.9,1.1c0.3,0,0.6,0,0.8,0
			l-0.1,0.8c-0.3,0.1-0.7,0.1-1.2,0.2c-0.6,0-1.1-0.1-1.3-0.4c-0.3-0.3-0.3-0.8-0.3-1.5l0.4-3.1l-1.1,0l0.1-0.8l1.1,0l0.2-1.4
			L344.8,440.7z"/>
	</g>
</g>
<g id="Layer_6">
</g>
<g id="Layer_2">
</g>
</svg>
